<svg width="13" height="13" viewBox="0 0 13 13" fill="none" xmlns="http://www.w3.org/2000/svg">
<g clip-path="url(#clip0_347_549)">
<path d="M12.4974 12.5005V12.5H12.5005V7.91563C12.5005 5.67292 12.0177 3.94531 9.39583 3.94531C8.13541 3.94531 7.28958 4.63698 6.94427 5.29271H6.90781V4.15469H4.42188V12.5H7.01041V8.36771C7.01041 7.27969 7.21666 6.22761 8.56406 6.22761C9.89166 6.22761 9.91145 7.46927 9.91145 8.4375V12.5005H12.4974Z" fill="black"/>
<path d="M0.207031 4.1543H2.7987V12.4996H0.207031V4.1543Z" fill="black"/>
<path d="M1.50104 0C0.672396 0 0 0.672396 0 1.50104C0 2.32969 0.672396 3.01615 1.50104 3.01615C2.32969 3.01615 3.00208 2.32969 3.00208 1.50104C3.00156 0.672396 2.32917 0 1.50104 0V0Z" fill="black"/>
</g>
<defs>
<clipPath id="clip0_347_549">
<rect width="12.5" height="12.5" fill="white"/>
</clipPath>
</defs>
</svg>
