<svg width="289" height="578" viewBox="0 0 289 578" fill="none" xmlns="http://www.w3.org/2000/svg">
<mask id="path-1-inside-1_521_1951" fill="white">
<path fill-rule="evenodd" clip-rule="evenodd" d="M207.814 0.315251C207.471 0.426433 205.65 0.977647 203.767 1.54139C191.829 5.11017 190.374 5.61284 178.239 10.3639C177.04 10.8321 175.429 11.3927 174.659 11.6088C173.888 11.8234 173.258 12.3495 173.258 12.777C173.258 13.8873 286.982 128.074 288.291 128.28C289.625 128.488 403.629 14.5419 403.629 12.9994C403.629 12.3856 402.818 11.731 401.606 11.3677C400.493 11.0341 396.64 9.59348 393.045 8.1669C389.449 6.74032 385.246 5.19474 383.705 4.73122C382.164 4.26926 379.363 3.41426 377.479 2.83329C370.064 0.545447 367.774 -0.0104646 366.448 0.155526C365.578 0.263576 351.123 14.2944 327.347 38.1062C300.171 65.3239 289.297 75.8298 288.447 75.6889C287.798 75.5808 270.313 58.5105 249.593 37.7539C210.712 -1.19588 211.179 -0.776213 207.814 0.315251ZM120.024 41.4698C117.626 43.1642 114.404 45.416 112.863 46.4746C107.334 50.272 96.0524 59.6505 96.0524 60.446C96.0524 61.0395 267.321 233.373 285.841 251.414C287.651 253.179 288.579 253.684 289.284 253.287C291.219 252.197 480.835 61.2884 480.835 60.4303C480.835 59.1775 462.925 45.1279 453.864 39.2728C451.584 37.7993 461.166 28.5649 370.145 119.952C311.039 179.295 289.854 200.196 288.654 200.349C287.234 200.529 276.995 190.463 206.8 119.875C162.675 75.501 126.079 39.0129 125.476 38.7921C124.74 38.5212 122.955 39.3965 120.024 41.4698ZM58.6311 97.5526C56.413 99.9986 48.7609 109.898 45.9062 114.015C38.7538 124.33 38.6495 124.517 39.3001 125.74C39.6457 126.391 76.0926 163.15 120.291 207.426C164.49 251.703 200.654 288.339 200.654 288.842C200.654 289.343 164.231 326.383 119.715 371.151C33.4101 457.948 37.8214 453.19 40.7104 456.372C41.3563 457.082 41.884 457.975 41.884 458.354C41.884 458.735 42.0942 459.139 42.351 459.254C42.6078 459.369 43.6585 460.731 44.6858 462.281C45.7132 463.832 46.7716 465.382 47.0394 465.727C47.3071 466.071 48.8481 468.069 50.4638 470.166C57.2224 478.935 59.6849 481.69 60.7682 481.694C61.4562 481.698 96.756 446.707 149.704 393.536C254.61 288.191 252.593 290.233 252.833 289.137C253.026 288.252 62.3653 96.3092 60.9722 95.9866C60.5534 95.8895 59.4996 96.5942 58.6311 97.5526ZM419.662 192.079C367.011 244.996 323.933 288.639 323.933 289.066C323.933 289.932 515.481 482.326 516.343 482.326C517.696 482.326 538.117 455.047 538.117 453.24C538.117 452.804 501.833 415.983 457.487 371.413C397.655 311.282 376.857 290.01 376.857 288.955C376.857 287.896 397.621 266.692 457.487 206.613C501.833 162.109 538.117 125.314 538.117 124.845C538.117 124.03 536.65 121.408 535.323 119.853C534.975 119.446 533.711 117.669 532.513 115.902C526.383 106.868 517.533 95.9287 516.325 95.8958C515.811 95.8817 472.313 139.164 419.662 192.079ZM563.115 173.463C561.292 174.597 448.458 288.305 448.458 289.01C448.458 290.123 562.836 404.821 563.669 404.542C564.396 404.298 565.146 402.622 568.806 393.067C571.527 385.962 572.538 382.973 574.209 377.094C574.943 374.51 575.939 371.305 576.424 369.969C577.625 366.651 580.436 369.79 538.777 327.925C511.232 300.244 501.382 289.97 501.382 288.919C501.382 287.868 511.182 277.693 538.789 250.082C580.247 208.619 577.698 211.453 576.464 208.158C575.974 206.849 574.965 203.666 574.223 201.082C572.517 195.142 569.799 187.14 567.947 182.604C567.666 181.915 566.693 179.519 565.786 177.28C563.831 172.455 564.105 172.848 563.115 173.463ZM11.9887 175.198C11.64 176.171 10.9613 177.953 10.4803 179.159C7.67542 186.199 5.15223 193.208 3.94122 197.324C3.18162 199.907 2.17763 203.149 1.70911 204.527C1.24214 205.905 0.672435 208.091 0.44362 209.385L0.0280191 211.737L38.1483 249.817C65.2807 276.922 76.2031 288.222 76.0428 289.025C75.9183 289.647 58.7587 307.284 37.9086 328.219L0 366.284L0.451403 368.713C0.923042 371.247 3.0244 378.373 3.93966 380.539C4.22918 381.228 4.73818 382.778 5.06973 383.984C5.40128 385.19 6.27607 387.727 7.01232 389.622C7.75013 391.516 8.64049 393.912 8.99227 394.946C10.9504 400.707 12.7794 404.342 13.7196 404.342C14.764 404.342 128.429 289.985 128.429 288.936C128.429 287.926 14.8123 173.93 13.5079 173.632C13.0004 173.517 12.3529 174.184 11.9887 175.198ZM279.293 332.77C274.772 337.339 231.695 380.66 183.564 429.038C135.432 477.416 96.0524 517.177 96.0524 517.395C96.0524 519.221 122.466 539.326 124.864 539.326C125.73 539.326 168.106 497.169 247.777 417.052C282.68 381.953 287.897 376.941 288.979 377.45C289.661 377.771 326.401 414.254 370.622 458.523C414.844 502.792 451.413 539.1 451.884 539.208C452.356 539.315 453.53 538.895 454.492 538.275C458.195 535.884 468.723 528.374 469.316 527.699C469.659 527.309 472.391 525.091 475.387 522.771C478.46 520.391 480.835 518.087 480.835 517.486C480.835 516.236 290.003 324.87 288.515 324.627C287.924 324.532 284.123 327.886 279.293 332.77ZM230.384 507.042C198.965 538.524 173.258 564.541 173.258 564.857C173.258 565.451 175.06 566.414 178.862 567.854C180.06 568.308 182.582 569.271 184.465 569.995C188.729 571.633 195.174 573.791 201.276 575.621C203.844 576.392 206.69 577.302 207.599 577.643C210.71 578.811 211.861 577.781 249.466 540.109C277.4 512.127 287.51 502.37 288.571 502.37C289.636 502.37 299.693 512.118 327.669 540.266C366.328 579.162 366.098 578.955 369.511 577.588C370.299 577.273 373.043 576.395 375.611 575.637C384.127 573.124 388.355 571.772 390.243 570.96C391.27 570.518 393.171 569.704 394.467 569.148C395.763 568.593 397.163 568.13 397.581 568.117C397.996 568.105 399.738 567.419 401.45 566.594L404.563 565.092L347.221 507.423C310.541 470.534 289.452 449.763 288.694 449.779C287.974 449.793 265.175 472.181 230.384 507.042Z"/>
</mask>
<path fill-rule="evenodd" clip-rule="evenodd" d="M207.814 0.315251C207.471 0.426433 205.65 0.977647 203.767 1.54139C191.829 5.11017 190.374 5.61284 178.239 10.3639C177.04 10.8321 175.429 11.3927 174.659 11.6088C173.888 11.8234 173.258 12.3495 173.258 12.777C173.258 13.8873 286.982 128.074 288.291 128.28C289.625 128.488 403.629 14.5419 403.629 12.9994C403.629 12.3856 402.818 11.731 401.606 11.3677C400.493 11.0341 396.64 9.59348 393.045 8.1669C389.449 6.74032 385.246 5.19474 383.705 4.73122C382.164 4.26926 379.363 3.41426 377.479 2.83329C370.064 0.545447 367.774 -0.0104646 366.448 0.155526C365.578 0.263576 351.123 14.2944 327.347 38.1062C300.171 65.3239 289.297 75.8298 288.447 75.6889C287.798 75.5808 270.313 58.5105 249.593 37.7539C210.712 -1.19588 211.179 -0.776213 207.814 0.315251ZM120.024 41.4698C117.626 43.1642 114.404 45.416 112.863 46.4746C107.334 50.272 96.0524 59.6505 96.0524 60.446C96.0524 61.0395 267.321 233.373 285.841 251.414C287.651 253.179 288.579 253.684 289.284 253.287C291.219 252.197 480.835 61.2884 480.835 60.4303C480.835 59.1775 462.925 45.1279 453.864 39.2728C451.584 37.7993 461.166 28.5649 370.145 119.952C311.039 179.295 289.854 200.196 288.654 200.349C287.234 200.529 276.995 190.463 206.8 119.875C162.675 75.501 126.079 39.0129 125.476 38.7921C124.74 38.5212 122.955 39.3965 120.024 41.4698ZM58.6311 97.5526C56.413 99.9986 48.7609 109.898 45.9062 114.015C38.7538 124.33 38.6495 124.517 39.3001 125.74C39.6457 126.391 76.0926 163.15 120.291 207.426C164.49 251.703 200.654 288.339 200.654 288.842C200.654 289.343 164.231 326.383 119.715 371.151C33.4101 457.948 37.8214 453.19 40.7104 456.372C41.3563 457.082 41.884 457.975 41.884 458.354C41.884 458.735 42.0942 459.139 42.351 459.254C42.6078 459.369 43.6585 460.731 44.6858 462.281C45.7132 463.832 46.7716 465.382 47.0394 465.727C47.3071 466.071 48.8481 468.069 50.4638 470.166C57.2224 478.935 59.6849 481.69 60.7682 481.694C61.4562 481.698 96.756 446.707 149.704 393.536C254.61 288.191 252.593 290.233 252.833 289.137C253.026 288.252 62.3653 96.3092 60.9722 95.9866C60.5534 95.8895 59.4996 96.5942 58.6311 97.5526ZM419.662 192.079C367.011 244.996 323.933 288.639 323.933 289.066C323.933 289.932 515.481 482.326 516.343 482.326C517.696 482.326 538.117 455.047 538.117 453.24C538.117 452.804 501.833 415.983 457.487 371.413C397.655 311.282 376.857 290.01 376.857 288.955C376.857 287.896 397.621 266.692 457.487 206.613C501.833 162.109 538.117 125.314 538.117 124.845C538.117 124.03 536.65 121.408 535.323 119.853C534.975 119.446 533.711 117.669 532.513 115.902C526.383 106.868 517.533 95.9287 516.325 95.8958C515.811 95.8817 472.313 139.164 419.662 192.079ZM563.115 173.463C561.292 174.597 448.458 288.305 448.458 289.01C448.458 290.123 562.836 404.821 563.669 404.542C564.396 404.298 565.146 402.622 568.806 393.067C571.527 385.962 572.538 382.973 574.209 377.094C574.943 374.51 575.939 371.305 576.424 369.969C577.625 366.651 580.436 369.79 538.777 327.925C511.232 300.244 501.382 289.97 501.382 288.919C501.382 287.868 511.182 277.693 538.789 250.082C580.247 208.619 577.698 211.453 576.464 208.158C575.974 206.849 574.965 203.666 574.223 201.082C572.517 195.142 569.799 187.14 567.947 182.604C567.666 181.915 566.693 179.519 565.786 177.28C563.831 172.455 564.105 172.848 563.115 173.463ZM11.9887 175.198C11.64 176.171 10.9613 177.953 10.4803 179.159C7.67542 186.199 5.15223 193.208 3.94122 197.324C3.18162 199.907 2.17763 203.149 1.70911 204.527C1.24214 205.905 0.672435 208.091 0.44362 209.385L0.0280191 211.737L38.1483 249.817C65.2807 276.922 76.2031 288.222 76.0428 289.025C75.9183 289.647 58.7587 307.284 37.9086 328.219L0 366.284L0.451403 368.713C0.923042 371.247 3.0244 378.373 3.93966 380.539C4.22918 381.228 4.73818 382.778 5.06973 383.984C5.40128 385.19 6.27607 387.727 7.01232 389.622C7.75013 391.516 8.64049 393.912 8.99227 394.946C10.9504 400.707 12.7794 404.342 13.7196 404.342C14.764 404.342 128.429 289.985 128.429 288.936C128.429 287.926 14.8123 173.93 13.5079 173.632C13.0004 173.517 12.3529 174.184 11.9887 175.198ZM279.293 332.77C274.772 337.339 231.695 380.66 183.564 429.038C135.432 477.416 96.0524 517.177 96.0524 517.395C96.0524 519.221 122.466 539.326 124.864 539.326C125.73 539.326 168.106 497.169 247.777 417.052C282.68 381.953 287.897 376.941 288.979 377.45C289.661 377.771 326.401 414.254 370.622 458.523C414.844 502.792 451.413 539.1 451.884 539.208C452.356 539.315 453.53 538.895 454.492 538.275C458.195 535.884 468.723 528.374 469.316 527.699C469.659 527.309 472.391 525.091 475.387 522.771C478.46 520.391 480.835 518.087 480.835 517.486C480.835 516.236 290.003 324.87 288.515 324.627C287.924 324.532 284.123 327.886 279.293 332.77ZM230.384 507.042C198.965 538.524 173.258 564.541 173.258 564.857C173.258 565.451 175.06 566.414 178.862 567.854C180.06 568.308 182.582 569.271 184.465 569.995C188.729 571.633 195.174 573.791 201.276 575.621C203.844 576.392 206.69 577.302 207.599 577.643C210.71 578.811 211.861 577.781 249.466 540.109C277.4 512.127 287.51 502.37 288.571 502.37C289.636 502.37 299.693 512.118 327.669 540.266C366.328 579.162 366.098 578.955 369.511 577.588C370.299 577.273 373.043 576.395 375.611 575.637C384.127 573.124 388.355 571.772 390.243 570.96C391.27 570.518 393.171 569.704 394.467 569.148C395.763 568.593 397.163 568.13 397.581 568.117C397.996 568.105 399.738 567.419 401.45 566.594L404.563 565.092L347.221 507.423C310.541 470.534 289.452 449.763 288.694 449.779C287.974 449.793 265.175 472.181 230.384 507.042Z" stroke="#C7A45D" stroke-width="2" mask="url(#path-1-inside-1_521_1951)"/>
</svg>
