<svg width="24" height="24" viewBox="0 0 24 24" fill="none" xmlns="http://www.w3.org/2000/svg">
<path d="M23.8857 22.4001C23.8857 22.7941 23.7292 23.172 23.4505 23.4507C23.1719 23.7293 22.794 23.8858 22.4 23.8858H1.59997C1.20594 23.8858 0.828039 23.7293 0.549414 23.4507C0.270788 23.172 0.114258 22.7941 0.114258 22.4001C0.114258 22.0061 0.270788 21.6282 0.549414 21.3495C0.828039 21.0709 1.20594 20.9144 1.59997 20.9144H22.4C22.794 20.9144 23.1719 21.0709 23.4505 21.3495C23.7292 21.6282 23.8857 22.0061 23.8857 22.4001ZM0.480734 9.36643C0.22098 8.88899 0.0957578 8.34998 0.118436 7.80693C0.141114 7.26388 0.31084 6.73719 0.609496 6.28307C1.05615 5.5969 1.6629 5.02958 2.3775 4.62997L9.46832 0.760177C10.2442 0.334491 11.115 0.111328 12 0.111328C12.885 0.111328 13.7557 0.334491 14.5316 0.760177L21.6234 4.62997C22.3373 5.02934 22.9436 5.59592 23.3905 6.28109C23.6899 6.73514 23.8604 7.26199 23.8838 7.80539C23.9072 8.34879 23.7825 8.88834 23.5232 9.36643C23.2686 9.8427 22.8939 10.2441 22.4362 10.5308C21.9786 10.8175 21.4539 10.9795 20.9143 11.0007V15.962H21.4095C21.8035 15.962 22.1814 16.1185 22.4601 16.3972C22.7387 16.6758 22.8952 17.0537 22.8952 17.4477C22.8952 17.8418 22.7387 18.2197 22.4601 18.4983C22.1814 18.7769 21.8035 18.9334 21.4095 18.9334H2.59045C2.19641 18.9334 1.81852 18.7769 1.53989 18.4983C1.26126 18.2197 1.10473 17.8418 1.10473 17.4477C1.10473 17.0537 1.26126 16.6758 1.53989 16.3972C1.81852 16.1185 2.19641 15.962 2.59045 15.962H3.08569V11.0007C2.54675 10.9788 2.02288 10.8165 1.56597 10.5298C1.10907 10.2432 0.734969 9.84213 0.480734 9.36643V9.36643ZM6.05712 15.962H8.03807V11.0096H6.05712V15.962ZM11.0095 11.0096V15.962H12.9905V11.0096H11.0095ZM17.9428 15.962V11.0096H15.9619V15.962H17.9428ZM3.08569 7.92627C3.09165 7.95677 3.10768 7.98438 3.13121 8.00468C3.15474 8.02497 3.1844 8.03678 3.21544 8.0382H20.7845C20.8156 8.03585 20.845 8.02346 20.8684 8.00292C20.8918 7.98237 20.9079 7.95478 20.9143 7.92429C20.7336 7.64242 20.4889 7.40723 20.2001 7.23789L13.1083 3.36909C12.7689 3.18295 12.3881 3.08537 12.001 3.08537C11.6139 3.08537 11.233 3.18295 10.8936 3.36909L3.80081 7.23789C3.51038 7.40628 3.26502 7.64246 3.08569 7.92627Z" fill="#32476D"/>
</svg>
