<svg width="30" height="25" viewBox="0 0 30 25" fill="none" xmlns="http://www.w3.org/2000/svg">
<path d="M24.2854 4.90688H18.095C16.6178 4.90847 15.2017 5.47703 14.1572 6.48783C13.1127 7.49863 12.5252 8.86911 12.5235 10.2986V14.4921H3.85686V1.91149C3.85686 1.43484 3.6612 0.977703 3.31292 0.640656C2.96464 0.303609 2.49227 0.114258 1.99972 0.114258C1.50718 0.114258 1.0348 0.303609 0.686523 0.640656C0.338241 0.977703 0.142578 1.43484 0.142578 1.91149L0.142578 22.2802C0.142578 22.7568 0.338241 23.2139 0.686523 23.551C1.0348 23.888 1.50718 24.0774 1.99972 24.0774C2.49227 24.0774 2.96464 23.888 3.31292 23.551C3.6612 23.2139 3.85686 22.7568 3.85686 22.2802V20.4829H26.1426V22.2802C26.1426 22.7568 26.3382 23.2139 26.6865 23.551C27.0348 23.888 27.5072 24.0774 27.9997 24.0774C28.4923 24.0774 28.9646 23.888 29.3129 23.551C29.6612 23.2139 29.8569 22.7568 29.8569 22.2802V10.2986C29.8552 8.86911 29.2677 7.49863 28.2232 6.48783C27.1787 5.47703 25.7626 4.90847 24.2854 4.90688ZM26.1426 14.4921H16.2378V10.2986C16.2378 9.82193 16.4335 9.3648 16.7818 9.02775C17.13 8.6907 17.6024 8.50135 18.095 8.50135H24.2854C24.778 8.50135 25.2503 8.6907 25.5986 9.02775C25.9469 9.3648 26.1426 9.82193 26.1426 10.2986V14.4921ZM8.1902 14.4921C7.57802 14.4921 6.97958 14.3165 6.47057 13.9873C5.96157 13.6582 5.56484 13.1904 5.33057 12.643C5.0963 12.0957 5.035 11.4934 5.15443 10.9124C5.27386 10.3313 5.56866 9.7976 6.00153 9.37868C6.43441 8.95977 6.98593 8.67449 7.58635 8.55891C8.18676 8.44333 8.80911 8.50265 9.37469 8.72936C9.94027 8.95608 10.4237 9.34001 10.7638 9.83259C11.1039 10.3252 11.2854 10.9043 11.2854 11.4967C11.2854 12.2912 10.9593 13.0531 10.3789 13.6148C9.79839 14.1766 9.0111 14.4921 8.1902 14.4921Z" fill="#32476D"/>
</svg>
