<svg width="24" height="22" viewBox="0 0 24 22" fill="none" xmlns="http://www.w3.org/2000/svg">
<path d="M21.9285 1.371C21.3105 0.856068 20.5862 0.484387 19.8075 0.28265C19.0288 0.0809131 18.2151 0.0541274 17.4248 0.204217L14.1731 0.885664C13.3651 1.03019 12.6129 1.39564 12 1.94151C11.3998 1.39967 10.6608 1.03546 9.8655 0.889626L6.53651 0.196293C5.75172 0.0535831 4.94516 0.0849599 4.17382 0.288206C3.40248 0.491453 2.68519 0.861609 2.07262 1.37252C1.46006 1.88343 0.967164 2.52264 0.628769 3.24497C0.290375 3.96729 0.114736 4.75512 0.114263 5.55279V15.2515C0.112497 16.5239 0.556792 17.7566 1.36987 18.7352C2.18294 19.7139 3.31335 20.3766 4.56447 20.608L10.3162 21.7441C10.8698 21.8451 11.4313 21.8958 11.994 21.8956C12.5681 21.8953 13.1409 21.8432 13.7056 21.7401L19.4127 20.608C20.6672 20.3799 21.8018 19.719 22.6192 18.7404C23.4365 17.7618 23.8847 16.5275 23.8857 15.2525V5.55279C23.8865 4.75481 23.7115 3.96646 23.3733 3.24372C23.035 2.52098 22.5417 1.8816 21.9285 1.371ZM10.5143 18.7548L5.11914 17.6891C4.5485 17.5854 4.03238 17.2847 3.66076 16.8394C3.28915 16.3941 3.08563 15.8325 3.08569 15.2525V5.55279C3.08751 4.89765 3.34817 4.26978 3.81086 3.80597C4.27356 3.34215 4.90081 3.07999 5.55594 3.0766C5.69345 3.07633 5.83071 3.0886 5.966 3.11325L9.29499 3.80658C9.63706 3.86893 9.94642 4.04929 10.1692 4.31624C10.392 4.58319 10.5141 4.91983 10.5143 5.26753V18.7548ZM20.9143 15.2525C20.9132 15.836 20.7066 16.4005 20.3307 16.8468C19.9549 17.2931 19.4338 17.5927 18.859 17.6931L13.4857 18.7548V5.26753C13.4878 4.91331 13.6154 4.57131 13.8459 4.30235C14.0764 4.03339 14.3949 3.85491 14.7446 3.79865L17.9953 3.1182C18.352 3.05338 18.7186 3.06767 19.0692 3.16006C19.4197 3.25246 19.7457 3.4207 20.0241 3.65291C20.3025 3.88512 20.5265 4.17563 20.6804 4.50391C20.8342 4.8322 20.914 5.19026 20.9143 5.55279V15.2525Z" fill="#32476D"/>
</svg>
