<svg width="501" height="568" viewBox="0 0 501 568" fill="none" xmlns="http://www.w3.org/2000/svg">
<mask id="path-1-inside-1_1_165" fill="white">
<path fill-rule="evenodd" clip-rule="evenodd" d="M251.033 0.380701C250.62 0.514966 248.42 1.18062 246.144 1.8614C231.725 6.17111 229.966 6.77814 215.308 12.5156C213.86 13.081 211.914 13.758 210.983 14.019C210.052 14.2781 209.291 14.9135 209.291 15.4297C209.291 16.7705 346.666 154.664 348.248 154.912C349.859 155.163 487.573 17.5609 487.573 15.6982C487.573 14.9569 486.594 14.1665 485.129 13.7278C483.784 13.325 479.131 11.5852 474.787 9.86245C470.444 8.1397 465.367 6.27323 463.505 5.71348C461.644 5.15562 458.259 4.1231 455.984 3.42152C447.027 0.658689 444.261 -0.0126372 442.659 0.187815C441.608 0.318297 424.147 17.2621 395.426 46.0175C362.598 78.8859 349.462 91.573 348.436 91.4028C347.652 91.2723 326.53 70.658 301.502 45.592C254.534 -1.44416 255.098 -0.937364 251.033 0.380701ZM144.985 50.0795C142.089 52.1256 138.197 54.845 136.336 56.1233C129.657 60.7091 116.029 72.0346 116.029 72.9953C116.029 73.712 322.917 281.824 345.288 303.611C347.475 305.742 348.596 306.351 349.447 305.873C351.785 304.557 580.835 74.0127 580.835 72.9764C580.835 71.4635 559.201 54.497 548.256 47.4264C545.501 45.6469 557.076 34.4953 447.124 144.855C375.726 216.519 350.136 241.759 348.686 241.944C346.971 242.161 334.603 230.006 249.809 144.763C196.507 91.1759 152.299 47.1124 151.572 46.8458C150.682 46.5186 148.526 47.5757 144.985 50.0795ZM70.8247 117.806C68.1453 120.76 58.9018 132.715 55.4534 137.686C46.8135 150.143 46.6875 150.368 47.4735 151.845C47.8909 152.631 91.9178 197.022 145.308 250.49C198.699 303.959 242.384 348.202 242.384 348.809C242.384 349.414 198.387 394.144 144.613 448.207C40.3585 553.024 45.6872 547.277 49.177 551.12C49.9573 551.979 50.5947 553.057 50.5947 553.514C50.5947 553.974 50.8486 554.461 51.1588 554.601C51.4691 554.74 52.7383 556.385 53.9792 558.257C55.2202 560.129 56.4988 562.001 56.8222 562.417C57.1456 562.833 59.0071 565.246 60.9589 567.778C69.1231 578.368 72.0977 581.695 73.4064 581.7C74.2374 581.704 116.879 539.448 180.838 475.24C307.562 348.023 305.125 350.489 305.415 349.165C305.648 348.096 75.3355 116.304 73.6527 115.915C73.1469 115.797 71.8739 116.648 70.8247 117.806ZM506.94 231.957C443.339 295.86 391.303 348.564 391.303 349.08C391.303 350.126 622.687 582.462 623.728 582.462C625.362 582.462 650.03 549.52 650.03 547.338C650.03 546.812 606.2 502.346 552.631 448.523C480.357 375.908 455.232 350.22 455.232 348.945C455.232 347.667 480.315 322.06 552.631 249.508C606.2 195.764 650.03 151.33 650.03 150.765C650.03 149.78 648.259 146.614 646.655 144.736C646.235 144.245 644.709 142.098 643.261 139.965C635.856 129.056 625.165 115.845 623.706 115.805C623.085 115.788 570.541 168.057 506.94 231.957ZM680.227 209.476C678.025 210.846 541.725 348.161 541.725 349.012C541.725 350.356 679.891 488.867 680.897 488.53C681.775 488.235 682.681 486.211 687.102 474.672C690.388 466.093 691.611 462.483 693.628 455.384C694.516 452.263 695.719 448.392 696.304 446.779C697.755 442.772 701.151 446.564 650.827 396.006C617.554 362.578 605.655 350.171 605.655 348.902C605.655 347.633 617.493 335.345 650.842 302.002C700.922 251.931 697.844 255.353 696.353 251.375C695.76 249.794 694.542 245.949 693.645 242.829C691.584 235.656 688.301 225.993 686.064 220.515C685.725 219.682 684.55 216.789 683.454 214.085C681.092 208.259 681.423 208.733 680.227 209.476ZM14.482 211.572C14.0608 212.746 13.241 214.898 12.66 216.354C9.27169 224.856 6.22375 233.321 4.76088 238.29C3.8433 241.411 2.63052 245.325 2.06455 246.989C1.50047 248.653 0.812283 251.293 0.535881 252.855L0.0338463 255.696L46.082 301.682C78.8573 334.415 92.0513 348.061 91.8576 349.031C91.7072 349.781 70.9789 371.08 45.7925 396.362L0 442.33L0.545283 445.263C1.11501 448.322 3.6534 456.928 4.759 459.544C5.10874 460.376 5.72359 462.248 6.12409 463.704C6.52459 465.16 7.58131 468.224 8.47069 470.512C9.36195 472.8 10.4375 475.693 10.8624 476.942C13.2278 483.899 15.4371 488.288 16.5728 488.288C17.8345 488.288 155.139 350.19 155.139 348.923C155.139 347.703 17.8928 210.04 16.3171 209.681C15.7041 209.541 14.9219 210.346 14.482 211.572ZM337.378 401.857C331.917 407.375 279.881 459.689 221.74 518.112C163.598 576.534 116.029 624.55 116.029 624.813C116.029 627.018 147.935 651.297 150.833 651.297C151.878 651.297 203.067 600.388 299.308 503.638C341.469 461.251 347.772 455.198 349.079 455.813C349.902 456.2 394.283 500.258 447.702 553.718C501.121 607.178 545.294 651.024 545.864 651.155C546.434 651.284 547.851 650.777 549.013 650.028C553.487 647.14 566.205 638.071 566.921 637.256C567.335 636.785 570.635 634.107 574.254 631.305C577.966 628.43 580.835 625.648 580.835 624.922C580.835 623.413 350.316 392.317 348.519 392.024C347.804 391.908 343.212 395.959 337.378 401.857ZM278.297 612.311C240.344 650.328 209.291 681.747 209.291 682.128C209.291 682.845 211.468 684.008 216.06 685.748C217.508 686.296 220.554 687.459 222.829 688.333C227.979 690.311 235.765 692.917 243.136 695.128C246.238 696.058 249.676 697.157 250.774 697.569C254.532 698.98 255.922 697.735 301.348 652.242C335.091 618.451 347.304 606.668 348.586 606.668C349.872 606.668 362.021 618.44 395.815 652.431C442.514 699.403 442.236 699.154 446.359 697.503C447.311 697.123 450.626 696.062 453.728 695.147C464.015 692.111 469.122 690.479 471.403 689.498C472.644 688.965 474.94 687.981 476.506 687.31C478.07 686.641 479.762 686.081 480.266 686.066C480.768 686.051 482.872 685.222 484.941 684.226L488.701 682.412L419.433 612.77C375.125 568.223 349.65 543.14 348.735 543.159C347.864 543.176 320.324 570.212 278.297 612.311Z"/>
</mask>
<path fill-rule="evenodd" clip-rule="evenodd" d="M251.033 0.380701C250.62 0.514966 248.42 1.18062 246.144 1.8614C231.725 6.17111 229.966 6.77814 215.308 12.5156C213.86 13.081 211.914 13.758 210.983 14.019C210.052 14.2781 209.291 14.9135 209.291 15.4297C209.291 16.7705 346.666 154.664 348.248 154.912C349.859 155.163 487.573 17.5609 487.573 15.6982C487.573 14.9569 486.594 14.1665 485.129 13.7278C483.784 13.325 479.131 11.5852 474.787 9.86245C470.444 8.1397 465.367 6.27323 463.505 5.71348C461.644 5.15562 458.259 4.1231 455.984 3.42152C447.027 0.658689 444.261 -0.0126372 442.659 0.187815C441.608 0.318297 424.147 17.2621 395.426 46.0175C362.598 78.8859 349.462 91.573 348.436 91.4028C347.652 91.2723 326.53 70.658 301.502 45.592C254.534 -1.44416 255.098 -0.937364 251.033 0.380701ZM144.985 50.0795C142.089 52.1256 138.197 54.845 136.336 56.1233C129.657 60.7091 116.029 72.0346 116.029 72.9953C116.029 73.712 322.917 281.824 345.288 303.611C347.475 305.742 348.596 306.351 349.447 305.873C351.785 304.557 580.835 74.0127 580.835 72.9764C580.835 71.4635 559.201 54.497 548.256 47.4264C545.501 45.6469 557.076 34.4953 447.124 144.855C375.726 216.519 350.136 241.759 348.686 241.944C346.971 242.161 334.603 230.006 249.809 144.763C196.507 91.1759 152.299 47.1124 151.572 46.8458C150.682 46.5186 148.526 47.5757 144.985 50.0795ZM70.8247 117.806C68.1453 120.76 58.9018 132.715 55.4534 137.686C46.8135 150.143 46.6875 150.368 47.4735 151.845C47.8909 152.631 91.9178 197.022 145.308 250.49C198.699 303.959 242.384 348.202 242.384 348.809C242.384 349.414 198.387 394.144 144.613 448.207C40.3585 553.024 45.6872 547.277 49.177 551.12C49.9573 551.979 50.5947 553.057 50.5947 553.514C50.5947 553.974 50.8486 554.461 51.1588 554.601C51.4691 554.74 52.7383 556.385 53.9792 558.257C55.2202 560.129 56.4988 562.001 56.8222 562.417C57.1456 562.833 59.0071 565.246 60.9589 567.778C69.1231 578.368 72.0977 581.695 73.4064 581.7C74.2374 581.704 116.879 539.448 180.838 475.24C307.562 348.023 305.125 350.489 305.415 349.165C305.648 348.096 75.3355 116.304 73.6527 115.915C73.1469 115.797 71.8739 116.648 70.8247 117.806ZM506.94 231.957C443.339 295.86 391.303 348.564 391.303 349.08C391.303 350.126 622.687 582.462 623.728 582.462C625.362 582.462 650.03 549.52 650.03 547.338C650.03 546.812 606.2 502.346 552.631 448.523C480.357 375.908 455.232 350.22 455.232 348.945C455.232 347.667 480.315 322.06 552.631 249.508C606.2 195.764 650.03 151.33 650.03 150.765C650.03 149.78 648.259 146.614 646.655 144.736C646.235 144.245 644.709 142.098 643.261 139.965C635.856 129.056 625.165 115.845 623.706 115.805C623.085 115.788 570.541 168.057 506.94 231.957ZM680.227 209.476C678.025 210.846 541.725 348.161 541.725 349.012C541.725 350.356 679.891 488.867 680.897 488.53C681.775 488.235 682.681 486.211 687.102 474.672C690.388 466.093 691.611 462.483 693.628 455.384C694.516 452.263 695.719 448.392 696.304 446.779C697.755 442.772 701.151 446.564 650.827 396.006C617.554 362.578 605.655 350.171 605.655 348.902C605.655 347.633 617.493 335.345 650.842 302.002C700.922 251.931 697.844 255.353 696.353 251.375C695.76 249.794 694.542 245.949 693.645 242.829C691.584 235.656 688.301 225.993 686.064 220.515C685.725 219.682 684.55 216.789 683.454 214.085C681.092 208.259 681.423 208.733 680.227 209.476ZM14.482 211.572C14.0608 212.746 13.241 214.898 12.66 216.354C9.27169 224.856 6.22375 233.321 4.76088 238.29C3.8433 241.411 2.63052 245.325 2.06455 246.989C1.50047 248.653 0.812283 251.293 0.535881 252.855L0.0338463 255.696L46.082 301.682C78.8573 334.415 92.0513 348.061 91.8576 349.031C91.7072 349.781 70.9789 371.08 45.7925 396.362L0 442.33L0.545283 445.263C1.11501 448.322 3.6534 456.928 4.759 459.544C5.10874 460.376 5.72359 462.248 6.12409 463.704C6.52459 465.16 7.58131 468.224 8.47069 470.512C9.36195 472.8 10.4375 475.693 10.8624 476.942C13.2278 483.899 15.4371 488.288 16.5728 488.288C17.8345 488.288 155.139 350.19 155.139 348.923C155.139 347.703 17.8928 210.04 16.3171 209.681C15.7041 209.541 14.9219 210.346 14.482 211.572ZM337.378 401.857C331.917 407.375 279.881 459.689 221.74 518.112C163.598 576.534 116.029 624.55 116.029 624.813C116.029 627.018 147.935 651.297 150.833 651.297C151.878 651.297 203.067 600.388 299.308 503.638C341.469 461.251 347.772 455.198 349.079 455.813C349.902 456.2 394.283 500.258 447.702 553.718C501.121 607.178 545.294 651.024 545.864 651.155C546.434 651.284 547.851 650.777 549.013 650.028C553.487 647.14 566.205 638.071 566.921 637.256C567.335 636.785 570.635 634.107 574.254 631.305C577.966 628.43 580.835 625.648 580.835 624.922C580.835 623.413 350.316 392.317 348.519 392.024C347.804 391.908 343.212 395.959 337.378 401.857ZM278.297 612.311C240.344 650.328 209.291 681.747 209.291 682.128C209.291 682.845 211.468 684.008 216.06 685.748C217.508 686.296 220.554 687.459 222.829 688.333C227.979 690.311 235.765 692.917 243.136 695.128C246.238 696.058 249.676 697.157 250.774 697.569C254.532 698.98 255.922 697.735 301.348 652.242C335.091 618.451 347.304 606.668 348.586 606.668C349.872 606.668 362.021 618.44 395.815 652.431C442.514 699.403 442.236 699.154 446.359 697.503C447.311 697.123 450.626 696.062 453.728 695.147C464.015 692.111 469.122 690.479 471.403 689.498C472.644 688.965 474.94 687.981 476.506 687.31C478.07 686.641 479.762 686.081 480.266 686.066C480.768 686.051 482.872 685.222 484.941 684.226L488.701 682.412L419.433 612.77C375.125 568.223 349.65 543.14 348.735 543.159C347.864 543.176 320.324 570.212 278.297 612.311Z" stroke="#C7A45D" stroke-width="2" mask="url(#path-1-inside-1_1_165)"/>
</svg>
