<svg width="24" height="24" viewBox="0 0 24 24" fill="none" xmlns="http://www.w3.org/2000/svg">
<g clip-path="url(#clip0_634_10467)">
<path d="M12.0158 23.9997H6.48877C4.76551 23.9976 3.11344 23.3121 1.89491 22.0935C0.676386 20.875 -0.00911342 19.2229 -0.0112305 17.4997V15.5367C-0.0113008 14.5753 0.201899 13.6258 0.613004 12.7567C1.02411 11.8877 1.62288 11.1206 2.36618 10.5108C3.10947 9.90107 3.97878 9.46378 4.91144 9.23048C5.84411 8.99718 6.81692 8.97368 7.75977 9.16167L19.1998 11.4407L20.7998 1.26167C20.8622 0.868753 21.0782 0.516739 21.4002 0.283069C21.5597 0.167367 21.7403 0.0842019 21.9319 0.0383217C22.1235 -0.00755848 22.3222 -0.0152551 22.5168 0.0156712C22.7113 0.0465975 22.8979 0.115541 23.0658 0.218566C23.2337 0.32159 23.3797 0.456678 23.4954 0.616116C23.6111 0.775554 23.6942 0.956221 23.7401 1.1478C23.786 1.33938 23.7937 1.53812 23.7628 1.73267L21.5628 15.6547C21.4561 16.5334 21.2276 17.393 20.8838 18.2087C20.126 19.9296 18.8843 21.3932 17.3099 22.4213C15.7355 23.4495 13.8962 23.9978 12.0158 23.9997V23.9997ZM6.48477 12.0357C5.55651 12.0357 4.66627 12.4044 4.0099 13.0608C3.35352 13.7172 2.98477 14.6074 2.98477 15.5357V17.4997C2.98477 18.4279 3.35352 19.3182 4.0099 19.9745C4.66627 20.6309 5.55651 20.9997 6.48477 20.9997H12.0118C13.3112 20.9991 14.5825 20.6207 15.6707 19.9105C16.7589 19.2003 17.6171 18.1889 18.1408 16.9997C18.3744 16.4266 18.5288 15.8244 18.5998 15.2097L18.7268 14.4097L7.17377 12.0997C6.94678 12.0557 6.71599 12.0342 6.48477 12.0357V12.0357Z" fill="#32476D"/>
<path d="M13.0649 18.2527C12.9621 18.2529 12.8595 18.2422 12.7589 18.2207L6.44192 16.9107C6.05231 16.8298 5.7108 16.5975 5.49251 16.2648C5.27422 15.9321 5.19703 15.5263 5.27792 15.1367C5.35881 14.7471 5.59115 14.4056 5.92384 14.1873C6.25653 13.969 6.66231 13.8918 7.05192 13.9727L13.3679 15.2837C13.7314 15.3588 14.0541 15.5659 14.2737 15.8651C14.4934 16.1643 14.5943 16.5343 14.557 16.9035C14.5196 17.2728 14.3468 17.6151 14.0717 17.8643C13.7967 18.1135 13.4391 18.2519 13.0679 18.2527H13.0649Z" fill="#32476D"/>
</g>
<defs>
<clipPath id="clip0_634_10467">
<rect width="24" height="24" fill="white"/>
</clipPath>
</defs>
</svg>
