<svg width="22" height="24" viewBox="0 0 22 24" fill="none" xmlns="http://www.w3.org/2000/svg">
<path d="M11.0001 4.4928e-05C9.55342 -0.00371006 8.12042 0.280576 6.78469 0.836328C5.44897 1.39208 4.23724 2.20818 3.22015 3.23704C1.15468 5.32282 -0.000507023 8.14182 0.00736418 11.0772C0.0152354 14.0126 1.18552 16.8254 3.26215 18.9L7.00015 22.359C8.06219 23.4053 9.49153 23.9943 10.9823 24.0001C12.4731 24.0059 13.907 23.428 14.9771 22.39L18.7841 18.854C20.8431 16.777 21.9983 13.9707 21.9983 11.046C21.9983 8.1214 20.8431 5.31514 18.7841 3.23804C17.7667 2.20852 16.5543 1.39196 15.2179 0.836015C13.8814 0.280074 12.4476 -0.00411084 11.0001 4.4928e-05ZM16.7001 16.7L12.9001 20.226C12.3829 20.7204 11.6933 20.9937 10.9779 20.9879C10.2624 20.9821 9.57734 20.6977 9.06815 20.195L5.34615 16.736C3.84525 15.2222 3.00313 13.1768 3.00313 11.045C3.00313 8.9133 3.84525 6.86786 5.34615 5.35404C6.08669 4.60809 6.96753 4.01604 7.93791 3.61203C8.90829 3.20801 9.94902 3.00001 11.0001 3.00001C12.0513 3.00001 13.092 3.20801 14.0624 3.61203C15.0328 4.01604 15.9136 4.60809 16.6541 5.35404C18.1527 6.85899 18.9978 8.89383 19.0064 11.0176C19.0151 13.1414 18.1864 15.183 16.7001 16.7ZM16.0001 10.128V14C16.0001 14.2653 15.8948 14.5196 15.7073 14.7072C15.5197 14.8947 15.2654 15 15.0001 15H14.0001C13.7349 15 13.4806 14.8947 13.293 14.7072C13.1055 14.5196 13.0001 14.2653 13.0001 14V12C13.0001 11.7348 12.8948 11.4805 12.7073 11.2929C12.5197 11.1054 12.2654 11 12.0001 11H10.0001C9.73493 11 9.48058 11.1054 9.29304 11.2929C9.10551 11.4805 9.00015 11.7348 9.00015 12V14C9.00015 14.2653 8.89479 14.5196 8.70726 14.7072C8.51972 14.8947 8.26536 15 8.00015 15H7.00015C6.73493 15 6.48058 14.8947 6.29304 14.7072C6.10551 14.5196 6.00015 14.2653 6.00015 14V10.128C6.0002 9.8051 6.07845 9.48697 6.22821 9.20084C6.37798 8.91472 6.5948 8.66912 6.86015 8.48504L9.86015 6.40304C10.1949 6.17079 10.5927 6.04633 11.0001 6.04633C11.4076 6.04633 11.8054 6.17079 12.1401 6.40304L15.1401 8.48504C15.4055 8.66912 15.6223 8.91472 15.7721 9.20084C15.9219 9.48697 16.0001 9.8051 16.0001 10.128Z" fill="#32476D"/>
</svg>
