<svg width="24" height="24" viewBox="0 0 24 24" fill="none" xmlns="http://www.w3.org/2000/svg">
<path d="M18.4381 5.06664H16.9524V3.58092C16.9524 2.66151 16.5871 1.77975 15.937 1.12962C15.2869 0.479495 14.4051 0.114258 13.4857 0.114258H10.5143C9.59484 0.114258 8.71308 0.479495 8.06295 1.12962C7.41283 1.77975 7.04759 2.66151 7.04759 3.58092V5.06664H5.56188C4.11756 5.06821 2.73285 5.64266 1.71157 6.66395C0.69028 7.68523 0.115831 9.06994 0.114258 10.5143L0.114258 18.4381C0.115831 19.8824 0.69028 21.2671 1.71157 22.2884C2.73285 23.3097 4.11756 23.8841 5.56188 23.8857H18.4381C19.8824 23.8841 21.2671 23.3097 22.2884 22.2884C23.3097 21.2671 23.8841 19.8824 23.8857 18.4381V10.5143C23.8841 9.06994 23.3097 7.68523 22.2884 6.66395C21.2671 5.64266 19.8824 5.06821 18.4381 5.06664ZM10.019 3.58092C10.019 3.44958 10.0712 3.32361 10.1641 3.23074C10.2569 3.13786 10.3829 3.08569 10.5143 3.08569H13.4857C13.617 3.08569 13.743 3.13786 13.8359 3.23074C13.9287 3.32361 13.9809 3.44958 13.9809 3.58092V5.06664H10.019V3.58092ZM20.9143 18.4381C20.9143 19.0948 20.6534 19.7246 20.189 20.189C19.7246 20.6534 19.0948 20.9143 18.4381 20.9143H5.56188C4.90515 20.9143 4.27532 20.6534 3.81095 20.189C3.34657 19.7246 3.08569 19.0948 3.08569 18.4381V10.5143C3.08569 9.85753 3.34657 9.2277 3.81095 8.76333C4.27532 8.29895 4.90515 8.03807 5.56188 8.03807H18.4381C19.0948 8.03807 19.7246 8.29895 20.189 8.76333C20.6534 9.2277 20.9143 9.85753 20.9143 10.5143V18.4381ZM16.4571 14.4762C16.4571 14.8702 16.3006 15.2481 16.022 15.5267C15.7433 15.8053 15.3654 15.9619 14.9714 15.9619H13.4857V17.4476C13.4857 17.8416 13.3292 18.2195 13.0505 18.4981C12.7719 18.7768 12.394 18.9333 12 18.9333C11.6059 18.9333 11.228 18.7768 10.9494 18.4981C10.6708 18.2195 10.5143 17.8416 10.5143 17.4476V15.9619H9.02854C8.63451 15.9619 8.25661 15.8053 7.97798 15.5267C7.69936 15.2481 7.54283 14.8702 7.54283 14.4762C7.54283 14.0821 7.69936 13.7042 7.97798 13.4256C8.25661 13.147 8.63451 12.9904 9.02854 12.9904H10.5143V11.5047C10.5143 11.1107 10.6708 10.7328 10.9494 10.4542C11.228 10.1755 11.6059 10.019 12 10.019C12.394 10.019 12.7719 10.1755 13.0505 10.4542C13.3292 10.7328 13.4857 11.1107 13.4857 11.5047V12.9904H14.9714C15.3654 12.9904 15.7433 13.147 16.022 13.4256C16.3006 13.7042 16.4571 14.0821 16.4571 14.4762Z" fill="#32476D"/>
</svg>
