<svg width="20" height="20" viewBox="0 0 20 20" fill="none" xmlns="http://www.w3.org/2000/svg">
<path fill-rule="evenodd" clip-rule="evenodd" d="M0 20V0H20V20H0ZM4.16663 15.8334H6.66663V6.66675H4.16663V15.8334ZM5.41671 5.61017C4.61171 5.61017 3.95837 4.95183 3.95837 4.14017C3.95837 3.3285 4.61171 2.67017 5.41671 2.67017C6.22171 2.67017 6.87504 3.3285 6.87504 4.14017C6.87504 4.95183 6.22254 5.61017 5.41671 5.61017ZM14.1666 15.8332H16.6666V10.2007C16.6666 5.82318 11.9974 5.98234 10.8333 8.13734V6.66651H8.33325V15.8332H10.8333V11.1632C10.8333 8.56901 14.1666 8.35651 14.1666 11.1632V15.8332Z" fill="#2D477A"/>
</svg>
