<svg width="18" height="18" viewBox="0 0 18 18" fill="none" xmlns="http://www.w3.org/2000/svg">
<path d="M9 15.75L8.79381 16.2055C8.92487 16.2648 9.07513 16.2648 9.20619 16.2055L9 15.75ZM10.75 8.25C10.75 9.2165 9.9665 10 9 10V11C10.5188 11 11.75 9.76878 11.75 8.25H10.75ZM9 10C8.0335 10 7.25 9.2165 7.25 8.25H6.25C6.25 9.76878 7.48122 11 9 11V10ZM7.25 8.25C7.25 7.2835 8.0335 6.5 9 6.5V5.5C7.48122 5.5 6.25 6.73122 6.25 8.25H7.25ZM9 6.5C9.9665 6.5 10.75 7.2835 10.75 8.25H11.75C11.75 6.73122 10.5188 5.5 9 5.5V6.5ZM14.5 8.25C14.5 11.2729 12.0346 13.8275 8.79381 15.2945L9.20619 16.2055C12.5929 14.6725 15.5 11.8545 15.5 8.25H14.5ZM9.20619 15.2945C5.96544 13.8275 3.5 11.2729 3.5 8.25H2.5C2.5 11.8545 5.40714 14.6725 8.79381 16.2055L9.20619 15.2945ZM3.5 8.25C3.5 5.21243 5.96243 2.75 9 2.75V1.75C5.41015 1.75 2.5 4.66015 2.5 8.25H3.5ZM9 2.75C12.0376 2.75 14.5 5.21243 14.5 8.25H15.5C15.5 4.66015 12.5898 1.75 9 1.75V2.75Z" fill="#fff"/>
</svg>
