<svg width="24" height="24" viewBox="0 0 24 24" fill="none" xmlns="http://www.w3.org/2000/svg">
<path d="M22.3974 18.9033C22.2038 18.8997 22.0114 18.9348 21.8314 19.0064C21.6515 19.078 21.4876 19.1847 21.3493 19.3203C21.211 19.4559 21.1011 19.6177 21.026 19.7962C20.9509 19.9747 20.9121 20.1664 20.9119 20.3601C20.789 20.5398 20.622 20.6849 20.4269 20.7815C20.2318 20.8781 20.0152 20.9229 19.7978 20.9117C19.534 20.9132 19.2738 20.851 19.0391 20.7305C20.4939 19.0769 21.4671 17.0558 21.8527 14.8874C21.9838 14.1489 21.8651 13.3877 21.5154 12.7241C21.1656 12.0606 20.6049 11.5324 19.9216 11.2231V8.53228C19.9202 7.35072 19.4503 6.21793 18.6148 5.38243C17.7793 4.54694 16.6465 4.07699 15.465 4.07568H14.9698V3.08532C14.9698 2.29735 14.6568 1.54165 14.0996 0.984463C13.5424 0.42728 12.7867 0.114258 11.9987 0.114258C11.2107 0.114258 10.455 0.42728 9.89785 0.984463C9.34067 1.54165 9.02765 2.29735 9.02765 3.08532V4.07568H8.53247C7.35091 4.07699 6.21812 4.54694 5.38262 5.38243C4.54713 6.21793 4.07718 7.35072 4.07587 8.53228V11.0904C3.39856 11.4033 2.84385 11.9315 2.49827 12.5928C2.1527 13.254 2.03568 14.011 2.16547 14.7458C2.56073 16.9507 3.524 19.0144 4.96026 20.7335C4.72444 20.8523 4.46374 20.9134 4.19966 20.9117C3.9836 20.9201 3.76881 20.875 3.57443 20.7803C3.38004 20.6856 3.21208 20.5443 3.08551 20.369C3.07921 19.975 2.91665 19.5997 2.6336 19.3255C2.35056 19.0514 1.9702 18.9009 1.57621 18.9072C1.18222 18.9135 0.806878 19.0761 0.532744 19.3591C0.25861 19.6422 0.108144 20.0226 0.114448 20.4165C0.114448 22.2626 2.02385 23.8828 4.19966 23.8828C5.12838 23.8848 6.03587 23.6051 6.80232 23.0806C7.56783 23.6026 8.47247 23.8826 9.39899 23.8843C10.3255 23.8861 11.2312 23.6095 11.9987 23.0905C12.7679 23.6106 13.6755 23.8876 14.604 23.8857C15.5325 23.8837 16.439 23.6029 17.206 23.0796C17.969 23.6029 18.8725 23.883 19.7978 23.8828C21.9736 23.8828 23.883 22.2626 23.883 20.4165C23.8846 20.0195 23.7295 19.6378 23.4513 19.3545C23.1732 19.0712 22.7945 18.909 22.3974 18.9033ZM8.53247 7.04674H15.465C15.8589 7.04674 16.2368 7.20326 16.5154 7.48185C16.794 7.76044 16.9505 8.13829 16.9505 8.53228V10.3149L13.0643 9.19978C12.4021 8.97583 11.686 8.96682 11.0183 9.17403L7.04694 10.2367V8.53228C7.04694 8.13829 7.20345 7.76044 7.48204 7.48185C7.76063 7.20326 8.13848 7.04674 8.53247 7.04674ZM9.39903 20.9117C9.18678 20.9247 8.97445 20.8877 8.77908 20.8038C8.5837 20.7198 8.41071 20.5913 8.27399 20.4284C8.05655 19.9038 7.75554 19.4178 7.38267 18.9894C6.20604 17.6438 5.41523 16.005 5.09395 14.2466C5.07429 14.1599 5.08126 14.0693 5.11395 13.9866C5.14664 13.9039 5.20353 13.833 5.27717 13.7831L10.5132 12.3828V20.4532C10.3739 20.6085 10.2014 20.7304 10.0085 20.8098C9.81561 20.8892 9.60727 20.924 9.39903 20.9117ZM14.5984 20.9117C14.1897 20.9192 13.7927 20.7749 13.4842 20.5067V12.4125L18.6727 13.9099C18.7638 13.949 18.8387 14.0183 18.8845 14.1062C18.9303 14.1941 18.9444 14.2951 18.9243 14.3922C18.6097 16.1115 17.8105 17.7051 16.6207 18.9855C16.2446 19.4163 15.9415 19.9057 15.7234 20.4344C15.5865 20.5966 15.4133 20.7243 15.2178 20.8072C15.0224 20.8901 14.8102 20.9259 14.5984 20.9117Z" fill="#32476D"/>
</svg>
