<svg width="23" height="23" viewBox="0 0 23 23" fill="none" xmlns="http://www.w3.org/2000/svg">
<mask id="path-1-inside-1_105_633" fill="white">
<path fill-rule="evenodd" clip-rule="evenodd" d="M8.28374 0.0126667C8.27008 0.0170909 8.19749 0.039025 8.12241 0.0614575C7.64658 0.203468 7.58856 0.223471 7.10485 0.412527C7.05707 0.431159 6.99285 0.453467 6.96214 0.462066C6.93143 0.470603 6.9063 0.49154 6.9063 0.508551C6.9063 0.552731 11.4395 5.09651 11.4917 5.10467C11.5448 5.11296 16.0892 0.578777 16.0892 0.517399C16.0892 0.492973 16.0569 0.466926 16.0086 0.45247C15.9642 0.439197 15.8106 0.381869 15.6673 0.325103C15.524 0.268336 15.3564 0.206833 15.295 0.188388C15.2336 0.170006 15.1219 0.135984 15.0468 0.112866C14.7512 0.0218267 14.66 -0.000294341 14.6071 0.0063108C14.5724 0.0106104 13.9963 0.568932 13.0485 1.51646C11.9652 2.59952 11.5318 3.01757 11.4979 3.01196C11.472 3.00766 10.775 2.32839 9.94913 1.50244C8.39927 -0.047465 8.41788 -0.0307653 8.28374 0.0126667ZM4.7843 1.65031C4.68875 1.71773 4.56031 1.80733 4.49888 1.84946C4.27849 2.00057 3.82878 2.37376 3.82878 2.40541C3.82878 2.42903 10.6558 9.2866 11.394 10.0045C11.4662 10.0747 11.5032 10.0948 11.5313 10.079C11.6084 10.0357 19.1667 2.43894 19.1667 2.40479C19.1667 2.35494 18.4528 1.79587 18.0916 1.56288C18.0007 1.50425 18.3827 1.13679 14.7545 4.77329C12.3984 7.13469 11.554 7.96638 11.5061 7.97249C11.4495 7.97965 11.0414 7.57911 8.24334 4.77024C6.48444 3.00449 5.02566 1.55254 5.00165 1.54375C4.9723 1.53297 4.90113 1.5678 4.7843 1.65031ZM2.33711 3.88197C2.2487 3.9793 1.94368 4.37325 1.82988 4.53707C1.54478 4.94752 1.54062 4.95493 1.56656 5.0036C1.58033 5.02952 3.03315 6.49225 4.79497 8.25408C6.55679 10.016 7.99832 11.4738 7.99832 11.4938C7.99832 11.5138 6.54649 12.9877 4.77201 14.7691C1.33177 18.223 1.50761 18.0336 1.62277 18.1602C1.64852 18.1885 1.66955 18.224 1.66955 18.2391C1.66955 18.2543 1.67793 18.2703 1.68817 18.275C1.69841 18.2795 1.74029 18.3337 1.78124 18.3954C1.82219 18.4571 1.86438 18.5188 1.87505 18.5325C1.88572 18.5462 1.94715 18.6257 2.01156 18.7092C2.28096 19.0581 2.37912 19.1677 2.4223 19.1679C2.44973 19.168 3.85683 17.7756 5.96741 15.6599C10.1491 11.4679 10.0687 11.5492 10.0782 11.5056C10.0859 11.4703 2.48596 3.8325 2.43043 3.81966C2.41374 3.8158 2.37174 3.84384 2.33711 3.88197ZM16.7283 7.64341C14.6296 9.74908 12.9124 11.4857 12.9124 11.5027C12.9124 11.5372 20.5478 19.193 20.5821 19.193C20.6361 19.193 21.4501 18.1075 21.4501 18.0356C21.4501 18.0183 20.0037 16.5531 18.236 14.7795C15.8511 12.3868 15.022 11.5403 15.022 11.4983C15.022 11.4562 15.8497 10.6124 18.236 8.22174C20.0037 6.45081 21.4501 4.98665 21.4501 4.96802C21.4501 4.93555 21.3916 4.83124 21.3387 4.76937C21.3248 4.75317 21.2745 4.68244 21.2267 4.61215C20.9823 4.25267 20.6295 3.81735 20.5814 3.81605C20.5609 3.81548 18.827 5.53781 16.7283 7.64341ZM22.4465 6.90264C22.3739 6.94776 17.8762 11.4725 17.8762 11.5005C17.8762 11.5448 22.4354 16.1089 22.4686 16.0978C22.4976 16.0881 22.5275 16.0214 22.6734 15.6412C22.7818 15.3585 22.8222 15.2395 22.8887 15.0056C22.918 14.9028 22.9577 14.7752 22.977 14.7221C23.0249 14.59 23.137 14.715 21.4764 13.049C20.3784 11.9475 19.9857 11.5387 19.9857 11.4969C19.9857 11.4551 20.3764 11.0502 21.4769 9.95148C23.1294 8.30156 23.0278 8.41435 22.9786 8.28324C22.9591 8.23115 22.9189 8.10447 22.8893 8.00165C22.8213 7.7653 22.713 7.44688 22.6391 7.26636C22.6279 7.23894 22.5892 7.14361 22.553 7.0545C22.4751 6.86251 22.486 6.87815 22.4465 6.90264ZM0.477884 6.97168C0.463985 7.01038 0.436933 7.08129 0.417761 7.12927C0.305952 7.40943 0.205375 7.68834 0.157102 7.8521C0.126823 7.95492 0.0868034 8.0839 0.0681273 8.13874C0.0495133 8.19357 0.0268042 8.28056 0.0176833 8.33203L0.00111688 8.42563L1.52064 9.94095C2.60218 11.0195 3.03756 11.4692 3.03117 11.5011C3.02621 11.5259 2.3422 12.2277 1.51109 13.0608L0 14.5755L0.0179936 14.6721C0.0367937 14.7729 0.120557 15.0565 0.15704 15.1427C0.168581 15.1701 0.18887 15.2318 0.202086 15.2798C0.215302 15.3278 0.250172 15.4287 0.279521 15.5041C0.308931 15.5795 0.344421 15.6748 0.358444 15.716C0.436499 15.9452 0.509404 16.0898 0.54688 16.0898C0.588513 16.0898 5.11935 11.5393 5.11935 11.4976C5.11935 11.4574 0.590437 6.92121 0.538442 6.90937C0.518214 6.90476 0.492403 6.9313 0.477884 6.97168ZM11.133 13.2418C10.9528 13.4237 9.23566 15.1475 7.31711 17.0726C5.3985 18.9977 3.82878 20.5798 3.82878 20.5885C3.82878 20.6612 4.88165 21.4612 4.97726 21.4612C5.01176 21.4612 6.70092 19.7837 9.87672 16.5956C11.268 15.199 11.476 14.9995 11.5191 15.0197C11.5463 15.0325 13.0108 16.4843 14.7735 18.2459C16.5363 20.0074 17.9939 21.4522 18.0127 21.4565C18.0315 21.4608 18.0783 21.4441 18.1167 21.4194C18.2643 21.3242 18.6839 21.0254 18.7076 20.9985C18.7212 20.983 18.8301 20.8948 18.9496 20.8024C19.0721 20.7077 19.1667 20.616 19.1667 20.5921C19.1667 20.5424 11.5599 12.9275 11.5006 12.9178C11.477 12.914 11.3255 13.0475 11.133 13.2418ZM9.18341 20.1765C7.931 21.4293 6.9063 22.4645 6.9063 22.4771C6.9063 22.5008 6.97815 22.5391 7.12967 22.5964C7.17744 22.6145 7.27796 22.6528 7.35303 22.6816C7.52298 22.7468 7.77992 22.8326 8.02314 22.9055C8.12552 22.9361 8.23894 22.9723 8.27517 22.9859C8.3992 23.0324 8.44506 22.9914 9.94404 21.4923C11.0575 20.3789 11.4605 19.9906 11.5028 19.9906C11.5453 19.9906 11.9462 20.3785 13.0613 21.4986C14.6023 23.0464 14.5931 23.0381 14.7292 22.9837C14.7606 22.9712 14.87 22.9363 14.9724 22.9061C15.3118 22.8061 15.4804 22.7523 15.5556 22.72C15.5966 22.7024 15.6723 22.67 15.724 22.6479C15.7756 22.6258 15.8315 22.6074 15.8481 22.6069C15.8647 22.6064 15.9341 22.5791 16.0023 22.5462L16.1264 22.4865L13.8407 20.1917C12.3786 18.7238 11.538 17.8973 11.5077 17.8979C11.479 17.8985 10.5702 18.7893 9.18341 20.1765Z"/>
</mask>
<path fill-rule="evenodd" clip-rule="evenodd" d="M8.28374 0.0126667C8.27008 0.0170909 8.19749 0.039025 8.12241 0.0614575C7.64658 0.203468 7.58856 0.223471 7.10485 0.412527C7.05707 0.431159 6.99285 0.453467 6.96214 0.462066C6.93143 0.470603 6.9063 0.49154 6.9063 0.508551C6.9063 0.552731 11.4395 5.09651 11.4917 5.10467C11.5448 5.11296 16.0892 0.578777 16.0892 0.517399C16.0892 0.492973 16.0569 0.466926 16.0086 0.45247C15.9642 0.439197 15.8106 0.381869 15.6673 0.325103C15.524 0.268336 15.3564 0.206833 15.295 0.188388C15.2336 0.170006 15.1219 0.135984 15.0468 0.112866C14.7512 0.0218267 14.66 -0.000294341 14.6071 0.0063108C14.5724 0.0106104 13.9963 0.568932 13.0485 1.51646C11.9652 2.59952 11.5318 3.01757 11.4979 3.01196C11.472 3.00766 10.775 2.32839 9.94913 1.50244C8.39927 -0.047465 8.41788 -0.0307653 8.28374 0.0126667ZM4.7843 1.65031C4.68875 1.71773 4.56031 1.80733 4.49888 1.84946C4.27849 2.00057 3.82878 2.37376 3.82878 2.40541C3.82878 2.42903 10.6558 9.2866 11.394 10.0045C11.4662 10.0747 11.5032 10.0948 11.5313 10.079C11.6084 10.0357 19.1667 2.43894 19.1667 2.40479C19.1667 2.35494 18.4528 1.79587 18.0916 1.56288C18.0007 1.50425 18.3827 1.13679 14.7545 4.77329C12.3984 7.13469 11.554 7.96638 11.5061 7.97249C11.4495 7.97965 11.0414 7.57911 8.24334 4.77024C6.48444 3.00449 5.02566 1.55254 5.00165 1.54375C4.9723 1.53297 4.90113 1.5678 4.7843 1.65031ZM2.33711 3.88197C2.2487 3.9793 1.94368 4.37325 1.82988 4.53707C1.54478 4.94752 1.54062 4.95493 1.56656 5.0036C1.58033 5.02952 3.03315 6.49225 4.79497 8.25408C6.55679 10.016 7.99832 11.4738 7.99832 11.4938C7.99832 11.5138 6.54649 12.9877 4.77201 14.7691C1.33177 18.223 1.50761 18.0336 1.62277 18.1602C1.64852 18.1885 1.66955 18.224 1.66955 18.2391C1.66955 18.2543 1.67793 18.2703 1.68817 18.275C1.69841 18.2795 1.74029 18.3337 1.78124 18.3954C1.82219 18.4571 1.86438 18.5188 1.87505 18.5325C1.88572 18.5462 1.94715 18.6257 2.01156 18.7092C2.28096 19.0581 2.37912 19.1677 2.4223 19.1679C2.44973 19.168 3.85683 17.7756 5.96741 15.6599C10.1491 11.4679 10.0687 11.5492 10.0782 11.5056C10.0859 11.4703 2.48596 3.8325 2.43043 3.81966C2.41374 3.8158 2.37174 3.84384 2.33711 3.88197ZM16.7283 7.64341C14.6296 9.74908 12.9124 11.4857 12.9124 11.5027C12.9124 11.5372 20.5478 19.193 20.5821 19.193C20.6361 19.193 21.4501 18.1075 21.4501 18.0356C21.4501 18.0183 20.0037 16.5531 18.236 14.7795C15.8511 12.3868 15.022 11.5403 15.022 11.4983C15.022 11.4562 15.8497 10.6124 18.236 8.22174C20.0037 6.45081 21.4501 4.98665 21.4501 4.96802C21.4501 4.93555 21.3916 4.83124 21.3387 4.76937C21.3248 4.75317 21.2745 4.68244 21.2267 4.61215C20.9823 4.25267 20.6295 3.81735 20.5814 3.81605C20.5609 3.81548 18.827 5.53781 16.7283 7.64341ZM22.4465 6.90264C22.3739 6.94776 17.8762 11.4725 17.8762 11.5005C17.8762 11.5448 22.4354 16.1089 22.4686 16.0978C22.4976 16.0881 22.5275 16.0214 22.6734 15.6412C22.7818 15.3585 22.8222 15.2395 22.8887 15.0056C22.918 14.9028 22.9577 14.7752 22.977 14.7221C23.0249 14.59 23.137 14.715 21.4764 13.049C20.3784 11.9475 19.9857 11.5387 19.9857 11.4969C19.9857 11.4551 20.3764 11.0502 21.4769 9.95148C23.1294 8.30156 23.0278 8.41435 22.9786 8.28324C22.9591 8.23115 22.9189 8.10447 22.8893 8.00165C22.8213 7.7653 22.713 7.44688 22.6391 7.26636C22.6279 7.23894 22.5892 7.14361 22.553 7.0545C22.4751 6.86251 22.486 6.87815 22.4465 6.90264ZM0.477884 6.97168C0.463985 7.01038 0.436933 7.08129 0.417761 7.12927C0.305952 7.40943 0.205375 7.68834 0.157102 7.8521C0.126823 7.95492 0.0868034 8.0839 0.0681273 8.13874C0.0495133 8.19357 0.0268042 8.28056 0.0176833 8.33203L0.00111688 8.42563L1.52064 9.94095C2.60218 11.0195 3.03756 11.4692 3.03117 11.5011C3.02621 11.5259 2.3422 12.2277 1.51109 13.0608L0 14.5755L0.0179936 14.6721C0.0367937 14.7729 0.120557 15.0565 0.15704 15.1427C0.168581 15.1701 0.18887 15.2318 0.202086 15.2798C0.215302 15.3278 0.250172 15.4287 0.279521 15.5041C0.308931 15.5795 0.344421 15.6748 0.358444 15.716C0.436499 15.9452 0.509404 16.0898 0.54688 16.0898C0.588513 16.0898 5.11935 11.5393 5.11935 11.4976C5.11935 11.4574 0.590437 6.92121 0.538442 6.90937C0.518214 6.90476 0.492403 6.9313 0.477884 6.97168ZM11.133 13.2418C10.9528 13.4237 9.23566 15.1475 7.31711 17.0726C5.3985 18.9977 3.82878 20.5798 3.82878 20.5885C3.82878 20.6612 4.88165 21.4612 4.97726 21.4612C5.01176 21.4612 6.70092 19.7837 9.87672 16.5956C11.268 15.199 11.476 14.9995 11.5191 15.0197C11.5463 15.0325 13.0108 16.4843 14.7735 18.2459C16.5363 20.0074 17.9939 21.4522 18.0127 21.4565C18.0315 21.4608 18.0783 21.4441 18.1167 21.4194C18.2643 21.3242 18.6839 21.0254 18.7076 20.9985C18.7212 20.983 18.8301 20.8948 18.9496 20.8024C19.0721 20.7077 19.1667 20.616 19.1667 20.5921C19.1667 20.5424 11.5599 12.9275 11.5006 12.9178C11.477 12.914 11.3255 13.0475 11.133 13.2418ZM9.18341 20.1765C7.931 21.4293 6.9063 22.4645 6.9063 22.4771C6.9063 22.5008 6.97815 22.5391 7.12967 22.5964C7.17744 22.6145 7.27796 22.6528 7.35303 22.6816C7.52298 22.7468 7.77992 22.8326 8.02314 22.9055C8.12552 22.9361 8.23894 22.9723 8.27517 22.9859C8.3992 23.0324 8.44506 22.9914 9.94404 21.4923C11.0575 20.3789 11.4605 19.9906 11.5028 19.9906C11.5453 19.9906 11.9462 20.3785 13.0613 21.4986C14.6023 23.0464 14.5931 23.0381 14.7292 22.9837C14.7606 22.9712 14.87 22.9363 14.9724 22.9061C15.3118 22.8061 15.4804 22.7523 15.5556 22.72C15.5966 22.7024 15.6723 22.67 15.724 22.6479C15.7756 22.6258 15.8315 22.6074 15.8481 22.6069C15.8647 22.6064 15.9341 22.5791 16.0023 22.5462L16.1264 22.4865L13.8407 20.1917C12.3786 18.7238 11.538 17.8973 11.5077 17.8979C11.479 17.8985 10.5702 18.7893 9.18341 20.1765Z" stroke="#C7A45D" stroke-width="2" mask="url(#path-1-inside-1_105_633)"/>
</svg>
