<svg width="28" height="24" viewBox="0 0 28 24" fill="none" xmlns="http://www.w3.org/2000/svg">
<path d="M26.6634 20.4898V17.0939C26.6584 14.0886 25.5673 11.1863 23.5911 8.92203C21.6149 6.65775 18.8869 5.18407 15.9098 4.7726V3.86138C16.196 3.53503 16.3821 3.13312 16.4457 2.70376C16.5094 2.27441 16.448 1.83581 16.2688 1.44045C16.0897 1.0451 15.8004 0.709749 15.4356 0.474547C15.0708 0.239346 14.6459 0.114258 14.2119 0.114258C13.7778 0.114258 13.353 0.239346 12.9882 0.474547C12.6234 0.709749 12.3341 1.0451 12.155 1.44045C11.9758 1.83581 11.9144 2.27441 11.9781 2.70376C12.0417 3.13312 12.2278 3.53503 12.514 3.86138V4.7726C9.53689 5.18407 6.80888 6.65775 4.8327 8.92203C2.85653 11.1863 1.76538 14.0886 1.76037 17.0939V20.4898H0.628418V23.8857H27.7954V20.4898H26.6634ZM5.15624 17.0939C5.60903 5.09521 22.8148 5.10313 23.2675 17.0939V20.4898H5.15624V17.0939Z" fill="#32476D"/>
</svg>
