<svg width="24" height="24" viewBox="0 0 24 24" fill="none" xmlns="http://www.w3.org/2000/svg">
<path d="M17.9435 4.24842C17.9435 3.63517 18.1178 3.0357 18.4443 2.52581C18.7708 2.01591 19.2348 1.6185 19.7778 1.38382C20.3208 1.14914 20.9182 1.08774 21.4946 1.20738C22.071 1.32701 22.6005 1.62232 23.016 2.05595C23.4316 2.48958 23.7146 3.04206 23.8293 3.64352C23.9439 4.24498 23.8851 4.86841 23.6602 5.43498C23.4353 6.00154 23.0544 6.48579 22.5658 6.82649C22.0771 7.16719 21.5026 7.34904 20.9149 7.34904C20.1268 7.34904 19.371 7.02237 18.8138 6.44089C18.2565 5.85941 17.9435 5.07076 17.9435 4.24842ZM3.58158 3.21488H9.13914C9.52877 3.21588 9.91267 3.31281 10.2596 3.49779C10.6066 3.68276 10.9068 3.95057 11.1359 4.27943L3.72025 9.69621C3.3974 9.93195 3.17752 10.2919 3.10898 10.6968C3.04044 11.1017 3.12885 11.5184 3.35476 11.8553C3.58067 12.1922 3.92559 12.4216 4.31362 12.4931C4.70165 12.5646 5.10102 12.4724 5.42387 12.2367L12.8455 6.81573L16.231 11.8563C16.4571 12.1932 16.8023 12.4225 17.1905 12.4939C17.5787 12.5652 17.9782 12.4727 18.301 12.2367C18.6239 12.0006 18.8437 11.6405 18.912 11.2354C18.9804 10.8303 18.8917 10.4134 18.6655 10.0766L13.6002 2.53171C13.097 1.78497 12.4289 1.17552 11.6525 0.754774C10.8761 0.334031 10.014 0.114346 9.13914 0.114258H3.58158C3.18754 0.114258 2.80965 0.277594 2.53102 0.568333C2.2524 0.859073 2.09586 1.2534 2.09586 1.66457C2.09586 2.07574 2.2524 2.47006 2.53102 2.7608C2.80965 3.05154 3.18754 3.21488 3.58158 3.21488ZM0.854798 18.0979C1.63253 18.5426 2.51471 18.7494 3.40001 18.6946C4.28531 18.6397 5.13784 18.3254 5.85968 17.7878C5.91726 17.7414 5.98797 17.7162 6.06074 17.7162C6.13351 17.7162 6.20423 17.7414 6.26181 17.7878C7.07556 18.3763 8.04207 18.6917 9.03217 18.6917C10.0223 18.6917 10.9888 18.3763 11.8025 17.7878C11.8601 17.7414 11.9308 17.7162 12.0036 17.7162C12.0764 17.7162 12.1471 17.7414 12.2047 17.7878C13.0184 18.3763 13.9849 18.6917 14.975 18.6917C15.9651 18.6917 16.9316 18.3763 17.7454 17.7878C17.803 17.7414 17.8737 17.7162 17.9465 17.7162C18.0192 17.7162 18.0899 17.7414 18.1475 17.7878C18.9566 18.3869 19.9228 18.7116 20.9149 18.718C21.6986 18.7183 22.4684 18.5026 23.1465 18.0927C23.3152 17.9905 23.463 17.8546 23.5815 17.6928C23.6999 17.531 23.7867 17.3464 23.8367 17.1496C23.8868 16.9528 23.8993 16.7477 23.8734 16.5458C23.8475 16.344 23.7837 16.1495 23.6858 15.9734C23.5878 15.7973 23.4576 15.6431 23.3025 15.5195C23.1475 15.3959 22.9706 15.3054 22.782 15.2531C22.4011 15.1476 21.9956 15.2042 21.6548 15.4107C21.3738 15.5624 21.0575 15.6284 20.7422 15.6012C20.4268 15.5739 20.1252 15.4545 19.8719 15.2567C19.3104 14.8401 18.6384 14.6163 17.9494 14.6163C17.2604 14.6163 16.5885 14.8401 16.0269 15.2567C15.7193 15.4808 15.3532 15.6009 14.978 15.6009C14.6028 15.6009 14.2367 15.4808 13.9291 15.2567C13.3675 14.8401 12.6956 14.6163 12.0066 14.6163C11.3176 14.6163 10.6456 14.8401 10.0841 15.2567C9.77644 15.4808 9.41031 15.6009 9.03514 15.6009C8.65997 15.6009 8.29385 15.4808 7.98623 15.2567C7.42465 14.8401 6.75273 14.6163 6.06371 14.6163C5.3747 14.6163 4.70277 14.8401 4.1412 15.2567C3.8873 15.4561 3.58448 15.5765 3.26776 15.604C2.95104 15.6314 2.63335 15.5647 2.35141 15.4117C2.01004 15.2046 1.60382 15.1475 1.2221 15.2529C0.840383 15.3584 0.514442 15.6177 0.315979 15.9739C0.117516 16.3301 0.0627893 16.754 0.163837 17.1523C0.264886 17.5507 0.513432 17.8908 0.854798 18.0979ZM21.6548 20.5835C21.3738 20.7352 21.0575 20.8013 20.7422 20.774C20.4268 20.7468 20.1252 20.6274 19.8719 20.4295C19.3104 20.013 18.6384 19.7891 17.9494 19.7891C17.2604 19.7891 16.5885 20.013 16.0269 20.4295C15.7193 20.6536 15.3532 20.7738 14.978 20.7738C14.6028 20.7738 14.2367 20.6536 13.9291 20.4295C13.3675 20.013 12.6956 19.7891 12.0066 19.7891C11.3176 19.7891 10.6456 20.013 10.0841 20.4295C9.77644 20.6536 9.41031 20.7738 9.03514 20.7738C8.65997 20.7738 8.29385 20.6536 7.98623 20.4295C7.42465 20.013 6.75273 19.7891 6.06371 19.7891C5.3747 19.7891 4.70277 20.013 4.1412 20.4295C3.8873 20.629 3.58448 20.7494 3.26776 20.7768C2.95104 20.8043 2.63335 20.7376 2.35141 20.5846C2.18271 20.482 1.9963 20.4152 1.80283 20.3878C1.60937 20.3604 1.41263 20.3731 1.22385 20.425C0.842599 20.53 0.516918 20.7887 0.318455 21.1442C0.119992 21.4997 0.0650045 21.923 0.165588 22.3208C0.266172 22.7186 0.514088 23.0585 0.854798 23.2656C1.6326 23.7101 2.51474 23.9168 3.39999 23.8619C4.28524 23.8071 5.13774 23.4929 5.85968 22.9555C5.91726 22.9091 5.98797 22.8839 6.06074 22.8839C6.13351 22.8839 6.20423 22.9091 6.26181 22.9555C7.07556 23.544 8.04207 23.8594 9.03217 23.8594C10.0223 23.8594 10.9888 23.544 11.8025 22.9555C11.8601 22.9091 11.9308 22.8839 12.0036 22.8839C12.0764 22.8839 12.1471 22.9091 12.2047 22.9555C13.0184 23.544 13.9849 23.8594 14.975 23.8594C15.9651 23.8594 16.9316 23.544 17.7454 22.9555C17.803 22.9091 17.8737 22.8839 17.9465 22.8839C18.0192 22.8839 18.0899 22.9091 18.1475 22.9555C18.9566 23.5546 19.9228 23.8793 20.9149 23.8857C21.6986 23.886 22.4684 23.6703 23.1465 23.2604C23.3152 23.1582 23.463 23.0223 23.5815 22.8605C23.6999 22.6987 23.7867 22.5141 23.8367 22.3173C23.8868 22.1205 23.8993 21.9154 23.8734 21.7135C23.8475 21.5117 23.7837 21.3172 23.6858 21.1411C23.5878 20.965 23.4576 20.8108 23.3025 20.6872C23.1475 20.5636 22.9706 20.4731 22.782 20.4208C22.4011 20.3153 21.9956 20.372 21.6548 20.5784V20.5835Z" fill="#32476D"/>
</svg>
