<svg width="849" height="536" viewBox="0 0 849 536" fill="none" xmlns="http://www.w3.org/2000/svg">
<path d="M345.571 465.31C345.672 465.674 345.221 465.929 344.57 465.878C343.919 465.827 343.351 465.66 343.308 465.506C343.265 465.352 343.716 465.096 344.309 464.938C344.902 464.779 345.469 464.946 345.571 465.31L345.571 465.31ZM386.627 453.598C386.921 453.951 386.92 454.304 386.624 454.383C386.327 454.463 385.843 454.239 385.549 453.887C385.254 453.535 385.255 453.182 385.552 453.103C385.848 453.023 386.332 453.246 386.627 453.598ZM287.3 478.645C287.411 479.047 287.124 479.476 286.662 479.6C286.2 479.724 285.88 479.457 285.952 479.006C286.024 478.556 286.311 478.126 286.589 478.052C286.868 477.977 287.188 478.244 287.3 478.645ZM359.806 459.217C361.001 459.54 361.004 459.573 359.86 459.932C359.201 460.14 358.57 459.979 358.458 459.578C358.347 459.177 358.323 458.855 358.405 458.864C358.487 458.874 359.117 459.031 359.806 459.217ZM254.457 484C254.345 484.29 253.887 484.441 253.439 484.334C252.945 484.217 253.024 484.01 253.643 483.806C254.202 483.624 254.568 483.71 254.457 484L254.457 484ZM268.642 480.29C269.434 480.272 270.368 480.474 270.72 480.741C271.071 481.007 270.217 481.187 268.82 481.14C264.916 481.01 264.785 480.381 268.642 480.29L268.642 480.29ZM257.083 480.945C256.971 481.235 256.513 481.386 256.066 481.279C255.571 481.162 255.651 480.955 256.269 480.751C256.829 480.569 257.195 480.655 257.083 480.945L257.083 480.945ZM253.263 479.662C254.592 479.983 254.476 481.169 253.08 481.544C252.119 481.801 251.751 481.574 251.756 480.723C251.762 479.496 251.97 479.35 253.263 479.662ZM124.796 503.065C124.684 503.355 124.226 503.506 123.779 503.4C123.284 503.282 123.364 503.075 123.982 502.872C124.542 502.689 124.908 502.775 124.796 503.065L124.796 503.065ZM110.061 505.756C109.262 506.962 108.549 507.153 108.714 506.117C108.785 505.666 109.256 505.193 109.759 505.065C110.548 504.867 110.589 504.959 110.061 505.756L110.061 505.756ZM114.148 504.35C114.036 504.641 113.578 504.792 113.13 504.685C112.636 504.568 112.715 504.36 113.334 504.157C113.894 503.975 114.26 504.06 114.148 504.351L114.148 504.35ZM197.642 479.614C197.533 479.896 195.978 480.611 194.187 481.203C192.307 481.823 191.157 481.942 191.468 481.483C192.071 480.59 197.951 478.81 197.642 479.614L197.642 479.614ZM187.754 481.019C188.62 481.441 188.633 481.545 187.85 481.765C187.351 481.907 186.7 481.732 186.406 481.38C185.727 480.57 186.441 480.378 187.753 481.019L187.754 481.019ZM186.919 478.58C186.808 478.871 186.35 479.022 185.902 478.915C185.407 478.797 185.487 478.59 186.105 478.387C186.665 478.205 187.031 478.29 186.919 478.581L186.919 478.58ZM-157.947 404.806C-158.059 405.097 -158.516 405.248 -158.964 405.141C-159.459 405.024 -159.379 404.816 -158.761 404.613C-158.201 404.431 -157.835 404.516 -157.947 404.807L-157.947 404.806ZM738.032 75.6783C737.961 76.1286 737.659 76.5621 737.363 76.6415C737.066 76.721 736.883 76.4174 736.954 75.9671C737.026 75.5167 737.328 75.0833 737.624 75.0039C737.921 74.9244 738.104 75.2276 738.032 75.6783ZM366.117 58.2731C366.546 58.3763 366.843 58.798 366.777 59.2099C366.598 60.3358 365.836 60.3258 365.145 59.1885C364.516 58.1541 364.742 57.9414 366.117 58.273L366.117 58.2731ZM134.112 116.513C133.802 116.81 133.078 117.018 132.502 116.972C131.926 116.927 132.179 116.684 133.064 116.431C133.95 116.179 134.421 116.214 134.111 116.512L134.112 116.513ZM-94.0972 163.511C-94.2089 163.801 -94.6666 163.952 -95.1144 163.845C-95.6091 163.728 -95.5293 163.521 -94.9111 163.317C-94.3512 163.135 -93.9853 163.221 -94.0971 163.511L-94.0972 163.511ZM-21.7703 143.393C-22.0848 143.694 -22.6912 143.857 -23.118 143.754C-23.5448 143.651 -23.2879 143.404 -22.5463 143.205C-21.8051 143.007 -21.4559 143.091 -21.7703 143.393ZM-19.5702 141.974C-19.6822 142.264 -20.1396 142.415 -20.5874 142.308C-21.0822 142.191 -21.0024 141.984 -20.3842 141.78C-19.8243 141.598 -19.4584 141.684 -19.5701 141.974L-19.5702 141.974ZM478.261 6.9307C478.428 7.53258 478.242 8.11173 477.846 8.21767C477.451 8.32359 476.991 7.91778 476.823 7.31589C476.656 6.71404 476.843 6.13493 477.238 6.029C477.633 5.92306 478.094 6.32884 478.261 6.9307ZM338.851 467.184C338.779 467.634 339.098 467.901 339.561 467.777C340.023 467.653 340.31 467.224 340.199 466.823C340.087 466.421 339.768 466.154 339.489 466.229C339.21 466.304 338.923 466.733 338.851 467.184ZM589.282 391.85C589.469 392.524 590.044 392.787 590.776 392.535C591.681 392.223 591.716 392.106 590.922 392.045C590.348 392 589.933 391.623 589.999 391.207C590.066 390.79 589.863 390.519 589.549 390.603C589.235 390.687 589.115 391.248 589.282 391.85L589.282 391.85ZM273.246 474.321C273.694 474.427 274.152 474.276 274.263 473.986C274.375 473.696 274.009 473.609 273.449 473.793C272.831 473.995 272.751 474.203 273.246 474.321L273.246 474.321ZM99.247 506.834C99.6947 506.94 100.153 506.79 100.264 506.499C100.376 506.209 100.01 506.122 99.4503 506.306C98.8319 506.509 98.7522 506.716 99.2469 506.834L99.247 506.834ZM142.073 495.368C142.643 495.412 143.492 495.185 143.959 494.862C144.427 494.54 143.961 494.503 142.923 494.781C141.886 495.059 141.503 495.324 142.073 495.368ZM182.935 476.575C183.383 476.682 183.84 476.531 183.952 476.241C184.064 475.95 183.698 475.863 183.138 476.047C182.52 476.25 182.44 476.457 182.935 476.575L182.935 476.575ZM186.941 474.967C187.235 475.319 187.719 475.542 188.015 475.462C188.312 475.383 188.313 475.03 188.019 474.678C187.724 474.325 187.24 474.102 186.944 474.182C186.647 474.261 186.646 474.614 186.941 474.966L186.941 474.967ZM-80.0503 532.397C-79.9388 532.798 -79.3481 532.993 -78.7376 532.829C-78.1271 532.665 -77.8688 532.243 -78.1635 531.891C-78.4581 531.539 -79.049 531.345 -79.4762 531.459C-79.9035 531.574 -80.1619 531.995 -80.0503 532.397ZM-146.362 494.262C-145.914 494.368 -145.456 494.217 -145.345 493.927C-145.233 493.637 -145.599 493.55 -146.159 493.734C-146.777 493.936 -146.857 494.144 -146.362 494.262L-146.362 494.262ZM-144.041 448.9C-144.943 449.729 -144.679 450.947 -143.658 450.673C-143.245 450.562 -142.904 449.942 -142.901 449.294C-142.894 447.978 -143 447.941 -144.041 448.9L-144.041 448.9ZM772.076 176.298C772.188 176.7 772.75 176.902 773.325 176.748C773.901 176.593 774.43 176.099 774.502 175.648C774.576 175.184 774.035 174.99 773.253 175.199C772.494 175.403 771.965 175.897 772.076 176.298ZM721.336 89.528C721.003 90.0182 720.98 90.6154 721.284 90.8551C721.588 91.0947 722.092 90.6247 722.405 89.8135C723.013 88.2339 722.336 88.0532 721.336 89.528ZM725.357 88.4273C724.559 89.1786 724.692 89.2988 726.379 89.349C727.446 89.3808 728.409 89.1728 728.519 88.8862C728.629 88.6002 728.12 88.4799 727.389 88.6191C726.389 88.8098 726.49 88.6143 727.797 87.829C729.494 86.8106 729.496 86.7952 727.905 87.1745C727.009 87.387 725.862 87.9521 725.357 88.427L725.357 88.4273ZM728.003 85.9631C728.573 86.0077 729.422 85.7802 729.89 85.4575C730.358 85.1349 729.892 85.0985 728.854 85.3766C727.816 85.6547 727.433 85.9189 728.003 85.9631ZM716.527 85.2409C717.029 85.4803 717.381 86.2311 717.377 87.0513C717.371 88.2427 717.54 88.3152 718.505 87.5352C719.13 87.0302 720.047 86.4572 720.544 86.2612C721.041 86.0655 721.551 85.6348 721.678 85.3044C721.805 84.9745 722.368 84.581 722.929 84.4306C723.49 84.2803 723.708 83.869 723.413 83.517C723.119 83.1648 721.256 83.3167 719.274 83.8544C717.208 84.4167 716.036 85.0064 716.527 85.2409ZM-214.076 274.682C-214.203 275.01 -213.435 274.899 -212.37 274.436C-211.305 273.973 -210.331 273.325 -210.205 272.998C-210.079 272.671 -210.847 272.781 -211.912 273.245C-212.976 273.708 -213.95 274.355 -214.076 274.682ZM-208.538 224.275L-209.723 225.22L-208.37 224.88C-207.625 224.695 -206.609 224.128 -206.112 223.625C-205.208 222.709 -205.208 222.709 -206.28 223.019C-206.87 223.191 -207.886 223.755 -208.538 224.275L-208.538 224.275ZM655.1 -19.1428C655.547 -19.0363 656.005 -19.1872 656.117 -19.4774C656.228 -19.7676 655.862 -19.8547 655.303 -19.6709C654.684 -19.4681 654.605 -19.2607 655.1 -19.1429L655.1 -19.1428ZM-38.5746 152.617C-38.127 152.724 -37.6693 152.573 -37.5575 152.282C-37.4455 151.992 -37.812 151.905 -38.3715 152.089C-38.99 152.292 -39.0695 152.499 -38.5747 152.617L-38.5746 152.617ZM491.279 3.23424C492.94 3.7672 494.411 4.60197 494.546 5.08932C494.682 5.57677 495.38 6.19849 496.097 6.47099C497.076 6.84284 497.305 6.75574 497.014 6.12161C496.801 5.65699 497.382 4.71413 498.306 4.02634C499.23 3.33837 500.049 2.53607 500.127 2.24307C500.205 1.95029 500.941 1.78419 501.763 1.87486C502.718 1.97995 502.924 2.15632 502.333 2.36468C501.825 2.54251 501.501 3.01829 501.613 3.41971C501.724 3.821 502.247 4.06137 502.775 3.95402C503.303 3.8495 503.49 3.99485 503.191 4.28371C502.198 5.24485 505.774 7.79185 507.477 7.33557C509.43 6.81235 510.788 5.17256 510.406 3.7991C510.19 3.02126 510.565 2.74991 511.852 2.75312C512.808 2.7555 513.801 2.343 514.059 1.83617C514.723 0.532578 520.253 -0.498153 522.045 0.347651C523.343 0.960213 523.669 0.868157 524.462 -0.336878C524.966 -1.10187 526.346 -1.99752 527.529 -2.32701C528.956 -2.72347 529.549 -3.22068 529.291 -3.802C528.879 -4.73103 530.198 -5.43583 530.762 -4.58843C530.944 -4.31411 532.445 -3.83032 534.097 -3.51367C536.781 -2.99909 537.163 -3.08065 537.694 -4.28159C538.021 -5.02059 538.679 -5.73001 539.157 -5.8581C539.635 -5.98618 540.085 -6.4596 540.157 -6.90976C540.321 -7.94399 542.854 -8.66784 543.108 -7.75343C543.212 -7.37927 543.86 -6.99174 544.549 -6.89231C545.238 -6.79296 545.716 -6.48859 545.611 -6.21622C545.259 -5.30175 547.153 -4.08121 548.403 -4.41633C549.594 -4.73546 552.368 -7.62649 552.667 -8.86076C552.859 -9.65092 555.383 -9.43481 555.613 -8.6084C555.884 -7.63276 558.115 -8.49742 558.873 -9.87142C559.241 -10.5377 559.324 -11.2544 559.058 -11.4639C558.163 -12.1696 559.245 -12.0342 561.713 -11.1316C563.752 -10.3858 564.467 -10.451 565.959 -11.5191C567.211 -12.416 568.146 -12.654 569.057 -12.3076C569.775 -12.0351 570.302 -12.028 570.228 -12.2922C570.155 -12.556 570.526 -12.4913 571.051 -12.1487C571.757 -11.6886 572.401 -11.8604 573.509 -12.8072C574.335 -13.5106 576.044 -14.1363 577.306 -14.1978C578.648 -14.263 579.396 -14.5532 579.109 -14.8963C577.687 -16.5942 582.923 -17.2241 586.036 -15.7297C586.639 -15.4406 586.991 -15.559 586.977 -16.0451C586.964 -16.4729 587.752 -16.8754 588.727 -16.9398C590.052 -17.0267 590.33 -17.2604 589.825 -17.8635C589.313 -18.4748 589.429 -18.5575 590.303 -18.2043C591.07 -17.8944 591.88 -18.1212 592.716 -18.8787C594.098 -20.1326 596.162 -20.0396 595.954 -18.7327C595.883 -18.2772 596.095 -17.9788 596.426 -18.0676C596.758 -18.1565 596.972 -17.8741 596.903 -17.4404C596.767 -16.5812 606.072 -19.3975 607.389 -20.6141C607.807 -20.9998 608.396 -21.0206 608.698 -20.6601C609 -20.2996 609.586 -20.3159 610 -20.6968C610.459 -21.1184 610.7 -21.058 610.618 -20.5408C610.377 -19.0275 613.048 -17.6935 614.443 -18.63C615.144 -19.1003 615.502 -19.743 615.238 -20.0582C614.63 -20.7854 616.729 -22.732 618.638 -23.2108C620.234 -23.6108 621.68 -22.8843 623.207 -20.9146C623.847 -20.0884 624.91 -19.7356 626.189 -19.9242C627.283 -20.0852 628.6 -19.821 629.116 -19.3368C630.225 -18.2972 631.461 -18.4787 631.426 -19.6753C631.386 -21.0183 636.776 -22.5528 637.477 -21.3984C637.798 -20.8705 638.37 -20.7235 638.749 -21.0716C639.127 -21.4199 639.535 -21.3513 639.655 -20.919C639.788 -20.4417 640.36 -20.4601 641.114 -20.9659C641.904 -21.4956 642.743 -21.4926 643.421 -20.9575C644.155 -20.3786 645.132 -20.4219 646.557 -21.0963C648.103 -21.8277 648.984 -21.8212 650.039 -21.0681C650.815 -20.5139 651.4 -19.7422 651.338 -19.3535C651.276 -18.9645 651.755 -19.1304 652.403 -19.7217C653.05 -20.3129 653.973 -20.7103 654.453 -20.6049C654.933 -20.4996 655.673 -21.1443 656.097 -22.0375C656.581 -23.0562 657.522 -23.7408 658.62 -23.8739C660.051 -24.0472 660.246 -24.2913 659.697 -25.1931C659.328 -25.802 659.277 -26.1836 659.586 -26.0413C659.895 -25.8989 661.226 -25.8832 662.544 -26.0065C663.862 -26.1299 665.202 -26.1098 665.522 -25.9622C666.057 -25.7153 667.509 -25.7117 670.404 -25.9503C671.026 -26.0015 671.925 -25.6604 672.4 -25.1918C672.916 -24.6835 674.47 -24.6027 676.255 -24.9915C677.9 -25.3499 679.602 -25.479 680.037 -25.2783C680.477 -25.0753 680.722 -25.2934 680.59 -25.7701C680.432 -26.3387 680.909 -26.3502 682.008 -25.8041C682.919 -25.3519 683.975 -25.0705 684.354 -25.1788C684.839 -25.3176 684.745 -25.5212 684.039 -25.8661C683.277 -26.2379 683.461 -26.4742 684.8 -26.8418C685.875 -27.139 686.804 -26.9335 687.177 -26.3197C687.514 -25.7656 687.935 -25.5213 688.112 -25.7766C688.561 -26.4221 692.712 -25.6162 693.145 -24.7996C693.34 -24.4322 694.018 -24.3746 694.652 -24.6717C695.286 -24.9685 695.908 -24.8406 696.034 -24.3869C696.16 -23.9332 696.478 -23.8714 696.741 -24.2493C697.011 -24.638 697.162 -24.5798 697.088 -24.1163C697.016 -23.665 698.109 -22.4925 699.516 -21.5104C700.924 -20.5283 701.75 -19.6322 701.353 -19.5191C700.802 -19.3626 700.869 -19.1969 701.635 -18.8229C702.342 -18.4781 702.435 -18.2739 701.95 -18.1354C701.439 -17.9895 701.502 -17.6176 702.194 -16.6994C702.707 -16.0179 703.42 -14.1895 703.778 -12.6366C704.383 -10.0104 704.579 -9.78962 706.552 -9.4674C708.224 -9.1952 708.704 -9.34076 708.812 -10.1522C708.943 -11.1415 713.982 -12.5472 718.633 -12.8915C719.569 -12.9609 721.733 -13.1467 723.441 -13.3045C725.39 -13.4844 727.06 -13.1619 727.923 -12.4386C728.926 -11.5976 729.895 -11.4938 731.505 -12.0546C734.299 -13.0281 737.468 -12.8941 737.602 -11.7967C737.659 -11.3336 739.016 -10.9297 740.618 -10.8989C742.219 -10.8681 743.906 -10.6588 744.367 -10.4335C744.828 -10.2082 745.402 -10.308 745.644 -10.6552C745.885 -11.0023 746.826 -11.1318 747.736 -10.9434C751.423 -10.1784 751.882 -10.1139 752.848 -10.2244C753.402 -10.2875 753.89 -10.5639 753.934 -10.8381C754.074 -11.7167 759.821 -12.7185 761.363 -12.1329C762.181 -11.8222 763.265 -11.8539 763.772 -12.2037C764.279 -12.5531 764.913 -12.5782 765.18 -12.2594C765.447 -11.9405 766.078 -11.7788 766.583 -11.9005C767.739 -12.1778 770.283 -9.55327 771.279 -7.05529C771.696 -6.01059 772.296 -4.49605 772.612 -3.68957C773.974 -0.21593 779.467 3.43552 782.22 2.69776C783.037 2.47902 784.386 2.66703 785.219 3.11538C786.053 3.56382 786.915 3.67112 787.135 3.35394C787.356 3.03644 788.38 3.08249 789.411 3.4549C792.552 4.5906 793.84 8.75879 792.671 14.0071C792.518 14.6948 792.425 17.0125 792.465 19.1576C792.614 27.2588 792.946 26.8129 783.991 30.5432C781.136 31.7324 777.164 33.8526 775.164 35.2542C773.164 36.6558 771.187 37.9828 770.77 38.2031C769.253 39.0051 767.164 40.7048 766.078 42.0216C765.466 42.7628 764.701 43.4427 764.377 43.5321C764.052 43.6191 763.529 44.4745 763.213 45.4274C762.858 46.5007 762.218 47.0994 761.534 47.0006C760.783 46.8919 760.53 47.2075 760.746 47.9845C760.921 48.6134 760.811 49.1957 760.502 49.2785C760.193 49.3613 759.61 50.2053 759.207 51.154C758.804 52.1028 757.812 53.6127 757.003 54.5092C756.193 55.4058 755.483 56.4433 755.424 56.8148C755.365 57.1863 754.356 58.3699 753.183 59.445C752.01 60.5201 750.339 62.4886 749.469 63.8195C748.6 65.1503 747.366 66.4904 746.728 66.7974C744.733 67.7566 744.108 68.2187 743.145 69.4483C742.632 70.1041 741.589 70.8074 740.828 71.0112C740.067 71.2151 739.528 71.6797 739.629 72.044C739.73 72.4082 738.717 73.4518 737.377 74.3632C736.038 75.2746 735.002 76.2366 735.075 76.501C735.149 76.7653 734.464 77.2123 733.554 77.4942C732.644 77.7752 731.824 78.2033 731.731 78.4439C731.639 78.6845 730.882 78.7339 730.051 78.5547C729.168 78.3642 728.741 78.4707 729.026 78.8108C729.293 79.1309 728.603 79.8748 727.491 80.4644C726.379 81.0541 725.55 81.8276 725.649 82.1835C725.748 82.5396 726.449 82.4824 727.207 82.0566C733.084 78.7549 736.375 77.2961 737.649 77.4265C739.254 77.5907 738.478 78.1883 736.218 78.5288C735.454 78.6442 735.064 78.9274 735.352 79.1595C736.187 79.8308 734.98 82.186 733.921 81.9531C733.313 81.8197 733.14 82.054 733.45 82.5911C733.752 83.1143 734.671 83.1561 735.845 82.6997C738.012 81.8575 738.456 82.3104 736.972 83.8468C736.021 84.8315 736.039 84.8494 737.273 84.1417C737.996 83.7277 739.834 83.5449 741.359 83.7357C742.883 83.9265 743.936 83.8497 743.698 83.5652C743.459 83.2807 743.732 83.0842 744.303 83.1289C744.874 83.1736 746.643 82.2702 748.234 81.1206C751.978 78.4172 759.437 74.5357 760.758 74.6034C761.323 74.6325 761.726 74.4408 761.653 74.1774C761.58 73.914 765.07 72.6398 769.41 71.3459C773.749 70.0516 779.158 68.387 781.429 67.6456C783.701 66.9045 785.756 66.5338 785.997 66.8216C786.239 67.1095 786.694 67.1301 787.008 66.8671C787.323 66.6035 789.037 65.8405 790.817 65.171C792.596 64.5015 794.365 63.5478 794.747 63.0515C795.519 62.0488 798.708 61.616 798.948 62.481C799.279 63.6702 804.375 63.3751 808.924 61.9035C813.675 60.3665 814.239 59.9301 819.209 53.944C819.585 53.4913 821.121 52.9229 822.623 52.681C824.899 52.3146 825.764 52.5894 827.818 54.3339C829.628 55.8715 830.5 57.1511 831.105 59.1572C833.02 65.5144 832.912 66.8962 830.326 69.0978C828.994 70.2322 828.967 70.5068 829.953 72.9712C830.709 74.8623 830.851 75.9523 830.447 76.7685C830.136 77.3983 830.009 78.3739 830.165 78.9366C830.505 80.1592 828.887 81.7421 825.185 83.8092C822.153 85.5017 811.202 95.5034 807.073 100.35C805.608 102.07 804.064 104.374 803.642 105.47C803.221 106.566 802.574 107.74 802.205 108.079C801.836 108.419 801.305 110.287 801.024 112.233C800.743 114.178 799.633 118.292 798.556 121.375C797.48 124.458 796.711 127.38 796.847 127.869C796.982 128.358 796.851 129.105 796.555 129.529C796.258 129.953 795.764 131.506 795.457 132.979C794.547 137.336 789.22 141.81 780.763 145.319C779.232 145.955 776.791 147.181 775.339 148.044C773.887 148.907 772.299 149.526 771.811 149.418C771.323 149.311 770.99 149.464 771.072 149.757C771.153 150.05 769.813 151.324 768.093 152.587C766.374 153.85 765.031 155.115 765.11 155.398C765.188 155.681 764.288 156.898 763.109 158.102C759.044 162.254 758.254 163.04 757.89 163.29C757.69 163.429 757.365 163.667 757.168 163.819C756.972 163.971 756.179 164.209 755.406 164.347C754.605 164.49 753.752 165.349 753.422 166.345C753.104 167.306 752.582 167.971 752.263 167.824C751.944 167.677 751.68 168.109 751.676 168.783C751.672 169.458 751.278 170.116 750.799 170.244C750.152 170.417 750.334 170.696 751.506 171.327C752.717 171.979 753.633 171.895 755.444 170.966C756.743 170.301 758.948 169.182 760.346 168.479C762.009 167.642 764.464 167.177 767.454 167.13C770.93 167.076 772.825 166.66 775.388 165.387C778.377 163.903 782.703 162.846 783.433 163.421C784.647 164.379 778.701 172.957 776.396 173.575C775.043 173.938 775.568 175.154 777.178 175.386C779.001 175.65 780.611 177.324 779.964 178.285C779.637 178.771 779.747 178.928 780.313 178.785C780.768 178.672 781.737 179.12 782.468 179.787C783.892 181.085 786.881 180.754 787.117 179.271C787.194 178.79 787.643 178.482 788.114 178.585C788.903 178.758 792.526 176.359 795.063 173.982C795.643 173.438 796.929 172.776 797.92 172.511C799.532 172.079 799.827 172.272 800.728 174.355C801.545 176.245 802.234 176.823 804.401 177.441C805.868 177.859 808.398 178.097 810.024 177.97C811.65 177.843 813.899 178.054 815.022 178.439C816.145 178.824 817.391 179.052 817.79 178.945C818.189 178.838 818.597 179.043 818.696 179.401C818.796 179.758 819.562 180.096 820.4 180.151C821.726 180.238 827.235 182.717 829.752 184.359C830.222 184.666 830.859 184.849 831.168 184.766C831.694 184.626 832.13 185.505 832.912 188.281C833.141 189.096 834.219 189.443 836.605 189.469C846.112 189.571 849.17 193.384 848.449 204.237C848.351 205.705 848.48 207.275 848.735 207.726C849.746 209.513 841.503 217.61 834.962 221.257C833.444 222.102 830.628 224.161 828.703 225.832C826.778 227.503 823.882 229.743 822.267 230.809C820.652 231.876 818.164 233.711 816.739 234.889C815.314 236.066 813.219 237.67 812.083 238.454C810.946 239.237 810.1 240.179 810.203 240.546C810.305 240.914 809.543 241.689 808.509 242.269C807.476 242.849 805.914 244.03 805.04 244.895C803.376 246.54 800.588 248.487 795.581 251.502C793.943 252.488 791.991 253.903 791.242 254.647C790.493 255.391 788.702 256.918 787.261 258.04C785.821 259.162 784.03 260.691 783.282 261.437C782.533 262.183 780.579 264.06 778.938 265.607C772.186 271.975 768.997 275.11 767.246 277.104C766.229 278.262 765.098 279.289 764.732 279.387C764.366 279.485 763.734 280.303 763.327 281.205C762.92 282.106 761.858 283.506 760.968 284.315C760.078 285.124 759.013 286.453 758.603 287.267C758.192 288.082 757.26 289.42 756.533 290.241C755.805 291.062 755.13 292.197 755.033 292.763C754.936 293.329 754.275 293.947 753.566 294.137C752.857 294.327 752.219 294.851 752.147 295.301C752.075 295.752 751.202 296.339 750.206 296.605C747.983 297.201 746.78 298.236 747.42 299.002C747.684 299.317 747.475 299.742 746.956 299.947C746.437 300.152 745.751 300.429 745.434 300.563C745.116 300.696 744.591 301.341 744.268 301.995C743.944 302.649 743.382 303.333 743.019 303.516C742.655 303.698 742.169 304.106 741.939 304.422C741.708 304.739 740.673 305.677 739.638 306.507C738.603 307.337 737.567 308.509 737.335 309.11C737.104 309.712 735.038 311.685 732.745 313.493C730.452 315.302 728.508 317.008 728.426 317.284C728.343 317.559 727.506 318.064 726.565 318.405C723.449 319.536 722.797 319.955 723.003 320.698C723.115 321.102 722.628 320.807 721.918 320.037C720.334 318.322 719.998 318.392 718.938 320.661C718.477 321.647 717.881 322.512 717.612 322.584C717.344 322.656 717.365 323.003 717.659 323.355C717.971 323.728 717.517 324.177 716.573 324.43C715.681 324.669 714.871 325.327 714.773 325.892C714.675 326.457 713.639 327.231 712.471 327.611C708.851 328.79 707.072 329.696 707.461 330.164C707.666 330.41 707.442 331.1 706.961 331.697C706.331 332.48 706.026 332.559 705.866 331.982C705.744 331.543 705.471 331.433 705.259 331.738C705.047 332.042 704.628 331.999 704.329 331.641C704.029 331.283 703.045 331.188 702.141 331.43C700.902 331.762 700.649 332.12 701.112 332.882C701.558 333.614 701.355 333.993 700.379 334.254C699.638 334.453 699.029 335.143 699.025 335.788C699.022 336.433 698.774 336.848 698.474 336.71C698.174 336.572 697.45 336.915 696.864 337.474C695.321 338.946 693.983 340.134 693.694 340.289C693.555 340.363 693.089 341.341 692.657 342.462C691.937 344.333 691.77 344.426 690.611 343.598C689.015 342.459 688.96 342.481 687.952 344.639C687.491 345.625 686.728 346.54 686.256 346.673C685.625 346.851 685.62 347.02 686.235 347.314C686.835 347.601 686.738 348.298 685.892 349.785C685.243 350.925 684.898 352.078 685.124 352.349C685.35 352.619 684.758 353.51 683.808 354.329C681.603 356.229 681.045 357.32 681.714 358.421C682.036 358.951 681.752 359.632 680.998 360.138C680.311 360.599 679.845 361.321 679.961 361.741C680.087 362.192 679.641 362.429 678.876 362.318C677.869 362.173 677.718 362.361 678.201 363.157C678.629 363.861 678.371 364.635 677.381 365.623C676.587 366.415 675.707 367.172 675.426 367.305C675.144 367.439 674.815 367.661 674.694 367.798C674.573 367.936 673.9 368.33 673.2 368.673C667.236 371.597 665.609 372.49 664.215 373.608C662.145 375.269 658.991 376.381 657.847 375.853C657.276 375.59 656.837 375.921 656.645 376.762C656.408 377.795 654.898 378.572 649.754 380.309C642.517 382.752 639.914 383.796 637.277 385.311C635.4 386.389 632.002 387.302 628.385 387.702C627.148 387.838 624.628 388.205 622.784 388.517C620.939 388.83 618.457 388.807 617.267 388.466C616.077 388.126 614.55 387.734 613.875 387.596C611.872 387.187 607.445 388.133 607.307 389C607.139 390.054 603.148 391.108 602.456 390.281C602.16 389.928 601.349 390.02 600.655 390.486C599.769 391.08 599.436 391.054 599.541 390.396C599.765 388.985 597.64 389.791 597.043 391.343C596.451 392.88 595.478 393.304 595.16 392.162C594.772 390.765 588.665 393.956 587.33 396.253C586.54 397.614 585.504 398.393 584.207 398.603C577.806 399.638 569.678 402.597 570.005 403.773C570.104 404.128 569.442 404.617 568.535 404.86C567.573 405.118 566.941 404.961 567.017 404.483C567.088 404.033 566.782 403.762 566.339 403.881C565.894 404 565.467 404.492 565.391 404.972C565.314 405.453 564.931 405.777 564.539 405.691C563.717 405.51 562.842 407.551 563.514 408.082C563.762 408.277 563.632 408.566 563.224 408.725C561.371 409.448 559.351 411.288 559.565 412.059C559.663 412.413 558.716 412.991 557.46 413.343C556.203 413.693 553.879 414.825 552.294 415.854C550.625 416.939 548.258 417.845 546.667 418.009C544.992 418.182 543.999 418.577 544.123 419.023C544.396 420.003 537.709 422.792 536.674 422.129C536.229 421.844 535.171 421.93 534.324 422.32C530.816 423.934 525.309 425.592 524.168 425.378C523.496 425.251 522.615 425.625 522.21 426.208C521.724 426.908 521.272 427.056 520.882 426.644C520.068 425.781 516.939 426.198 517.67 427.072C518.036 427.509 517.234 428.034 515.387 428.566C513.821 429.018 512.032 429.671 511.412 430.018C510.791 430.365 510.216 430.405 510.133 430.106C510.05 429.808 507.955 430.008 505.478 430.55C503 431.092 500.331 431.57 499.546 431.611C493.086 431.949 490.494 431.784 489.522 430.975C488.66 430.257 488.61 430.123 489.311 430.41C489.926 430.663 490.025 430.543 489.608 430.046C489.249 429.617 488.484 429.643 487.791 430.108C487.132 430.549 486.161 430.628 485.632 430.284C485.103 429.939 484.332 429.967 483.919 430.347C483.505 430.729 483.068 430.676 482.945 430.23C482.632 429.106 481.24 429.603 480.16 431.225C479.405 432.358 475.781 434.153 474.704 433.927C474.535 433.891 472.629 434.301 470.469 434.839C468.308 435.376 466.467 435.549 466.376 435.222C466.285 434.897 465.775 434.747 465.241 434.89C464.707 435.033 463.835 434.825 463.303 434.429C462.529 433.853 462.336 433.904 462.341 434.687C462.345 435.225 462.111 435.728 461.822 435.806C461.533 435.883 461.355 435.578 461.426 435.128C461.498 434.677 461.3 434.378 460.986 434.462C460.672 434.546 460.517 434.984 460.643 435.436C460.788 435.959 460.24 436.255 459.132 436.252C458.129 436.25 457.479 436.556 457.596 436.976C457.707 437.377 456.98 437.298 455.98 436.802C454.57 436.102 453.041 436.199 449.178 437.234C446.088 438.062 444.045 438.959 443.801 439.594C443.584 440.157 442.996 440.528 442.494 440.417C441.993 440.307 441.518 440.619 441.44 441.11C441.342 441.723 440.564 441.973 438.968 441.906C436.039 441.782 432.918 442.558 433.507 443.262C434.137 444.014 432.309 444.445 431.253 443.794C430.621 443.404 430.479 443.633 430.742 444.626C431.081 445.909 431.037 445.928 430.051 444.93C429.472 444.343 428.044 443.954 426.879 444.066C425.714 444.177 424.236 443.769 423.595 443.159C422.953 442.549 422.696 442.419 423.024 442.87C423.868 444.035 422.805 444.146 421.604 443.019C421.051 442.501 420.289 442.362 419.911 442.71C419.532 443.059 418.565 442.787 417.753 442.102C416.616 441.142 415.944 441.07 414.784 441.785C413.831 442.371 413.333 442.409 413.416 441.887C413.596 440.757 411.647 440.424 411.117 441.495C410.859 442.019 410.304 442.185 409.72 441.916C408.762 441.474 406.662 442.458 405.889 443.711C405.669 444.066 404.354 444.635 402.965 444.974C401.576 445.314 400.621 445.806 400.842 446.07C401.063 446.334 400.715 446.692 400.068 446.866C399.084 447.129 398.952 446.973 399.259 445.907C399.461 445.206 399.532 444.643 399.417 444.656C394.693 445.192 392.818 445.657 392.983 446.251C393.093 446.645 392.387 447.415 391.415 447.96C390.443 448.506 389.867 449.215 390.136 449.536C390.426 449.883 391.117 449.67 391.838 449.011C392.636 448.283 393.302 448.101 393.782 448.476C394.263 448.856 394.162 449.143 393.487 449.316C392.922 449.459 391.457 450.101 390.232 450.739C388.399 451.695 388.03 451.698 388.151 450.762C388.27 449.841 388.208 449.835 387.825 450.729C387.565 451.338 386.611 452.029 385.705 452.265C384.576 452.559 384.233 452.436 384.615 451.871C385.004 451.298 384.95 450.946 384.437 450.709C383.704 450.371 383.734 451.358 384.518 453.379C384.85 454.234 384.743 454.301 383.985 453.718C382.855 452.849 381.888 452.97 382.654 453.884C383.439 454.823 381.841 456.033 380.849 455.25C380.386 454.886 379.391 454.758 378.637 454.967C377.554 455.266 377.477 455.45 378.27 455.837C379.609 456.491 379.064 456.601 376.648 456.166C375.054 455.879 374.625 456.032 374.47 456.945C374.317 457.854 374.206 457.831 373.922 456.831C373.685 456.005 373.323 455.802 372.854 456.233C372.463 456.593 372.121 456.533 372.093 456.099C372.065 455.666 371.813 455.425 371.534 455.565C371.254 455.705 371.173 456.22 371.353 456.711C371.533 457.202 371.496 457.653 371.268 457.714C370.641 457.882 369.083 456.259 369.309 455.672C369.418 455.388 369.048 455.473 368.487 455.86C367.926 456.247 367.565 456.915 367.684 457.345C367.804 457.776 367.207 457.541 366.359 456.825C364.707 455.431 363.855 455.195 364.875 456.414C365.3 456.922 365.093 457.124 364.22 457.056C363.518 457.001 362.89 457.29 362.825 457.698C362.76 458.105 362.411 458.491 362.049 458.554C361.574 458.635 361.55 458.515 361.963 458.12C362.622 457.487 362.207 455.438 361.459 455.639C361.184 455.712 360.717 456.401 360.421 457.169C360.126 457.936 359.475 458.475 358.975 458.365C357.807 458.108 356.54 459.258 357.166 460.006C357.81 460.775 357.255 460.867 355.65 460.258C354.694 459.895 354.227 460.02 353.961 460.711C353.417 462.124 352.225 462.223 352.232 460.854C352.235 460.207 351.993 459.743 351.694 459.823C351.395 459.903 351.168 460.945 351.191 462.138C351.228 464.072 350.975 464.375 348.866 464.917C347.268 465.331 346.46 465.218 346.38 464.578C346.315 464.057 345.953 463.692 345.576 463.768C345.2 463.846 343.997 464.014 342.905 464.144C341.29 464.337 340.906 464.703 340.846 466.113C340.774 467.784 338.136 469.822 337.766 468.492C337.673 468.158 336.763 468.166 335.744 468.51C334.724 468.854 333.817 468.872 333.727 468.549C333.638 468.226 333.127 468.264 332.592 468.633C332.058 469.002 331.692 469.562 331.78 469.878C331.868 470.194 330.729 470.79 329.25 471.203C326.366 472.009 325.423 472.803 326.221 473.757C326.496 474.085 326.342 474.454 325.88 474.578C325.418 474.702 324.948 474.475 324.837 474.074C324.725 473.673 324.134 473.478 323.524 473.642C322.913 473.805 322.473 473.571 322.544 473.12C322.696 472.167 322.019 472.245 321.335 473.26C320.907 473.896 320.868 474.384 321.162 475.443C321.217 475.639 320.621 475.368 319.837 474.84C319.053 474.312 318.297 473.468 318.157 472.965C317.969 472.286 317.599 472.329 316.722 473.13C315.94 473.843 315.584 473.932 315.671 473.393C315.852 472.254 312.282 473.306 310.877 474.806C310.251 475.474 309.815 476.296 309.909 476.633C310.002 476.97 309.58 477.379 308.969 477.543C308.299 477.722 308.093 478.119 308.449 478.544C308.877 479.057 308.675 479.111 307.707 478.743C306.975 478.465 305.197 478.512 303.756 478.847C301.358 479.405 301.258 479.367 302.582 478.404C303.728 477.57 303.51 477.565 301.531 478.377C299.963 479.021 299.082 479.101 299.163 478.593C299.279 477.864 297.909 477.864 295.249 478.594C294.73 478.733 294.239 478.606 294.155 478.306C294.015 477.799 291.92 477.568 286.088 477.414C284.804 477.38 283.048 477.155 282.184 476.914C280.657 476.488 280.661 476.473 282.351 476.372C283.305 476.315 284.355 475.872 284.683 475.388C285.094 474.782 284.458 474.724 282.641 475.202C280.787 475.69 279.907 476.314 279.681 477.298C279.398 478.533 279.113 478.641 277.265 478.212C274.389 477.544 273.273 476.617 275.281 476.564C276.151 476.54 276.783 476.238 276.688 475.893C276.375 474.77 273.876 475.935 273.711 477.28C273.583 478.328 273.284 478.486 272.204 478.076C270.404 477.392 270.161 477.522 270.916 478.764C271.433 479.616 271.238 479.796 269.864 479.736C268.937 479.695 267.783 479.281 267.3 478.816C266.206 477.762 265.288 477.962 265.262 479.26C265.248 479.937 265.036 480.04 264.582 479.59C263.65 478.666 261.507 479.39 262.131 480.418C262.408 480.873 263.079 481.283 263.622 481.327C264.164 481.372 263.805 481.664 262.822 481.978C261.439 482.419 261.037 482.282 261.042 481.37C261.047 480.533 260.708 480.302 259.868 480.57C259.219 480.777 259.039 481.033 259.468 481.137C260.583 481.405 260.21 482.769 258.927 483.112C258.099 483.334 257.83 483.047 257.783 481.889C257.732 480.656 257.159 480.205 254.683 479.452C253.012 478.944 251.243 478.672 250.752 478.847C250.184 479.051 249.863 478.759 249.866 478.041C249.87 477.352 249.537 477.006 249.006 477.148C248.529 477.276 248.249 477.774 248.383 478.256C248.572 478.937 248.429 478.975 247.736 478.429C246.442 477.408 241.883 478.8 241.436 480.352C240.434 483.829 230.797 482.049 230.733 478.374C230.723 477.816 230.333 477.671 229.745 478.006C229.211 478.31 228.691 478.261 228.589 477.895C228.487 477.529 228.129 477.484 227.792 477.793C227.455 478.103 226.409 478.192 225.466 477.987C224.042 477.68 223.814 477.404 224.115 476.357C224.368 475.48 224.294 475.147 223.873 475.259C223.54 475.349 223.217 475.003 223.154 474.491C222.961 472.911 220.538 473.607 219.366 475.579L218.255 477.448L215.518 476.319C212.881 475.231 212.776 475.245 212.62 476.707C212.512 477.728 212.68 478.325 213.139 478.535C214.315 479.078 213.668 480.151 212.156 480.164C211.358 480.171 210.756 479.851 210.82 479.452C211.062 477.931 208.396 479.484 208.043 481.069C207.838 481.987 207.466 482.792 207.215 482.859C206.964 482.926 206.73 482.284 206.695 481.431C206.628 479.79 206.387 479.726 203.569 480.604C202.196 481.031 202.096 480.966 202.863 480.147C203.354 479.623 203.432 479.255 203.036 479.331C202.64 479.404 202.375 479.1 202.447 478.65C202.523 478.174 201.949 478.022 201.077 478.288C199.758 478.69 199.728 478.785 200.83 479.083C201.771 479.337 201.871 479.491 201.232 479.704C200.764 479.862 199.499 479.342 198.42 478.553C196.232 476.952 195.522 476.901 195.536 478.346C195.543 479.084 195.241 479.192 194.299 478.787C193.614 478.492 192.361 478.548 191.513 478.912C190.389 479.395 190.138 479.33 190.585 478.671C191.039 478.002 190.705 477.885 189.294 478.217C187.604 478.615 187.507 478.555 188.421 477.68C189.949 476.219 189.509 475.898 187.331 476.885C185.803 477.577 185.584 477.548 186.278 476.744C186.942 475.976 186.661 475.977 185.122 476.751C184.004 477.313 183.018 477.93 182.931 478.122C182.844 478.314 182.222 477.64 181.548 476.625C180.792 475.485 180.435 475.246 180.616 475.999C180.82 476.846 180.546 477.191 179.724 477.127C178.58 477.037 178.388 478.425 179.512 478.655C179.816 478.717 179.813 479.353 179.505 480.068C179.007 481.221 178.945 481.216 178.951 480.02C178.959 478.44 178.908 478.437 177.274 479.929C176.587 480.557 176.233 481.234 176.487 481.435C176.741 481.635 176.649 482.344 176.281 483.011C175.648 484.159 175.663 484.21 176.565 483.992C177.087 483.866 177.606 484.091 177.717 484.492C177.951 485.334 177.632 485.463 175.72 485.299C174.651 485.208 174.455 484.978 174.861 484.291C175.234 483.659 175.113 483.626 174.444 484.177C173.925 484.604 173.276 485.076 173 485.226C172.724 485.376 172.359 486.028 172.19 486.676C171.994 487.425 171.346 487.819 170.413 487.758C169.319 487.686 169.025 487.952 169.26 488.798C169.51 489.697 169.935 489.733 171.295 488.969C172.453 488.319 172.969 488.288 172.876 488.875C172.7 489.979 167.48 491.424 167.207 490.443C167.096 490.042 166.762 489.779 166.466 489.858C165.69 490.066 166.355 492.035 167.277 492.257C167.758 492.373 167.715 492.559 167.164 492.745C166.675 492.908 165.775 492.65 165.163 492.167C164.551 491.684 163.493 491.463 162.813 491.676C161.642 492.041 161.643 492.082 162.835 492.425C163.662 492.664 162.875 492.981 160.544 493.35C158.592 493.66 156.723 493.787 156.391 493.634C156.059 493.481 155.205 493.787 154.493 494.313C153.249 495.236 153.287 495.269 155.498 495.205C157.315 495.152 157.03 495.314 154.139 495.974C152.128 496.433 150.248 496.624 149.962 496.398C149.151 495.759 147.334 496.455 147.936 497.174C148.231 497.527 148.094 497.916 147.632 498.04C147.169 498.164 146.645 497.737 146.465 497.093C146.252 496.323 145.889 496.151 145.41 496.591C145.009 496.961 144.285 497.404 143.801 497.577C143.269 497.766 143.519 497.978 144.432 498.113C145.676 498.297 145.755 498.398 144.881 498.687C144.298 498.88 143.378 498.827 142.837 498.57C142.196 498.265 141.802 498.427 141.705 499.034C141.594 499.73 140.99 499.891 139.315 499.666C138.011 499.493 136.787 499.725 136.386 500.219C135.658 501.116 133.134 501.622 131.998 501.098C131.628 500.927 131.302 500.187 131.273 499.454C131.243 498.676 131.117 498.476 130.97 498.973C130.699 499.885 121.33 502.677 121.469 501.803C121.515 501.517 121.071 500.968 120.483 500.585C119.579 499.996 119.53 500.086 120.165 501.169C120.578 501.874 120.65 502.26 120.325 502.028C120 501.795 119.506 502.066 119.228 502.629C118.833 503.428 118.723 503.395 118.728 502.48C118.733 501.571 118.272 501.423 116.675 501.82C115.544 502.105 112.5 502.688 109.913 503.122C106.733 503.656 105.535 504.075 106.217 504.416C106.948 504.78 106.438 505.134 104.367 505.697C102.486 506.21 101.703 506.708 102.078 507.156C102.463 507.616 101.993 507.846 100.633 507.864C99.4794 507.879 98.2286 508.372 97.7101 509.016C96.6135 510.379 96.263 509.634 97.2078 507.949C97.8236 506.851 97.7844 506.808 96.7798 507.484C96.1718 507.893 95.6226 508.552 95.5596 508.948C95.4965 509.344 95.179 509.739 94.8541 509.826C94.5291 509.913 94.498 509.276 94.7846 508.411C95.4311 506.461 95.2716 505.795 94.2252 506.075C93.7804 506.194 93.5632 506.819 93.7424 507.464C93.9716 508.289 93.7465 508.56 92.9828 508.378C91.1893 507.951 85.9586 508.514 86.435 509.083C86.6783 509.374 87.3628 509.482 87.9558 509.323C88.5488 509.164 88.9789 509.38 88.9114 509.803C88.8387 510.26 87.9134 510.348 86.6391 510.02C84.2083 509.395 83.6698 509.42 84.2648 510.131C84.4917 510.402 82.7596 510.914 80.4157 511.269C78.0717 511.623 75.9284 512.118 75.6526 512.367C75.3768 512.616 75.0187 512.344 74.8567 511.76C74.633 510.956 75.0543 510.673 76.6056 510.585C77.7297 510.522 78.4003 510.259 78.0961 510.001C76.8535 508.946 74.1653 510.056 73.8038 511.774C73.4907 513.261 73.2285 513.422 71.8038 512.998C70.8676 512.719 70.3958 512.786 70.7041 513.155C71.0008 513.51 70.8512 513.905 70.3718 514.034C69.8921 514.162 69.5522 513.937 69.6164 513.534C69.6804 513.131 69.2953 512.705 68.761 512.588C67.4015 512.289 67.1917 512.414 67.81 513.152C68.1088 513.51 67.7938 513.935 67.0981 514.115C66.192 514.349 66.0028 514.212 66.4073 513.614C67.198 512.446 65.8395 511.969 64.6829 513.009C63.2722 514.277 55.9461 515.591 56.1128 514.546C56.2057 513.962 55.6139 514.024 54.2879 514.737C52.8801 515.494 52.4953 515.52 52.9269 514.83C53.4065 514.063 53.234 513.944 52.0745 514.245C51.2743 514.451 50.3431 514.291 50.0037 513.886C49.5735 513.372 49.2834 513.599 49.0464 514.633C48.8213 515.615 48.2178 516.121 47.2628 516.129C46.4249 516.137 45.8169 516.545 45.8145 517.107C45.8107 517.832 45.071 518.087 42.8407 518.133C40.9978 518.171 39.7039 518.517 39.4291 519.047C39.1848 519.517 38.4296 519.765 37.7446 519.6C35.7776 519.126 33.3436 519.887 34.0661 520.75C34.4913 521.258 34.2842 521.46 33.409 521.392C32.7061 521.336 32.3008 521.494 32.508 521.742C32.7151 521.99 31.9274 522.432 30.7568 522.726C29.5868 523.021 28.5824 523.096 28.5259 522.895C28.47 522.695 27.6948 522.726 26.8054 522.964C25.9159 523.202 25.2566 523.644 25.3402 523.945C25.4238 524.245 24.9928 524.626 24.3823 524.789C23.7718 524.953 23.3262 524.748 23.3922 524.334C23.4578 523.921 22.7957 523.593 21.9206 523.606C17.0863 523.677 15.9536 523.855 16.4637 524.465C17.4814 525.681 11.3423 526.108 9.34042 524.96C7.30122 523.791 1.67453 524.482 1.71639 525.897C1.74903 526.997 -4.03131 527.899 -6.16581 527.128C-7.71582 526.567 -8.00874 526.65 -8.43973 527.774C-8.85027 528.841 -9.45244 529.051 -11.9507 528.999C-13.6091 528.965 -15.1877 528.672 -15.4587 528.349C-15.7296 528.025 -16.3599 527.875 -16.8596 528.015C-17.6447 528.24 -17.6313 528.342 -16.7539 528.795C-16.0117 529.178 -16.2095 529.306 -17.4904 529.271C-18.4535 529.245 -19.5513 528.999 -19.9301 528.725C-20.8824 528.036 -22.206 528.474 -21.5481 529.26C-21.2187 529.653 -22.0129 530.164 -23.6077 530.584C-25.5986 531.108 -26.0655 531.035 -25.6119 530.269C-25.1369 529.467 -25.2396 529.406 -26.1347 529.956C-26.8302 530.384 -27.5436 530.262 -28.0339 529.632C-28.4967 529.037 -29.206 528.889 -29.7609 529.271C-30.2787 529.629 -32.2593 529.889 -34.1623 529.85C-36.0651 529.811 -37.3122 529.666 -36.9334 529.529C-35.7068 529.083 -37.1431 528.142 -38.8763 528.256C-39.8701 528.321 -40.3484 528.618 -40.0426 528.985C-39.729 529.359 -40.1399 529.562 -41.0886 529.5C-41.9482 529.443 -42.5713 529.686 -42.4732 530.039C-42.375 530.393 -42.9833 530.687 -43.8251 530.695C-44.9515 530.704 -45.1785 530.92 -44.6846 531.51C-44.1912 532.099 -44.3604 532.261 -45.325 532.122C-46.0736 532.014 -46.8673 532.4 -47.1748 533.022C-47.6063 533.894 -47.7759 533.885 -48.0294 532.973C-48.2742 532.092 -48.7832 532.024 -50.2849 532.673C-51.3517 533.133 -51.8491 533.219 -51.3908 532.862C-50.9323 532.505 -50.6232 531.976 -50.7039 531.686C-50.8795 531.054 -54.8921 532.361 -56.4363 533.553C-57.2173 534.156 -57.5608 534.111 -57.6391 533.393C-57.8037 531.886 -59.573 532.135 -60.1955 533.753C-60.4956 534.532 -60.8313 534.844 -60.942 534.446C-61.0526 534.048 -61.9333 533.701 -62.899 533.675C-63.9398 533.647 -64.5978 533.269 -64.5148 532.747C-64.4196 532.149 -64.9067 532.177 -66.0368 532.836C-68.1801 534.084 -73.4592 534.58 -72.703 533.462C-72.0607 532.513 -72.4699 532.486 -75.7512 533.264C-77.0963 533.583 -78.8502 533.719 -79.6491 533.567C-80.6646 533.374 -80.9233 533.504 -80.5084 534C-80.1257 534.457 -80.4578 534.834 -81.4437 535.063C-82.7741 535.372 -82.8541 535.302 -82.0608 534.529C-81.2233 533.712 -81.2378 533.618 -82.2391 533.371C-82.8383 533.223 -83.8544 533.455 -84.4969 533.886C-85.1394 534.317 -86.7097 534.402 -87.9866 534.073C-89.2634 533.745 -90.5951 533.741 -90.946 534.063C-91.297 534.386 -91.6708 534.339 -91.7766 533.958C-91.9857 533.206 -94.6199 534.154 -95.3869 535.257C-95.6473 535.632 -95.9568 535.59 -96.0749 535.165C-96.193 534.74 -97.2302 534.645 -98.38 534.953C-99.6185 535.285 -100.885 535.124 -101.487 534.559C-102.133 533.954 -102.919 533.884 -103.639 534.367C-104.422 534.893 -104.862 534.811 -105.058 534.105C-105.398 532.879 -108.037 532.756 -108.494 533.944C-108.7 534.479 -109.179 534.302 -109.817 533.455C-110.629 532.376 -110.66 532.009 -109.982 531.488C-109.524 531.137 -109.911 531.153 -110.843 531.526C-112.521 532.197 -113.369 531.628 -112.267 530.571C-111.758 530.082 -113.348 530.021 -114.295 530.493C-114.494 530.592 -114.655 530.091 -114.652 529.379C-114.646 528.36 -114.865 528.237 -115.682 528.8C-116.253 529.194 -116.758 529.298 -116.806 529.032C-117.049 527.659 -117.588 526.774 -118.097 526.91C-118.411 526.995 -118.381 527.427 -118.03 527.872C-117.68 528.317 -118.067 528.156 -118.89 527.515C-119.714 526.873 -120.356 526.106 -120.318 525.809C-120.28 525.512 -120.592 525.214 -121.011 525.145C-121.93 524.996 -123.363 520.328 -122.787 519.36C-122.556 518.974 -122.851 518.792 -123.463 518.942C-124.423 519.181 -124.426 519.066 -123.481 517.955C-122.896 517.266 -122.489 516.384 -122.578 515.997C-122.668 515.61 -122.377 514.349 -121.933 513.198C-121.28 511.499 -121.304 511.02 -122.059 510.66C-122.805 510.305 -122.804 510.164 -122.051 509.953C-121.534 509.805 -121.247 509.196 -121.415 508.595C-121.582 507.993 -121.446 507.427 -121.114 507.338C-120.696 507.226 -120.81 506.893 -121.484 506.262C-122.158 505.63 -122.272 505.297 -121.854 505.185C-121.521 505.096 -121.34 504.694 -121.452 504.293C-121.563 503.892 -122.382 503.759 -123.272 503.997C-124.26 504.262 -124.994 504.052 -125.159 503.458C-125.322 502.872 -126.64 502.473 -128.479 502.454C-130.156 502.436 -132.591 502.351 -133.889 502.264C-135.188 502.178 -137.177 502.162 -138.309 502.229C-139.442 502.295 -141.152 502.181 -142.108 501.974C-143.065 501.768 -145.464 501.881 -147.44 502.226C-151.725 502.973 -153.119 502.191 -153.214 498.987C-153.262 497.382 -152.829 496.496 -151.602 495.69C-149.585 494.364 -148.186 493.585 -147.125 493.197C-146.505 492.969 -146.522 492.819 -147.206 492.493C-147.685 492.265 -148.131 491.597 -148.198 491.007C-148.29 490.206 -148.854 490.121 -150.433 490.67C-153.319 491.672 -155.251 491.564 -155.068 490.412C-154.973 489.818 -155.168 489.707 -155.604 490.109C-155.996 490.469 -156.729 490.218 -157.315 489.525C-158.118 488.573 -158.193 488.27 -157.662 488.124C-157.289 488.024 -157.937 487.327 -159.101 486.578C-160.356 485.771 -160.903 485.122 -160.447 484.983C-159.877 484.812 -160.008 484.561 -160.948 484.029C-162.14 483.355 -162.132 483.252 -160.825 482.375C-159.752 481.655 -159.651 481.338 -160.387 480.998C-161.148 480.647 -161.258 480.336 -160.926 479.472C-160.696 478.875 -160.633 477.937 -160.786 477.386C-161.105 476.24 -160.526 474.465 -159.53 473.531C-159.043 473.075 -159.057 472.931 -159.578 473.026C-160.589 473.211 -159.582 470.614 -158.534 470.333C-157.441 470.04 -156.545 466.926 -157.229 465.8C-157.774 464.902 -155.804 463.214 -150.403 459.951C-149.642 459.491 -149.241 458.85 -149.512 458.525C-149.784 458.201 -149.607 457.441 -149.121 456.836C-148.634 456.231 -148.464 455.463 -148.744 455.128C-149.026 454.792 -148.458 454.302 -147.472 454.031C-146.139 453.665 -145.943 453.423 -146.693 453.067C-147.566 452.652 -147.617 452.393 -147.093 451.03C-146.569 449.668 -146.389 449.591 -145.677 450.426C-145.136 451.062 -144.944 451.076 -145.107 450.469C-145.499 449.01 -145.894 448.507 -146.354 448.885C-146.589 449.079 -147.005 448.992 -147.276 448.692C-147.548 448.392 -149.283 447.941 -151.131 447.692C-153.2 447.412 -154.605 446.828 -154.787 446.173C-154.95 445.587 -154.759 445.021 -154.364 444.915C-153.922 444.797 -153.884 443.864 -154.265 442.491C-154.607 441.264 -155.059 440.508 -155.27 440.812C-155.481 441.116 -155.993 440.744 -156.407 439.987C-156.821 439.229 -157.363 438.664 -157.612 438.731C-157.861 438.797 -158.117 438.2 -158.181 437.404C-158.245 436.607 -158.625 435.807 -159.02 435.623C-160.088 435.13 -160.249 433.95 -159.283 433.691C-158.821 433.568 -158.684 433.178 -158.979 432.826C-159.275 432.472 -158.977 432.042 -158.315 431.864C-157.655 431.687 -157.333 431.37 -157.599 431.161C-157.866 430.95 -157.577 429.889 -156.957 428.802C-156.112 427.322 -156.032 426.566 -156.636 425.788C-157.184 425.083 -157.263 424.388 -156.883 423.619C-156.561 422.967 -156.618 421.947 -157.018 421.216C-157.436 420.451 -157.451 419.875 -157.055 419.769C-156.693 419.672 -157.116 419.101 -157.995 418.501L-159.594 417.409L-157.686 416.338C-155.919 415.345 -154.744 413.671 -155.048 412.578C-155.119 412.325 -155.399 412.438 -155.671 412.83C-155.943 413.222 -155.907 412.351 -155.59 410.895L-155.014 408.248L-156.28 408.525C-156.977 408.675 -157.287 408.554 -156.971 408.251C-156.655 407.948 -156.617 407.437 -156.887 407.115C-157.156 406.792 -156.945 406.385 -156.418 406.21C-155.8 406.003 -155.75 405.822 -156.277 405.697C-157.24 405.468 -155.281 402.832 -153.867 402.453C-153.297 402.3 -153.113 401.533 -153.364 400.359C-153.623 399.143 -154.035 398.579 -154.561 398.72C-155.096 398.863 -155.57 398.195 -155.979 396.723C-156.427 395.111 -156.972 394.42 -157.99 394.176C-159.089 393.912 -159.184 393.776 -158.438 393.537C-157.918 393.37 -157.488 392.704 -157.485 392.056C-157.481 391.409 -157.111 390.78 -156.662 390.66C-155.503 390.35 -157.47 388.543 -158.685 388.801C-159.271 388.926 -159.214 388.644 -158.516 387.978C-157.933 387.422 -157.7 386.676 -157.997 386.321C-158.294 385.966 -158.234 385.594 -157.864 385.495C-157.493 385.396 -157.794 384.959 -158.534 384.524C-159.566 383.917 -159.693 383.672 -159.082 383.47C-158.472 383.265 -158.599 383.023 -159.631 382.416C-160.961 381.633 -160.964 381.622 -159.943 381.294C-158.942 380.973 -158.949 380.952 -160.163 380.624C-160.852 380.438 -161.119 380.182 -160.756 380.054C-160.394 379.925 -160.233 379.33 -160.4 378.728C-160.567 378.126 -160.432 377.561 -160.099 377.471C-159.676 377.358 -159.739 377.08 -160.307 376.547C-161.36 375.56 -161.632 374.493 -161.046 373.65C-160.726 373.19 -161.179 372.354 -162.484 371.003C-163.913 369.524 -164.261 368.843 -163.875 368.288C-163.147 367.24 -164.324 366.064 -165.735 366.428C-166.606 366.652 -166.772 366.515 -166.362 365.91C-166.056 365.457 -166.059 364.976 -166.369 364.842C-167.265 364.454 -174.032 365.28 -176.513 366.08C-177.778 366.488 -178.865 366.475 -178.983 366.049C-179.099 365.631 -179.811 365.581 -180.564 365.937C-181.428 366.346 -182.464 366.167 -183.371 365.452C-184.446 364.603 -185.241 364.544 -186.534 365.215C-187.553 365.744 -188.209 365.796 -188.137 365.341C-188.065 364.888 -189.586 364.992 -191.836 365.595C-194.73 366.37 -195.807 366.374 -196.271 365.611C-196.607 365.057 -197.049 364.844 -197.253 365.137C-197.457 365.43 -197.727 365.297 -197.854 364.839C-198.005 364.296 -198.598 364.325 -199.569 364.923C-200.434 365.456 -201.136 365.537 -201.252 365.118C-201.362 364.722 -201.862 364.681 -202.362 365.026C-203.027 365.484 -203.499 365.184 -204.121 363.908C-204.596 362.936 -205.57 362.086 -206.323 361.989C-208.19 361.747 -210.176 360.274 -210.014 359.253C-209.931 358.736 -210.174 358.676 -210.633 359.099C-211.048 359.481 -212.288 359.628 -213.389 359.426C-215.369 359.062 -215.377 359.049 -214.173 358.226C-213.168 357.54 -213.51 357.401 -216.132 357.43L-219.308 357.465L-216.771 356.692C-215.376 356.267 -214.32 355.611 -214.425 355.235C-214.529 354.86 -215.383 354.951 -216.322 355.438C-217.261 355.925 -218.274 356.032 -218.574 355.673C-218.901 355.283 -218.659 355.058 -217.971 355.112C-217.34 355.162 -216.415 354.528 -215.916 353.704C-215.152 352.444 -215.161 352.248 -215.969 352.464C-216.55 352.62 -216.871 352.353 -216.781 351.789C-216.676 351.132 -217.137 351.123 -218.347 351.76C-219.291 352.257 -220.626 352.512 -221.315 352.327C-222.283 352.067 -222.051 351.84 -220.29 351.325C-219.038 350.958 -218.104 350.332 -218.216 349.931C-218.327 349.529 -218.933 349.339 -219.563 349.508C-220.518 349.764 -220.647 349.605 -220.34 348.54C-220.138 347.839 -220.186 347.318 -220.446 347.381C-220.707 347.442 -220.644 347.08 -220.307 346.572C-219.863 345.901 -219.889 345.697 -220.404 345.826C-220.795 345.922 -221.054 345.635 -220.982 345.185C-220.911 344.735 -221.073 344.425 -221.343 344.498C-221.618 344.571 -221.885 343.441 -221.952 341.917C-222.018 340.426 -221.873 339.153 -221.632 339.088C-221.391 339.023 -221.434 338.682 -221.729 338.33C-222.024 337.978 -221.98 337.614 -221.631 337.52C-221.246 337.417 -221.297 336.662 -221.762 335.595C-222.244 334.489 -222.278 333.774 -221.86 333.662C-221.493 333.564 -221.322 332.46 -221.478 331.208C-221.635 329.957 -221.49 328.86 -221.157 328.771C-220.319 328.546 -216.498 324.637 -214.59 322.054C-213.726 320.884 -213.745 320.787 -215.077 319.51C-217 317.668 -217.307 314.686 -215.686 313.598C-214.683 312.925 -214.62 312.65 -215.387 312.278C-216.047 311.959 -215.794 311.804 -214.593 311.794C-213.112 311.782 -212.814 311.465 -212.724 309.812C-212.612 307.727 -212.985 306.399 -214.031 305.157C-214.402 304.717 -214.36 303.973 -213.927 303.389C-213.235 302.453 -213.26 302.396 -214.28 302.597C-215.378 302.812 -215.378 302.812 -214.466 301.926C-213.964 301.438 -212.776 301.029 -211.825 301.017C-210.194 300.997 -210.168 300.939 -211.364 299.996C-212.559 299.053 -212.594 298.877 -211.98 296.901C-211.501 295.362 -211.091 294.961 -210.432 295.391C-209.771 295.822 -209.441 295.452 -209.171 293.975C-208.758 291.714 -209.698 289.693 -211.063 289.904C-211.565 289.982 -211.186 289.605 -210.22 289.066C-209.054 288.414 -208.622 287.749 -208.932 287.082C-209.28 286.334 -209.035 286.338 -207.972 287.097C-207.042 287.76 -206.497 287.811 -206.406 287.243C-206.33 286.763 -205.616 286.191 -204.82 285.971C-203.95 285.729 -203.691 285.418 -204.172 285.189C-205.152 284.72 -204.912 283.264 -203.806 282.968C-203.314 282.836 -203.193 282.112 -203.496 281.121C-203.773 280.225 -203.794 279.437 -203.548 279.371C-203.302 279.305 -203.192 278.923 -203.304 278.522C-203.415 278.121 -203.87 277.89 -204.315 278.009C-204.76 278.128 -205.225 277.862 -205.348 277.418C-205.471 276.974 -205.859 276.874 -206.21 277.196C-206.56 277.519 -207.919 277.552 -209.23 277.27L-211.613 276.757L-209.619 276.637C-207.925 276.536 -207.819 276.434 -208.912 275.963C-210.19 275.412 -210.193 275.402 -209.299 274.573C-208.803 274.114 -210.021 274.378 -212.004 275.16C-214.668 276.211 -215.57 276.334 -215.458 275.633C-215.368 275.068 -215.648 274.775 -216.147 274.909C-216.61 275.033 -217.079 274.806 -217.191 274.405C-217.302 274.003 -217.121 273.602 -216.788 273.513C-216.394 273.407 -216.555 273.002 -217.252 272.348C-218.202 271.457 -218.171 271.368 -216.972 271.541C-215.943 271.689 -215.762 271.506 -216.209 270.77C-216.923 269.595 -213.544 267.073 -209.279 265.599C-207.715 265.058 -206.371 264.267 -206.293 263.841C-206.214 263.415 -205.297 262.63 -204.255 262.096C-203.159 261.535 -202.039 260.192 -201.598 258.912C-201.179 257.693 -200.304 256.554 -199.654 256.38C-199.003 256.206 -198.677 255.817 -198.929 255.515C-199.181 255.214 -198.689 254.933 -197.834 254.891C-196.753 254.838 -196.557 254.665 -197.189 254.322C-197.922 253.925 -197.949 253.692 -197.326 253.119C-196.902 252.729 -196.282 252.534 -195.95 252.688C-195.617 252.841 -195.493 252.435 -195.673 251.786C-195.854 251.137 -195.723 250.734 -195.383 250.891C-195.043 251.048 -194.707 250.819 -194.638 250.382C-194.499 249.515 -196.791 249.27 -202.972 249.49C-209.18 249.711 -209.657 249.661 -209.522 248.811C-209.452 248.374 -209.788 248.122 -210.268 248.25C-210.747 248.379 -211.081 248.115 -211.009 247.665C-210.938 247.215 -210.452 246.732 -209.93 246.592C-209.408 246.452 -208.681 245.375 -208.316 244.2C-207.641 242.032 -207.257 241.683 -205.184 241.353C-203.613 241.103 -202.864 238.646 -204.265 238.338C-204.81 238.218 -205.204 237.791 -205.139 237.387C-205.075 236.984 -205.522 236.788 -206.133 236.952C-206.743 237.115 -207.322 236.964 -207.419 236.615C-207.516 236.266 -208.492 236.022 -209.588 236.072C-210.684 236.122 -212.652 235.37 -213.962 234.401C-215.272 233.433 -216.782 232.756 -217.319 232.898C-217.856 233.042 -218.241 232.814 -218.174 232.396C-218.108 231.978 -218.601 231.557 -219.269 231.461C-219.938 231.364 -220.579 230.944 -220.695 230.527C-220.811 230.111 -221.65 229.312 -222.559 228.753C-224.33 227.664 -225.153 224.84 -224.238 222.99C-223.505 221.508 -218.112 216.646 -216.817 216.298C-216.181 216.128 -215.554 215.71 -215.423 215.369C-215.291 215.028 -214.262 214.59 -213.135 214.396C-212.008 214.201 -209.873 213.35 -208.39 212.504C-206.907 211.658 -201.958 209.769 -197.392 208.308C-190.095 205.973 -188.103 205.029 -185.054 202.458C-184.667 202.132 -184.029 201.85 -183.635 201.831C-183.242 201.813 -182.996 201.525 -183.089 201.192C-183.181 200.859 -182.383 200.394 -181.314 200.159C-179.881 199.843 -179.236 199.216 -178.855 197.765C-178.571 196.683 -177.828 195.661 -177.204 195.494C-176.579 195.327 -176.179 194.779 -176.314 194.276C-176.489 193.61 -176.355 193.601 -175.812 194.238C-175.328 194.805 -174.421 194.827 -173.238 194.299C-172.233 193.852 -171.446 193.706 -171.488 193.975C-171.531 194.244 -170.346 194.715 -168.854 195.02C-167.215 195.357 -166.093 195.266 -166.017 194.792C-165.849 193.734 -163.03 190.997 -161.828 190.725C-161.298 190.601 -160.106 190.032 -159.182 189.454C-157.96 188.689 -157.543 188.66 -157.653 189.349C-157.754 189.986 -157.265 190.151 -156.155 189.854C-155.048 189.557 -154.605 189.052 -154.809 188.317C-154.977 187.715 -154.975 187.186 -154.806 187.141C-154.636 187.095 -153.997 187.453 -153.385 187.936C-152.081 188.964 -148.653 188.25 -148.692 186.958C-148.712 186.291 -148.372 186.2 -147.336 186.595C-146.229 187.015 -145.847 186.838 -145.41 185.703C-145.026 184.706 -144.282 184.26 -142.893 184.197C-141.807 184.147 -140.999 183.822 -141.096 183.474C-141.326 182.645 -139.25 181.608 -138.044 181.949C-137.526 182.096 -136.35 182.446 -135.431 182.728C-133.324 183.376 -126.622 181.017 -124.424 178.854C-123.548 177.993 -121.747 177.107 -120.421 176.887C-119.095 176.666 -117.698 176.063 -117.318 175.547C-116.708 174.72 -116.757 174.634 -117.723 174.828C-118.711 175.028 -118.714 174.948 -117.756 174.033C-117.102 173.41 -116.259 173.182 -115.573 173.439C-114.894 173.697 -114.219 173.519 -113.858 172.989C-113.069 171.824 -112.367 171.657 -112.528 172.674C-112.614 173.214 -112.258 173.125 -111.477 172.411C-110.71 171.711 -110.226 171.582 -110.098 172.042C-109.99 172.433 -109.158 172.554 -108.252 172.311C-107.345 172.068 -106.814 171.617 -107.072 171.309C-107.33 171 -106.523 170.926 -105.277 171.143C-103.376 171.475 -102.813 171.3 -101.775 170.053C-101.095 169.235 -99.5132 168.35 -98.2605 168.084C-94.5746 167.303 -94.0167 167.007 -94.697 166.194C-95.1243 165.684 -94.9814 165.521 -94.2472 165.682C-93.6547 165.812 -93.0067 165.88 -92.8068 165.833C-92.6065 165.788 -92.7142 166.2 -93.0334 166.751C-93.524 167.586 -93.4774 167.638 -92.7562 167.057C-92.2793 166.673 -91.3724 166.185 -90.7406 165.973C-89.6843 165.618 -89.7133 165.569 -91.1021 165.364C-92.2965 165.188 -92.0342 164.97 -89.8463 164.322C-88.3247 163.872 -86.718 163.169 -86.275 162.762C-85.7259 162.256 -85.5183 162.325 -85.6222 162.979C-85.7236 163.615 -85.3111 163.813 -84.3952 163.567C-83.6365 163.364 -83.0886 162.935 -83.1777 162.614C-83.2668 162.294 -82.4535 161.938 -81.3701 161.824C-80.1885 161.7 -79.4882 161.301 -79.6205 160.825C-79.7705 160.286 -79.3572 160.138 -78.3218 160.362C-77.4865 160.542 -76.7531 160.376 -76.6921 159.993C-76.631 159.609 -75.7266 158.844 -74.6823 158.293C-73.6379 157.741 -72.2186 156.978 -71.5281 156.596C-70.8376 156.215 -69.9325 155.72 -69.5168 155.497C-68.2116 154.796 -63.3256 154.848 -63.1262 155.565C-63.0216 155.942 -62.5721 156.152 -62.1274 156.033C-61.6826 155.914 -61.4099 155.489 -61.5215 155.087C-61.633 154.686 -61.3461 154.256 -60.8838 154.132C-60.4216 154.008 -60.0954 154.234 -60.1589 154.632C-60.3415 155.778 -57.4403 155.451 -57.1052 154.288C-56.6547 152.724 -51.3844 151.855 -50.3577 153.175C-49.8444 153.835 -48.8318 154.038 -47.6437 153.72C-46.6011 153.441 -45.1846 153.426 -44.4956 153.688C-43.6321 154.016 -43.3081 153.929 -43.4527 153.409C-43.5682 152.993 -42.7538 152.407 -41.6429 152.105C-37.9092 151.091 -34.0969 149.112 -35.0274 148.668C-35.5795 148.405 -35.0969 148.055 -33.7355 147.732C-31.8386 147.282 -31.7126 147.337 -32.7444 148.172C-33.9151 149.119 -31.3074 148.297 -22.6257 144.981C-16.9723 142.823 -16.6992 142.753 -15.3679 143.12C-14.3979 143.387 -14.2942 143.233 -14.839 142.337C-15.3569 141.484 -15.2243 141.186 -14.2779 141.071C-13.5965 140.988 -12.7693 141.2 -12.4399 141.543C-12.0707 141.928 -11.9367 141.811 -12.0901 141.239C-12.2511 140.626 -11.8592 140.342 -10.9287 140.403C-10.1528 140.454 -9.45597 140.107 -9.38031 139.631C-9.29864 139.118 -8.27248 138.688 -6.85967 138.574C-5.54893 138.468 -2.86604 137.612 -0.897581 136.671C1.30237 135.62 4.10276 134.853 6.36922 134.682C8.39745 134.529 11.8134 134.056 13.96 133.631C16.1067 133.206 18.4061 133.039 19.0697 133.259C19.7334 133.48 20.7448 133.47 21.3175 133.238C24.8624 131.803 33.0173 128.819 33.9357 128.621C34.5371 128.492 36.1275 128.118 37.4703 127.792C38.8128 127.465 40.7395 127.317 41.7506 127.461C42.762 127.605 44.5865 127.605 45.8052 127.461C49.5331 127.019 52.5337 126.969 53.8489 127.327C54.9355 127.622 58.359 127.472 61.002 127.013C61.4575 126.933 62.2475 126.962 62.7569 127.075C63.912 127.333 64.5884 127.224 74.5811 125.173C79.0496 124.255 83.2469 123.71 83.9086 123.962C84.5701 124.213 85.6799 124.266 86.3747 124.08C87.0694 123.894 88.3021 124.099 89.1142 124.536C89.9262 124.973 90.7743 125.237 90.9988 125.122C91.648 124.791 94.1097 125.276 94.2964 125.772C94.982 127.595 95.665 128.727 96.9977 130.249C98.504 131.969 98.6029 131.973 102.627 130.483C107.878 128.539 113.324 127.742 113.318 128.92C113.311 130.155 115.901 131.228 116.927 130.415C117.52 129.946 117.562 129.241 117.065 128.1C116.601 127.035 116.607 126.224 117.083 125.786C117.59 125.319 117.932 125.526 118.191 126.458C118.397 127.199 119.049 128.12 119.639 128.505C120.515 129.076 120.833 128.936 121.357 127.749C121.711 126.948 122.285 126.216 122.632 126.123C122.98 126.03 123.127 125.462 122.96 124.86C122.541 123.354 123.497 123.243 125.624 124.551C126.945 125.363 127.894 125.416 129.247 124.754C130.255 124.261 130.819 124.14 130.5 124.485C130.059 124.962 130.22 125.291 131.169 125.85C131.856 126.256 132.783 126.495 133.23 126.383C133.952 126.203 133.929 126.12 133.027 125.654C132.268 125.262 132.405 125.146 133.57 125.195C135.3 125.267 136.868 123.67 137.574 121.116C137.958 119.726 138.275 119.525 139.409 119.956C141.104 120.6 143.263 120.093 142.535 119.223C142.24 118.871 142.502 118.448 143.116 118.283C144.195 117.994 144.64 117.601 146.735 115.084C147.881 113.707 150.339 112.914 150.596 113.838C150.695 114.194 151.838 114.792 153.137 115.168C154.436 115.543 156.558 116.25 157.852 116.737C160.668 117.799 160.954 117.763 160.574 116.395C160.413 115.817 160.497 115.035 160.76 114.657C161.043 114.249 161.18 114.327 161.097 114.85C161.001 115.451 162.131 115.374 164.649 114.607C166.68 113.99 168.211 113.327 168.05 113.135C167.57 112.56 170.056 112.194 171.082 112.688C171.778 113.022 171.871 112.88 171.43 112.154C170.973 111.403 171.292 111.021 172.753 110.568C174.016 110.177 174.846 109.363 175.167 108.201C175.793 105.935 175.993 105.916 177.02 108.023C177.486 108.976 178.199 109.667 178.606 109.558C179.014 109.449 179.581 109.745 179.868 110.218C180.47 111.208 184.002 110.241 184.713 108.892C184.969 108.407 185.532 107.877 185.964 107.714C186.397 107.551 187.645 106.883 188.738 106.231C189.846 105.569 191.614 105.116 192.733 105.207C194.121 105.319 194.787 105.079 194.89 104.429C194.972 103.912 196.65 102.867 198.617 102.106C201.377 101.04 202.393 100.929 203.06 101.623C204.002 102.602 207.201 102.846 206.943 101.919C206.856 101.604 208.71 101.005 211.062 100.587C213.415 100.168 215.948 99.6689 216.691 99.4776C217.435 99.2873 218.42 99.3748 218.881 99.6742C219.433 100.033 220.022 99.8422 220.608 99.1147C221.211 98.3653 221.565 98.256 221.709 98.7734C221.955 99.6611 225.987 97.8409 226.682 96.5283C227.51 94.9634 234.117 92.9129 236.726 93.411C238.446 93.7394 239.638 93.5448 240.741 92.7548C241.662 92.0952 243.474 91.6078 245.132 91.5691C246.775 91.5354 248.239 91.1447 248.632 90.6402C249.003 90.1588 250.18 89.4277 251.247 89.0158C252.315 88.6037 253.176 87.8561 253.161 87.3543C253.146 86.8526 253.401 86.5654 253.728 86.716C254.054 86.8666 254.709 86.5092 255.182 85.9216C255.97 84.9432 257.841 85.1322 259.38 86.3462C259.989 86.8264 266.021 85.2321 265.855 84.6344C265.771 84.3318 266.585 83.983 267.664 83.8601C268.896 83.7195 270.269 82.8737 271.354 81.5877C273.234 79.358 273.787 78.9857 273.615 80.0666C273.553 80.4518 274.06 80.4516 274.739 80.0659C275.419 79.6801 275.875 78.9916 275.753 78.5356C275.633 78.0791 275.896 78.1347 276.342 78.6581C276.893 79.3052 278.219 79.373 280.489 78.87C282.324 78.4635 284.2 78.3735 284.657 78.6702C285.115 78.9672 286.514 79.1468 287.767 79.0699C289.286 78.9764 289.627 78.8155 288.791 78.5862C287.735 78.2966 287.856 78.0754 289.559 77.1822C294.058 74.8233 296.036 74.1704 297.269 74.6386C298.258 75.0142 298.565 74.8751 298.569 74.0499C298.572 73.4556 298.918 72.8775 299.337 72.7652C299.756 72.653 300.049 72.8683 299.99 73.2436C299.93 73.619 300.139 73.8566 300.452 73.7729C300.766 73.6888 300.931 73.2915 300.82 72.8905C300.504 71.7527 302.528 71.5123 303.641 72.5556C304.19 73.071 305.025 73.2885 305.495 73.0388C305.965 72.7891 306.874 72.9267 307.515 73.3446C308.524 74.0023 308.752 73.8463 309.211 72.1841C309.625 70.6856 310.093 70.2868 311.34 70.3685C312.219 70.4261 312.889 70.7816 312.829 71.1586C312.769 71.5355 313.33 72.2797 314.076 72.8122C314.966 73.447 315.481 73.4801 315.572 72.9082C315.648 72.4283 316.196 71.9061 316.789 71.7472C317.382 71.5883 317.812 71.8013 317.746 72.2206C317.679 72.6399 317.975 73.1441 318.402 73.3416C318.888 73.5657 318.948 73.4228 318.561 72.9612C318.199 72.528 318.277 72.1324 318.751 72.0054C319.196 71.8862 319.801 72.077 320.096 72.429C320.926 73.4209 323.147 72.5358 323.154 71.2107C323.159 70.3676 323.868 69.8749 325.614 69.5016C326.964 69.2127 328.019 69.2867 327.958 69.6645C327.8 70.6604 329.788 69.9841 330.205 68.9004C330.702 67.6093 334.921 66.2603 335.943 67.0658C336.867 67.7949 342.454 66.4202 342.211 65.5237C341.93 64.49 348.553 63.2165 350.517 63.9264C351.592 64.3151 352.919 64.2844 353.51 63.8571C354.321 63.2696 354.432 63.3126 353.982 64.0393C353.659 64.5617 353.662 65.2007 353.99 65.4592C354.318 65.7178 354.745 65.2383 354.939 64.388C355.207 63.217 355.924 62.7099 357.924 62.275C362.572 61.2645 363.828 61.2166 364.286 62.0318C364.532 62.4708 364.904 62.5849 365.112 62.2855C365.32 61.9861 365.633 62.2529 365.807 62.8783C365.981 63.5038 366.54 63.876 367.05 63.7053C367.559 63.5317 367.645 63.3134 367.239 63.2138C365.907 62.8866 367.684 59.7278 369.82 58.627C370.933 58.0531 371.684 57.3926 371.489 57.1591C371.293 56.9258 371.739 56.4971 372.479 56.2068C373.22 55.9164 374.051 55.2231 374.326 54.6658C374.602 54.1085 374.902 53.9226 374.994 54.2525C375.086 54.5827 375.342 54.3806 375.564 53.8038C375.786 53.227 376.431 52.6311 376.996 52.4796C377.659 52.302 377.819 51.8668 377.447 51.2547C375.87 48.6593 381.875 48.5279 385.12 51.0868C385.755 51.5883 387.917 50.881 387.451 50.3244C387.208 50.0338 387.388 49.6955 387.85 49.5716C388.312 49.4477 388.602 49.0282 388.494 48.6397C388.386 48.2509 388.714 48.0246 389.223 48.1364C389.732 48.2483 390.047 47.9758 389.924 47.5323C389.801 47.088 390.32 46.5583 391.079 46.355C391.862 46.1454 392.402 46.34 392.328 46.8042C392.257 47.2546 392.59 47.5179 393.07 47.3893C393.55 47.2608 393.884 47.5242 393.812 47.9744C393.737 48.4422 394.299 48.6276 395.124 48.4067C396.296 48.0927 396.439 47.7636 395.886 46.6514C395.297 45.4645 395.538 45.126 397.706 44.105C399.082 43.4572 400.01 42.6924 399.77 42.4051C398.937 41.4107 402.493 38.3447 405.088 37.8184C406.493 37.5336 409.039 36.9862 410.745 36.6021C412.452 36.2186 413.788 36.0587 413.716 36.2481C413.643 36.4372 414.087 36.9894 414.703 37.475C415.7 38.262 415.894 38.1495 416.488 36.4371C416.967 35.0544 417.58 34.5194 418.675 34.5273C419.513 34.5331 420.975 34.5211 421.925 34.5003C423.381 34.4685 423.416 34.4287 422.144 34.2461C420.646 34.0311 420.647 34.0232 422.212 33.0992C423.079 32.5872 424.33 32.1649 424.992 32.1602C425.654 32.1555 426.118 31.8724 426.025 31.537C425.931 31.1986 427.024 30.6772 428.454 30.3779C429.884 30.0785 431.542 29.4242 432.138 28.9233C432.826 28.3442 433.174 28.3104 433.091 28.829C433.013 29.3142 433.752 29.4334 434.911 29.1228C435.984 28.8353 436.643 28.3388 436.376 28.0196C436.108 27.7003 436.42 27.4805 437.068 27.5312C437.716 27.5821 438.201 27.9114 438.145 28.2634C438.089 28.6155 438.443 28.9913 438.933 29.099C439.466 29.216 439.626 28.9694 439.331 28.4848C438.425 26.9926 440.217 25.3315 442.264 25.7669C443.775 26.0882 444.295 25.8711 445.149 24.5616C445.723 23.6832 446.626 22.8535 447.157 22.7178C447.925 22.5208 448.006 22.6437 447.549 23.3174C447.107 23.9708 447.431 24.3281 448.97 24.8846C451.168 25.6793 452.422 25.5999 451.68 24.7131C451.417 24.3983 451.798 23.7165 452.528 23.1976L453.854 22.254L452.353 22.063C451.106 21.9043 451.03 21.807 451.903 21.4873C452.482 21.2763 453.271 20.5307 453.657 19.8318C454.336 18.6025 454.324 18.5589 453.285 18.4933C452.694 18.4562 454.033 17.916 456.259 17.2939C460.735 16.0429 463.199 14.6779 462.496 13.8387C462.244 13.5376 462.744 12.8064 463.608 12.2143C465.404 10.9832 468.415 10.5925 468.253 11.6117C468.121 12.439 472.014 12.895 474.261 12.3155C475.508 11.9954 475.741 12.1116 475.271 12.8213C474.79 13.5471 474.963 13.6663 476.077 13.3771C476.857 13.1769 478.367 12.9816 479.433 12.9479C480.9 12.9011 481.122 12.75 480.345 12.3231C479.488 11.8526 479.509 11.7073 480.472 11.4393C481.105 11.2607 481.627 10.5887 481.63 9.94114C481.634 9.29352 482.008 8.66415 482.462 8.54249C482.916 8.42082 483.19 7.97083 483.071 7.54251C482.947 7.09584 482.45 7.08447 481.905 7.51588C480.299 8.78795 480.506 7.0872 482.126 5.70469C485.368 2.93754 488.09 2.20027 491.284 3.22764L491.279 3.23424ZM465.08 8.49602C465.384 8.85921 465.2 9.03971 464.653 8.91863C463.584 8.68383 463.268 8.20671 464.043 7.99894C464.322 7.92417 464.789 8.14779 465.08 8.49588L465.08 8.49602Z" fill="#DCDCDC" fill-opacity="0.22"/>
</svg>
