<svg width="23" height="23" viewBox="0 0 23 23" fill="none" xmlns="http://www.w3.org/2000/svg">
<mask id="path-1-inside-1_165_731" fill="white">
<path fill-rule="evenodd" clip-rule="evenodd" d="M8.28374 0.0125446C8.27008 0.0169688 8.19749 0.0389029 8.12241 0.0613355C7.64658 0.203346 7.58856 0.223348 7.10485 0.412405C7.05707 0.431037 6.99285 0.453345 6.96214 0.461944C6.93143 0.470481 6.9063 0.491418 6.9063 0.508429C6.9063 0.552609 11.4395 5.09639 11.4917 5.10455C11.5448 5.11284 16.0892 0.578655 16.0892 0.517277C16.0892 0.492851 16.0569 0.466804 16.0086 0.452348C15.9642 0.439075 15.8106 0.381747 15.6673 0.32498C15.524 0.268214 15.3564 0.206711 15.295 0.188266C15.2336 0.169884 15.1219 0.135861 15.0468 0.112743C14.7512 0.0217047 14.66 -0.000416411 14.6071 0.00618873C14.5724 0.0104883 13.9963 0.56881 13.0485 1.51634C11.9652 2.59939 11.5318 3.01745 11.4979 3.01184C11.472 3.00754 10.775 2.32827 9.94913 1.50232C8.39927 -0.047587 8.41788 -0.0308874 8.28374 0.0125446ZM4.7843 1.65018C4.68875 1.71761 4.56031 1.80721 4.49888 1.84934C4.27849 2.00044 3.82878 2.37363 3.82878 2.40529C3.82878 2.42891 10.6558 9.28648 11.394 10.0044C11.4662 10.0746 11.5032 10.0947 11.5313 10.0789C11.6084 10.0355 19.1667 2.43881 19.1667 2.40467C19.1667 2.35482 18.4528 1.79575 18.0916 1.56276C18.0007 1.50412 18.3827 1.13666 14.7545 4.77317C12.3984 7.13457 11.554 7.96626 11.5061 7.97237C11.4495 7.97953 11.0414 7.57899 8.24334 4.77012C6.48444 3.00436 5.02566 1.55242 5.00165 1.54363C4.9723 1.53285 4.90113 1.56768 4.7843 1.65018ZM2.33711 3.88185C2.2487 3.97918 1.94368 4.37312 1.82988 4.53694C1.54478 4.9474 1.54062 4.95481 1.56656 5.00348C1.58033 5.0294 3.03315 6.49213 4.79497 8.25396C6.55679 10.0158 7.99832 11.4737 7.99832 11.4937C7.99832 11.5137 6.54649 12.9875 4.77201 14.769C1.33177 18.2229 1.50761 18.0335 1.62277 18.1601C1.64852 18.1884 1.66955 18.2239 1.66955 18.239C1.66955 18.2541 1.67793 18.2702 1.68817 18.2748C1.69841 18.2794 1.74029 18.3336 1.78124 18.3953C1.82219 18.457 1.86438 18.5187 1.87505 18.5324C1.88572 18.5461 1.94715 18.6256 2.01156 18.709C2.28096 19.058 2.37912 19.1676 2.4223 19.1678C2.44973 19.1679 3.85683 17.7755 5.96741 15.6598C10.1491 11.4678 10.0687 11.5491 10.0782 11.5054C10.0859 11.4702 2.48596 3.83237 2.43043 3.81954C2.41374 3.81567 2.37174 3.84371 2.33711 3.88185ZM16.7283 7.64329C14.6296 9.74896 12.9124 11.4856 12.9124 11.5026C12.9124 11.5371 20.5478 19.1929 20.5821 19.1929C20.6361 19.1929 21.4501 18.1074 21.4501 18.0355C21.4501 18.0182 20.0037 16.5529 18.236 14.7794C15.8511 12.3867 15.022 11.5402 15.022 11.4982C15.022 11.4561 15.8497 10.6123 18.236 8.22162C20.0037 6.45069 21.4501 4.98653 21.4501 4.9679C21.4501 4.93543 21.3916 4.83112 21.3387 4.76925C21.3248 4.75304 21.2745 4.68232 21.2267 4.61203C20.9823 4.25255 20.6295 3.81723 20.5814 3.81592C20.5609 3.81536 18.827 5.53768 16.7283 7.64329ZM22.4465 6.90252C22.3739 6.94763 17.8762 11.4723 17.8762 11.5004C17.8762 11.5447 22.4354 16.1088 22.4686 16.0977C22.4976 16.088 22.5275 16.0213 22.6734 15.6411C22.7818 15.3583 22.8222 15.2394 22.8887 15.0055C22.918 14.9027 22.9577 14.7751 22.977 14.722C23.0249 14.5899 23.137 14.7148 21.4764 13.0489C20.3784 11.9474 19.9857 11.5386 19.9857 11.4968C19.9857 11.455 20.3764 11.0501 21.4769 9.95135C23.1294 8.30144 23.0278 8.41422 22.9786 8.28312C22.9591 8.23103 22.9189 8.10434 22.8893 8.00153C22.8213 7.76518 22.713 7.44676 22.6391 7.26624C22.6279 7.23882 22.5892 7.14348 22.553 7.05438C22.4751 6.86239 22.486 6.87803 22.4465 6.90252ZM0.477884 6.97156C0.463985 7.01026 0.436933 7.08117 0.417761 7.12915C0.305952 7.40931 0.205375 7.68822 0.157102 7.85198C0.126823 7.95479 0.0868034 8.08378 0.0681273 8.13862C0.0495133 8.19345 0.0268042 8.28044 0.0176833 8.33191L0.00111688 8.4255L1.52064 9.94082C2.60218 11.0194 3.03756 11.469 3.03117 11.501C3.02621 11.5257 2.3422 12.2276 1.51109 13.0606L0 14.5753L0.0179936 14.672C0.0367937 14.7728 0.120557 15.0564 0.15704 15.1426C0.168581 15.17 0.18887 15.2317 0.202086 15.2796C0.215302 15.3276 0.250172 15.4286 0.279521 15.504C0.308931 15.5794 0.344421 15.6747 0.358444 15.7158C0.436499 15.9451 0.509404 16.0897 0.54688 16.0897C0.588513 16.0897 5.11935 11.5392 5.11935 11.4975C5.11935 11.4573 0.590437 6.92109 0.538442 6.90925C0.518214 6.90464 0.492403 6.93118 0.477884 6.97156ZM11.133 13.2417C10.9528 13.4235 9.23566 15.1474 7.31711 17.0724C5.3985 18.9975 3.82878 20.5797 3.82878 20.5884C3.82878 20.661 4.88165 21.4611 4.97726 21.4611C5.01176 21.4611 6.70092 19.7835 9.87672 16.5955C11.268 15.1988 11.476 14.9994 11.5191 15.0196C11.5463 15.0324 13.0108 16.4842 14.7735 18.2457C16.5363 20.0073 17.9939 21.4521 18.0127 21.4564C18.0315 21.4606 18.0783 21.4439 18.1167 21.4193C18.2643 21.3241 18.6839 21.0253 18.7076 20.9984C18.7212 20.9829 18.8301 20.8946 18.9496 20.8023C19.0721 20.7076 19.1667 20.6159 19.1667 20.592C19.1667 20.5423 11.5599 12.9273 11.5006 12.9177C11.477 12.9139 11.3255 13.0474 11.133 13.2417ZM9.18341 20.1764C7.931 21.4292 6.9063 22.4644 6.9063 22.477C6.9063 22.5006 6.97815 22.539 7.12967 22.5963C7.17744 22.6143 7.27796 22.6527 7.35303 22.6815C7.52298 22.7466 7.77992 22.8325 8.02314 22.9053C8.12552 22.936 8.23894 22.9722 8.27517 22.9858C8.3992 23.0323 8.44506 22.9913 9.94404 21.4922C11.0575 20.3788 11.4605 19.9905 11.5028 19.9905C11.5453 19.9905 11.9462 20.3784 13.0613 21.4985C14.6023 23.0462 14.5931 23.038 14.7292 22.9836C14.7606 22.9711 14.87 22.9361 14.9724 22.906C15.3118 22.806 15.4804 22.7522 15.5556 22.7198C15.5966 22.7023 15.6723 22.6699 15.724 22.6477C15.7756 22.6257 15.8315 22.6072 15.8481 22.6067C15.8647 22.6062 15.9341 22.579 16.0023 22.5461L16.1264 22.4864L13.8407 20.1916C12.3786 18.7237 11.538 17.8972 11.5077 17.8978C11.479 17.8983 10.5702 18.7892 9.18341 20.1764Z"/>
</mask>
<path fill-rule="evenodd" clip-rule="evenodd" d="M8.28374 0.0125446C8.27008 0.0169688 8.19749 0.0389029 8.12241 0.0613355C7.64658 0.203346 7.58856 0.223348 7.10485 0.412405C7.05707 0.431037 6.99285 0.453345 6.96214 0.461944C6.93143 0.470481 6.9063 0.491418 6.9063 0.508429C6.9063 0.552609 11.4395 5.09639 11.4917 5.10455C11.5448 5.11284 16.0892 0.578655 16.0892 0.517277C16.0892 0.492851 16.0569 0.466804 16.0086 0.452348C15.9642 0.439075 15.8106 0.381747 15.6673 0.32498C15.524 0.268214 15.3564 0.206711 15.295 0.188266C15.2336 0.169884 15.1219 0.135861 15.0468 0.112743C14.7512 0.0217047 14.66 -0.000416411 14.6071 0.00618873C14.5724 0.0104883 13.9963 0.56881 13.0485 1.51634C11.9652 2.59939 11.5318 3.01745 11.4979 3.01184C11.472 3.00754 10.775 2.32827 9.94913 1.50232C8.39927 -0.047587 8.41788 -0.0308874 8.28374 0.0125446ZM4.7843 1.65018C4.68875 1.71761 4.56031 1.80721 4.49888 1.84934C4.27849 2.00044 3.82878 2.37363 3.82878 2.40529C3.82878 2.42891 10.6558 9.28648 11.394 10.0044C11.4662 10.0746 11.5032 10.0947 11.5313 10.0789C11.6084 10.0355 19.1667 2.43881 19.1667 2.40467C19.1667 2.35482 18.4528 1.79575 18.0916 1.56276C18.0007 1.50412 18.3827 1.13666 14.7545 4.77317C12.3984 7.13457 11.554 7.96626 11.5061 7.97237C11.4495 7.97953 11.0414 7.57899 8.24334 4.77012C6.48444 3.00436 5.02566 1.55242 5.00165 1.54363C4.9723 1.53285 4.90113 1.56768 4.7843 1.65018ZM2.33711 3.88185C2.2487 3.97918 1.94368 4.37312 1.82988 4.53694C1.54478 4.9474 1.54062 4.95481 1.56656 5.00348C1.58033 5.0294 3.03315 6.49213 4.79497 8.25396C6.55679 10.0158 7.99832 11.4737 7.99832 11.4937C7.99832 11.5137 6.54649 12.9875 4.77201 14.769C1.33177 18.2229 1.50761 18.0335 1.62277 18.1601C1.64852 18.1884 1.66955 18.2239 1.66955 18.239C1.66955 18.2541 1.67793 18.2702 1.68817 18.2748C1.69841 18.2794 1.74029 18.3336 1.78124 18.3953C1.82219 18.457 1.86438 18.5187 1.87505 18.5324C1.88572 18.5461 1.94715 18.6256 2.01156 18.709C2.28096 19.058 2.37912 19.1676 2.4223 19.1678C2.44973 19.1679 3.85683 17.7755 5.96741 15.6598C10.1491 11.4678 10.0687 11.5491 10.0782 11.5054C10.0859 11.4702 2.48596 3.83237 2.43043 3.81954C2.41374 3.81567 2.37174 3.84371 2.33711 3.88185ZM16.7283 7.64329C14.6296 9.74896 12.9124 11.4856 12.9124 11.5026C12.9124 11.5371 20.5478 19.1929 20.5821 19.1929C20.6361 19.1929 21.4501 18.1074 21.4501 18.0355C21.4501 18.0182 20.0037 16.5529 18.236 14.7794C15.8511 12.3867 15.022 11.5402 15.022 11.4982C15.022 11.4561 15.8497 10.6123 18.236 8.22162C20.0037 6.45069 21.4501 4.98653 21.4501 4.9679C21.4501 4.93543 21.3916 4.83112 21.3387 4.76925C21.3248 4.75304 21.2745 4.68232 21.2267 4.61203C20.9823 4.25255 20.6295 3.81723 20.5814 3.81592C20.5609 3.81536 18.827 5.53768 16.7283 7.64329ZM22.4465 6.90252C22.3739 6.94763 17.8762 11.4723 17.8762 11.5004C17.8762 11.5447 22.4354 16.1088 22.4686 16.0977C22.4976 16.088 22.5275 16.0213 22.6734 15.6411C22.7818 15.3583 22.8222 15.2394 22.8887 15.0055C22.918 14.9027 22.9577 14.7751 22.977 14.722C23.0249 14.5899 23.137 14.7148 21.4764 13.0489C20.3784 11.9474 19.9857 11.5386 19.9857 11.4968C19.9857 11.455 20.3764 11.0501 21.4769 9.95135C23.1294 8.30144 23.0278 8.41422 22.9786 8.28312C22.9591 8.23103 22.9189 8.10434 22.8893 8.00153C22.8213 7.76518 22.713 7.44676 22.6391 7.26624C22.6279 7.23882 22.5892 7.14348 22.553 7.05438C22.4751 6.86239 22.486 6.87803 22.4465 6.90252ZM0.477884 6.97156C0.463985 7.01026 0.436933 7.08117 0.417761 7.12915C0.305952 7.40931 0.205375 7.68822 0.157102 7.85198C0.126823 7.95479 0.0868034 8.08378 0.0681273 8.13862C0.0495133 8.19345 0.0268042 8.28044 0.0176833 8.33191L0.00111688 8.4255L1.52064 9.94082C2.60218 11.0194 3.03756 11.469 3.03117 11.501C3.02621 11.5257 2.3422 12.2276 1.51109 13.0606L0 14.5753L0.0179936 14.672C0.0367937 14.7728 0.120557 15.0564 0.15704 15.1426C0.168581 15.17 0.18887 15.2317 0.202086 15.2796C0.215302 15.3276 0.250172 15.4286 0.279521 15.504C0.308931 15.5794 0.344421 15.6747 0.358444 15.7158C0.436499 15.9451 0.509404 16.0897 0.54688 16.0897C0.588513 16.0897 5.11935 11.5392 5.11935 11.4975C5.11935 11.4573 0.590437 6.92109 0.538442 6.90925C0.518214 6.90464 0.492403 6.93118 0.477884 6.97156ZM11.133 13.2417C10.9528 13.4235 9.23566 15.1474 7.31711 17.0724C5.3985 18.9975 3.82878 20.5797 3.82878 20.5884C3.82878 20.661 4.88165 21.4611 4.97726 21.4611C5.01176 21.4611 6.70092 19.7835 9.87672 16.5955C11.268 15.1988 11.476 14.9994 11.5191 15.0196C11.5463 15.0324 13.0108 16.4842 14.7735 18.2457C16.5363 20.0073 17.9939 21.4521 18.0127 21.4564C18.0315 21.4606 18.0783 21.4439 18.1167 21.4193C18.2643 21.3241 18.6839 21.0253 18.7076 20.9984C18.7212 20.9829 18.8301 20.8946 18.9496 20.8023C19.0721 20.7076 19.1667 20.6159 19.1667 20.592C19.1667 20.5423 11.5599 12.9273 11.5006 12.9177C11.477 12.9139 11.3255 13.0474 11.133 13.2417ZM9.18341 20.1764C7.931 21.4292 6.9063 22.4644 6.9063 22.477C6.9063 22.5006 6.97815 22.539 7.12967 22.5963C7.17744 22.6143 7.27796 22.6527 7.35303 22.6815C7.52298 22.7466 7.77992 22.8325 8.02314 22.9053C8.12552 22.936 8.23894 22.9722 8.27517 22.9858C8.3992 23.0323 8.44506 22.9913 9.94404 21.4922C11.0575 20.3788 11.4605 19.9905 11.5028 19.9905C11.5453 19.9905 11.9462 20.3784 13.0613 21.4985C14.6023 23.0462 14.5931 23.038 14.7292 22.9836C14.7606 22.9711 14.87 22.9361 14.9724 22.906C15.3118 22.806 15.4804 22.7522 15.5556 22.7198C15.5966 22.7023 15.6723 22.6699 15.724 22.6477C15.7756 22.6257 15.8315 22.6072 15.8481 22.6067C15.8647 22.6062 15.9341 22.579 16.0023 22.5461L16.1264 22.4864L13.8407 20.1916C12.3786 18.7237 11.538 17.8972 11.5077 17.8978C11.479 17.8983 10.5702 18.7892 9.18341 20.1764Z" stroke="#C7A45D" stroke-width="2" mask="url(#path-1-inside-1_165_731)"/>
</svg>
