<svg width="18" height="18" viewBox="0 0 18 18" fill="none" xmlns="http://www.w3.org/2000/svg">
<path d="M13.125 18C7.01329 18.1718 -3.80621 7.34025 1.39654 1.4535C1.41529 1.4355 2.21554 0.738 2.21554 0.738C2.71779 0.273708 3.37818 0.0184042 4.06213 0.0241177C4.74608 0.0298313 5.40212 0.296132 5.89654 0.76875L7.51054 2.50725C7.98596 3.00411 8.24889 3.66678 8.24342 4.35444C8.23796 5.04209 7.96455 5.70051 7.48129 6.18975L7.19029 6.48525C8.05694 8.40442 9.59025 9.94412 11.5058 10.8188L11.814 10.5188C12.314 10.0426 12.978 9.77697 13.6684 9.77697C14.3589 9.77697 15.0228 10.0426 15.5228 10.5188L17.2005 12.075C17.6975 12.5605 17.9827 13.2225 17.9943 13.9171C18.0058 14.6117 17.7426 15.2828 17.262 15.7845C17.262 15.7845 16.5645 16.584 16.5465 16.6028C16.0971 17.0505 15.5632 17.4046 14.9759 17.6445C14.3886 17.8843 13.7594 18.0052 13.125 18V18ZM2.96254 3.075C-0.681711 7.5885 10.983 18.5798 14.9288 15.0375C14.9288 15.0375 15.6218 14.2433 15.6405 14.2253C15.7108 14.1549 15.7503 14.0596 15.7503 13.9601C15.7503 13.8607 15.7108 13.7653 15.6405 13.695L13.962 12.1395C13.737 11.952 13.6103 11.9498 13.4018 12.1095L12.5498 12.948C12.3961 13.0992 12.2022 13.203 11.9912 13.2472C11.7802 13.2913 11.5609 13.2739 11.3595 13.197C9.86301 12.6401 8.5037 11.768 7.37376 10.6397C6.24382 9.51146 5.36966 8.15345 4.81054 6.65775C4.72916 6.45472 4.70873 6.23237 4.75176 6.01791C4.79478 5.80345 4.89939 5.60618 5.05279 5.45025L5.88379 4.60575C5.92163 4.57213 5.95204 4.53099 5.97308 4.48495C5.99411 4.43891 6.0053 4.38898 6.00594 4.33837C6.00657 4.28775 5.99664 4.23756 5.97677 4.19101C5.9569 4.14445 5.92753 4.10256 5.89054 4.068L4.27504 2.3295C4.20356 2.26976 4.11195 2.2396 4.01896 2.24517C3.92597 2.25075 3.83862 2.29165 3.77479 2.3595C3.75679 2.37825 2.96254 3.075 2.96254 3.075ZM18 7.125C17.9979 5.236 17.2465 3.425 15.9108 2.08928C14.575 0.753552 12.764 0.00218347 10.875 0C10.5767 0 10.2905 0.118526 10.0795 0.329505C9.86856 0.540483 9.75004 0.826632 9.75004 1.125C9.75004 1.42337 9.86856 1.70952 10.0795 1.9205C10.2905 2.13147 10.5767 2.25 10.875 2.25C12.1675 2.25159 13.4065 2.76571 14.3204 3.67961C15.2343 4.5935 15.7485 5.83256 15.75 7.125C15.75 7.42337 15.8686 7.70952 16.0795 7.9205C16.2905 8.13147 16.5767 8.25 16.875 8.25C17.1734 8.25 17.4596 8.13147 17.6705 7.9205C17.8815 7.70952 18 7.42337 18 7.125ZM14.25 7.125C14.249 6.2302 13.8931 5.37233 13.2604 4.73961C12.6277 4.10689 11.7698 3.75099 10.875 3.75C10.5767 3.75 10.2905 3.86853 10.0795 4.07951C9.86856 4.29048 9.75004 4.57663 9.75004 4.875C9.75004 5.17337 9.86856 5.45952 10.0795 5.6705C10.2905 5.88147 10.5767 6 10.875 6C11.1734 6 11.4596 6.11853 11.6705 6.32951C11.8815 6.54048 12 6.82663 12 7.125C12 7.42337 12.1186 7.70952 12.3295 7.9205C12.5405 8.13147 12.8267 8.25 13.125 8.25C13.4234 8.25 13.7096 8.13147 13.9205 7.9205C14.1315 7.70952 14.25 7.42337 14.25 7.125Z" fill="#2D477A"/>
</svg>
