<svg width="18" height="18" viewBox="0 0 18 18" fill="none" xmlns="http://www.w3.org/2000/svg">
<g clip-path="url(#clip0_634_837)">
<path d="M13.875 2H4.125C3.03135 2.00108 1.98283 2.39652 1.2095 3.09955C0.436171 3.80257 0.00119113 4.75577 0 5.75L0 13.25C0.00119113 14.2442 0.436171 15.1974 1.2095 15.9005C1.98283 16.6035 3.03135 16.9989 4.125 17H13.875C14.9687 16.9989 16.0172 16.6035 16.7905 15.9005C17.5638 15.1974 17.9988 14.2442 18 13.25V5.75C17.9988 4.75577 17.5638 3.80257 16.7905 3.09955C16.0172 2.39652 14.9687 2.00108 13.875 2V2ZM13.875 4.04545C14.3298 4.04683 14.7683 4.19992 15.1072 4.47568L10.2322 8.9075C9.90114 9.195 9.46088 9.35542 9.003 9.35542C8.54512 9.35542 8.10486 9.195 7.77375 8.9075L2.89875 4.47568C3.23614 4.20116 3.67222 4.04816 4.125 4.04545H13.875ZM13.875 14.9545H4.125C3.62772 14.9545 3.15081 14.775 2.79917 14.4553C2.44754 14.1356 2.25 13.7021 2.25 13.25V6.78432L6.17925 10.3564C6.54957 10.6932 6.98925 10.9603 7.47318 11.1426C7.95711 11.3249 8.4758 11.4187 8.99963 11.4187C9.52345 11.4187 10.0421 11.3249 10.5261 11.1426C11.01 10.9603 11.4497 10.6932 11.82 10.3564L15.75 6.78432V13.25C15.75 13.7021 15.5525 14.1356 15.2008 14.4553C14.8492 14.775 14.3723 14.9545 13.875 14.9545Z" fill="#2D477A"/>
</g>
<defs>
<clipPath id="clip0_634_837">
<rect width="18" height="18" fill="white"/>
</clipPath>
</defs>
</svg>
