<svg width="423" height="394" viewBox="0 0 423 394" fill="none" xmlns="http://www.w3.org/2000/svg">
<mask id="path-1-inside-1_942_1519" fill="white">
<path fill-rule="evenodd" clip-rule="evenodd" d="M152.349 0.214476C152.098 0.290117 150.763 0.665128 149.382 1.04866C140.631 3.47663 139.564 3.81862 130.667 7.05095C129.789 7.36949 128.608 7.75089 128.043 7.89791C127.478 8.04387 127.016 8.40183 127.016 8.69268C127.016 9.44802 210.387 87.1336 211.347 87.2732C212.325 87.4148 295.902 9.89335 295.902 8.84396C295.902 8.42633 295.307 7.98101 294.418 7.73384C293.602 7.50692 290.778 6.52678 288.142 5.55623C285.506 4.58568 282.425 3.53416 281.295 3.21882C280.166 2.90453 278.112 2.32284 276.731 1.92759C271.295 0.371087 269.616 -0.00711945 268.644 0.10581C268.006 0.17932 257.409 9.72502 239.979 25.925C220.056 44.4422 212.084 51.5897 211.461 51.4938C210.985 51.4203 198.167 39.8068 182.978 25.6853C154.473 -0.813602 154.816 -0.528085 152.349 0.214476ZM87.9895 28.2134C86.2322 29.3661 83.8701 30.8981 82.7404 31.6183C78.6871 34.2019 70.4163 40.5823 70.4163 41.1235C70.4163 41.5273 195.974 158.772 209.551 171.046C210.878 172.247 211.558 172.59 212.075 172.32C213.493 171.579 352.501 41.6967 352.501 41.1129C352.501 40.2606 339.371 30.7021 332.729 26.7187C331.057 25.7162 338.082 19.4337 271.354 81.6075C228.023 121.981 212.493 136.2 211.613 136.305C210.572 136.427 203.066 129.579 151.606 81.5553C119.257 51.366 92.4285 26.5419 91.9869 26.3916C91.4471 26.2073 90.1382 26.8029 87.9895 28.2134ZM42.9826 66.3685C41.3565 68.0326 35.7467 74.7679 33.6539 77.5687C28.4105 84.5863 28.334 84.7131 28.811 85.5451C29.0643 85.9883 55.7837 110.997 88.1858 141.119C120.588 171.242 147.1 196.168 147.1 196.51C147.1 196.851 120.398 222.05 87.7636 252.507C24.493 311.559 27.7269 308.321 29.8449 310.486C30.3184 310.97 30.7053 311.577 30.7053 311.835C30.7053 312.094 30.8593 312.368 31.0476 312.447C31.2359 312.525 32.0061 313.452 32.7593 314.507C33.5124 315.561 34.2884 316.616 34.4847 316.85C34.6809 317.085 35.8106 318.444 36.9951 319.871C41.9499 325.837 43.7551 327.711 44.5493 327.714C45.0537 327.716 70.9321 303.91 109.748 267.737C186.655 196.066 185.176 197.456 185.352 196.71C185.494 196.108 45.7201 65.5226 44.6988 65.3031C44.3919 65.2371 43.6193 65.7165 42.9826 66.3685ZM307.655 130.678C269.057 166.679 237.476 196.371 237.476 196.662C237.476 197.251 377.9 328.143 378.532 328.143C379.524 328.143 394.494 309.585 394.494 308.355C394.494 308.059 367.895 283.008 335.384 252.685C291.522 211.776 276.274 197.304 276.274 196.586C276.274 195.866 291.497 181.44 335.384 140.566C367.895 110.288 394.494 85.2553 394.494 84.9368C394.494 84.3817 393.42 82.5983 392.446 81.5404C392.192 81.2634 391.265 80.0542 390.386 78.8525C385.893 72.7064 379.404 65.2637 378.519 65.2413C378.142 65.2318 346.254 94.6785 307.655 130.678ZM412.821 118.013C411.485 118.785 328.766 196.144 328.766 196.624C328.766 197.381 412.617 275.414 413.227 275.224C413.76 275.058 414.31 273.918 416.993 267.417C418.987 262.584 419.729 260.55 420.954 256.551C421.492 254.793 422.223 252.612 422.577 251.703C423.458 249.446 425.519 251.582 394.978 223.099C374.785 204.267 367.564 197.277 367.564 196.562C367.564 195.847 374.749 188.924 394.987 170.14C425.38 141.931 423.512 143.859 422.607 141.618C422.248 140.727 421.508 138.561 420.964 136.803C419.713 132.762 417.721 127.318 416.363 124.232C416.158 123.763 415.444 122.133 414.779 120.61C413.346 117.327 413.547 117.595 412.821 118.013ZM8.78891 119.194C8.5333 119.855 8.03577 121.068 7.68316 121.888C5.62686 126.678 3.77711 131.447 2.88932 134.246C2.33245 136.004 1.59643 138.209 1.25295 139.147C0.910615 140.085 0.492964 141.572 0.325219 142.452L0.0205409 144.052L27.9666 169.96C47.8574 188.4 55.8647 196.088 55.7472 196.634C55.6559 197.057 43.0762 209.056 27.7908 223.299L0 249.196L0.330925 250.849C0.676684 252.572 2.2172 257.421 2.88818 258.894C3.10042 259.363 3.47357 260.418 3.71663 261.238C3.95969 262.059 4.601 263.784 5.14075 265.074C5.68164 266.363 6.33436 267.993 6.59225 268.696C8.02778 272.615 9.3686 275.088 10.0578 275.088C10.8235 275.088 94.1516 197.287 94.1516 196.574C94.1516 195.886 10.8589 118.331 9.90264 118.128C9.53064 118.05 9.05593 118.503 8.78891 119.194ZM204.75 226.395C201.436 229.504 169.856 258.976 134.571 291.89C99.2855 324.803 70.4163 351.854 70.4163 352.002C70.4163 353.244 89.7799 366.923 91.5384 366.923C92.1729 366.923 123.239 338.242 181.646 283.736C207.233 259.856 211.058 256.446 211.851 256.792C212.351 257.011 239.285 281.832 271.704 311.95C304.123 342.068 330.932 366.769 331.278 366.843C331.623 366.915 332.484 366.63 333.189 366.208C335.904 364.581 343.622 359.471 344.057 359.012C344.308 358.747 346.311 357.238 348.507 355.66C350.76 354.04 352.501 352.473 352.501 352.064C352.501 351.214 212.602 221.021 211.511 220.855C211.078 220.79 208.291 223.072 204.75 226.395ZM168.895 344.959C145.861 366.377 127.016 384.077 127.016 384.292C127.016 384.696 128.337 385.351 131.124 386.332C132.003 386.641 133.851 387.296 135.232 387.788C138.357 388.902 143.083 390.37 147.556 391.616C149.439 392.14 151.525 392.759 152.191 392.991C154.472 393.786 155.316 393.085 182.884 367.455C203.362 348.418 210.774 341.78 211.552 341.78C212.333 341.78 219.706 348.412 240.215 367.562C268.556 394.025 268.387 393.884 270.889 392.954C271.467 392.74 273.479 392.142 275.362 391.626C281.605 389.917 284.704 388.997 286.088 388.444C286.841 388.144 288.234 387.59 289.185 387.212C290.134 386.834 291.161 386.519 291.467 386.511C291.772 386.502 293.049 386.035 294.304 385.474L296.586 384.452L254.549 345.218C227.658 320.121 212.198 305.99 211.642 306.001C211.114 306.01 194.4 321.242 168.895 344.959Z"/>
</mask>
<path fill-rule="evenodd" clip-rule="evenodd" d="M152.349 0.214476C152.098 0.290117 150.763 0.665128 149.382 1.04866C140.631 3.47663 139.564 3.81862 130.667 7.05095C129.789 7.36949 128.608 7.75089 128.043 7.89791C127.478 8.04387 127.016 8.40183 127.016 8.69268C127.016 9.44802 210.387 87.1336 211.347 87.2732C212.325 87.4148 295.902 9.89335 295.902 8.84396C295.902 8.42633 295.307 7.98101 294.418 7.73384C293.602 7.50692 290.778 6.52678 288.142 5.55623C285.506 4.58568 282.425 3.53416 281.295 3.21882C280.166 2.90453 278.112 2.32284 276.731 1.92759C271.295 0.371087 269.616 -0.00711945 268.644 0.10581C268.006 0.17932 257.409 9.72502 239.979 25.925C220.056 44.4422 212.084 51.5897 211.461 51.4938C210.985 51.4203 198.167 39.8068 182.978 25.6853C154.473 -0.813602 154.816 -0.528085 152.349 0.214476ZM87.9895 28.2134C86.2322 29.3661 83.8701 30.8981 82.7404 31.6183C78.6871 34.2019 70.4163 40.5823 70.4163 41.1235C70.4163 41.5273 195.974 158.772 209.551 171.046C210.878 172.247 211.558 172.59 212.075 172.32C213.493 171.579 352.501 41.6967 352.501 41.1129C352.501 40.2606 339.371 30.7021 332.729 26.7187C331.057 25.7162 338.082 19.4337 271.354 81.6075C228.023 121.981 212.493 136.2 211.613 136.305C210.572 136.427 203.066 129.579 151.606 81.5553C119.257 51.366 92.4285 26.5419 91.9869 26.3916C91.4471 26.2073 90.1382 26.8029 87.9895 28.2134ZM42.9826 66.3685C41.3565 68.0326 35.7467 74.7679 33.6539 77.5687C28.4105 84.5863 28.334 84.7131 28.811 85.5451C29.0643 85.9883 55.7837 110.997 88.1858 141.119C120.588 171.242 147.1 196.168 147.1 196.51C147.1 196.851 120.398 222.05 87.7636 252.507C24.493 311.559 27.7269 308.321 29.8449 310.486C30.3184 310.97 30.7053 311.577 30.7053 311.835C30.7053 312.094 30.8593 312.368 31.0476 312.447C31.2359 312.525 32.0061 313.452 32.7593 314.507C33.5124 315.561 34.2884 316.616 34.4847 316.85C34.6809 317.085 35.8106 318.444 36.9951 319.871C41.9499 325.837 43.7551 327.711 44.5493 327.714C45.0537 327.716 70.9321 303.91 109.748 267.737C186.655 196.066 185.176 197.456 185.352 196.71C185.494 196.108 45.7201 65.5226 44.6988 65.3031C44.3919 65.2371 43.6193 65.7165 42.9826 66.3685ZM307.655 130.678C269.057 166.679 237.476 196.371 237.476 196.662C237.476 197.251 377.9 328.143 378.532 328.143C379.524 328.143 394.494 309.585 394.494 308.355C394.494 308.059 367.895 283.008 335.384 252.685C291.522 211.776 276.274 197.304 276.274 196.586C276.274 195.866 291.497 181.44 335.384 140.566C367.895 110.288 394.494 85.2553 394.494 84.9368C394.494 84.3817 393.42 82.5983 392.446 81.5404C392.192 81.2634 391.265 80.0542 390.386 78.8525C385.893 72.7064 379.404 65.2637 378.519 65.2413C378.142 65.2318 346.254 94.6785 307.655 130.678ZM412.821 118.013C411.485 118.785 328.766 196.144 328.766 196.624C328.766 197.381 412.617 275.414 413.227 275.224C413.76 275.058 414.31 273.918 416.993 267.417C418.987 262.584 419.729 260.55 420.954 256.551C421.492 254.793 422.223 252.612 422.577 251.703C423.458 249.446 425.519 251.582 394.978 223.099C374.785 204.267 367.564 197.277 367.564 196.562C367.564 195.847 374.749 188.924 394.987 170.14C425.38 141.931 423.512 143.859 422.607 141.618C422.248 140.727 421.508 138.561 420.964 136.803C419.713 132.762 417.721 127.318 416.363 124.232C416.158 123.763 415.444 122.133 414.779 120.61C413.346 117.327 413.547 117.595 412.821 118.013ZM8.78891 119.194C8.5333 119.855 8.03577 121.068 7.68316 121.888C5.62686 126.678 3.77711 131.447 2.88932 134.246C2.33245 136.004 1.59643 138.209 1.25295 139.147C0.910615 140.085 0.492964 141.572 0.325219 142.452L0.0205409 144.052L27.9666 169.96C47.8574 188.4 55.8647 196.088 55.7472 196.634C55.6559 197.057 43.0762 209.056 27.7908 223.299L0 249.196L0.330925 250.849C0.676684 252.572 2.2172 257.421 2.88818 258.894C3.10042 259.363 3.47357 260.418 3.71663 261.238C3.95969 262.059 4.601 263.784 5.14075 265.074C5.68164 266.363 6.33436 267.993 6.59225 268.696C8.02778 272.615 9.3686 275.088 10.0578 275.088C10.8235 275.088 94.1516 197.287 94.1516 196.574C94.1516 195.886 10.8589 118.331 9.90264 118.128C9.53064 118.05 9.05593 118.503 8.78891 119.194ZM204.75 226.395C201.436 229.504 169.856 258.976 134.571 291.89C99.2855 324.803 70.4163 351.854 70.4163 352.002C70.4163 353.244 89.7799 366.923 91.5384 366.923C92.1729 366.923 123.239 338.242 181.646 283.736C207.233 259.856 211.058 256.446 211.851 256.792C212.351 257.011 239.285 281.832 271.704 311.95C304.123 342.068 330.932 366.769 331.278 366.843C331.623 366.915 332.484 366.63 333.189 366.208C335.904 364.581 343.622 359.471 344.057 359.012C344.308 358.747 346.311 357.238 348.507 355.66C350.76 354.04 352.501 352.473 352.501 352.064C352.501 351.214 212.602 221.021 211.511 220.855C211.078 220.79 208.291 223.072 204.75 226.395ZM168.895 344.959C145.861 366.377 127.016 384.077 127.016 384.292C127.016 384.696 128.337 385.351 131.124 386.332C132.003 386.641 133.851 387.296 135.232 387.788C138.357 388.902 143.083 390.37 147.556 391.616C149.439 392.14 151.525 392.759 152.191 392.991C154.472 393.786 155.316 393.085 182.884 367.455C203.362 348.418 210.774 341.78 211.552 341.78C212.333 341.78 219.706 348.412 240.215 367.562C268.556 394.025 268.387 393.884 270.889 392.954C271.467 392.74 273.479 392.142 275.362 391.626C281.605 389.917 284.704 388.997 286.088 388.444C286.841 388.144 288.234 387.59 289.185 387.212C290.134 386.834 291.161 386.519 291.467 386.511C291.772 386.502 293.049 386.035 294.304 385.474L296.586 384.452L254.549 345.218C227.658 320.121 212.198 305.99 211.642 306.001C211.114 306.01 194.4 321.242 168.895 344.959Z" stroke="#C7A45D" stroke-width="2" mask="url(#path-1-inside-1_942_1519)"/>
</svg>
